<svg id="svg" version="1.1" xmlns="http://www.w3.org/2000/svg" xmlns:xlink="http://www.w3.org/1999/xlink" width="400" height="136.68341708542715" viewBox="0, 0, 400,136.68341708542715"><g id="svgg"><path id="path0" d="M341.572 30.959 C 341.028 31.487,339.282 33.174,337.692 34.709 C 336.101 36.244,334.862 37.500,334.937 37.500 C 335.012 37.500,335.601 36.983,336.245 36.350 C 342.923 29.796,342.775 29.916,342.926 30.922 C 342.989 31.340,343.074 31.648,343.116 31.606 C 343.274 31.449,342.953 30.000,342.761 30.000 C 342.650 30.000,342.115 30.432,341.572 30.959 M274.333 33.516 C 272.602 35.160,261.637 45.919,259.864 47.713 C 252.242 55.429,241.731 65.798,241.347 65.982 C 239.997 66.627,240.020 66.877,240.008 51.981 C 240.000 41.648,239.952 38.739,239.790 38.637 C 239.676 38.564,236.529 38.504,232.795 38.503 L 226.006 38.500 225.916 38.875 C 225.713 39.716,225.911 99.887,226.117 99.956 C 226.348 100.033,226.991 99.406,240.341 86.106 C 245.799 80.669,250.464 76.089,250.707 75.929 C 251.350 75.508,251.647 75.677,253.108 77.292 C 253.828 78.088,254.623 78.959,254.875 79.228 C 255.127 79.496,255.333 79.788,255.333 79.876 C 255.333 79.964,255.727 80.422,256.209 80.893 C 256.690 81.364,257.495 82.237,257.996 82.833 C 260.199 85.449,260.997 86.127,262.000 86.234 C 263.488 86.394,279.333 86.468,279.427 86.317 C 279.474 86.240,279.735 86.222,280.006 86.276 C 281.130 86.501,280.257 85.535,270.917 76.216 L 261.333 66.655 261.333 65.918 C 261.333 65.258,261.416 65.101,262.125 64.413 C 262.560 63.991,263.975 62.619,265.268 61.364 C 266.561 60.110,269.476 57.283,271.746 55.083 C 274.182 52.723,275.971 50.857,276.110 50.532 C 276.303 50.080,276.342 48.510,276.326 41.782 C 276.315 37.273,276.358 33.452,276.421 33.291 C 276.995 31.830,275.995 31.938,274.333 33.516 M276.036 33.919 C 275.970 34.559,275.954 38.383,276.000 42.417 C 276.046 46.450,276.055 49.924,276.020 50.137 C 275.960 50.505,274.552 51.991,271.773 54.621 C 271.073 55.283,270.500 55.893,270.500 55.977 C 270.500 56.222,269.775 56.341,269.634 56.119 C 269.544 55.979,269.504 56.004,269.503 56.200 C 269.498 56.690,269.146 57.288,268.732 57.510 C 268.513 57.627,268.333 57.810,268.333 57.917 C 268.333 58.023,268.148 58.210,267.921 58.331 C 267.694 58.452,267.197 58.921,266.817 59.372 C 266.248 60.047,266.055 60.175,265.729 60.093 C 265.443 60.021,265.333 60.064,265.333 60.247 C 265.333 60.386,265.256 60.500,265.161 60.500 C 265.067 60.500,264.941 60.631,264.881 60.792 C 264.755 61.130,263.609 62.256,263.250 62.394 C 263.099 62.451,263.047 62.596,263.114 62.771 C 263.181 62.945,263.157 63.014,263.052 62.949 C 262.780 62.781,262.003 63.220,262.001 63.542 C 262.000 63.723,261.872 63.833,261.661 63.833 C 261.475 63.833,261.286 63.927,261.242 64.042 C 261.197 64.156,260.852 64.268,260.475 64.289 C 260.098 64.311,259.706 64.392,259.603 64.468 C 259.501 64.545,259.163 64.623,258.852 64.642 C 258.070 64.689,258.000 64.761,258.000 65.522 C 258.000 66.167,257.620 66.829,257.428 66.518 C 257.281 66.281,257.361 64.503,257.522 64.403 C 257.602 64.354,257.667 64.198,257.667 64.056 C 257.667 63.914,257.855 63.575,258.084 63.302 C 258.314 63.029,258.461 62.739,258.411 62.657 C 258.296 62.471,258.826 62.350,260.000 62.294 C 260.808 62.255,260.923 62.206,260.970 61.875 C 261.025 61.486,260.948 61.462,259.485 61.427 C 258.529 61.404,258.481 61.231,258.535 57.974 C 258.576 55.424,258.548 54.998,258.333 54.987 C 258.196 54.980,258.168 54.939,258.270 54.897 C 258.387 54.849,258.427 54.548,258.377 54.102 C 258.302 53.440,258.348 53.332,258.981 52.686 C 259.358 52.301,259.667 51.902,259.667 51.798 C 259.667 51.436,260.222 51.000,260.683 51.000 C 261.168 51.000,261.455 50.762,261.177 50.590 C 261.088 50.534,261.057 50.379,261.108 50.245 C 261.179 50.061,261.070 50.000,260.675 50.000 C 260.365 50.000,260.190 49.931,260.250 49.833 C 260.307 49.742,260.274 49.667,260.177 49.667 C 259.835 49.667,259.989 48.700,260.380 48.387 C 260.593 48.216,260.733 47.951,260.699 47.781 C 260.655 47.564,260.725 47.494,260.944 47.531 C 261.156 47.567,261.250 47.481,261.250 47.250 C 261.250 47.039,261.434 46.837,261.749 46.699 C 262.379 46.425,263.000 45.848,263.000 45.536 C 263.000 45.255,264.711 43.500,264.985 43.500 C 265.089 43.500,265.259 43.313,265.364 43.083 C 265.468 42.854,265.656 42.667,265.782 42.667 C 265.908 42.667,266.056 42.548,266.111 42.404 C 266.301 41.908,275.850 32.450,276.004 32.604 C 276.088 32.688,276.102 33.268,276.036 33.919 M343.075 42.167 C 343.075 45.512,343.098 46.881,343.125 45.208 C 343.152 43.535,343.152 40.798,343.125 39.125 C 343.098 37.452,343.075 38.821,343.075 42.167 M331.667 40.593 C 323.526 48.727,319.154 52.922,318.713 53.022 L 318.250 53.127 318.697 53.147 C 319.071 53.163,320.079 52.245,324.851 47.542 C 327.989 44.448,331.530 40.960,332.718 39.792 C 333.907 38.623,334.813 37.669,334.731 37.673 C 334.650 37.676,333.271 38.990,331.667 40.593 M285.541 38.384 C 284.995 38.628,285.052 38.753,286.292 40.027 C 286.910 40.663,287.484 41.329,287.567 41.508 C 287.650 41.687,287.794 41.833,287.888 41.833 C 288.027 41.833,293.833 47.615,293.833 47.753 C 293.833 47.787,303.682 57.756,307.584 61.671 C 309.007 63.099,309.080 63.364,308.300 64.286 L 307.767 64.917 308.383 64.342 C 309.246 63.539,309.211 63.061,308.226 62.140 C 307.800 61.742,307.293 61.229,307.101 61.000 C 306.908 60.771,305.325 59.150,303.583 57.397 C 301.842 55.645,298.739 52.495,296.689 50.397 C 294.639 48.300,291.914 45.533,290.633 44.250 C 288.001 41.611,288.234 41.853,286.634 40.113 C 285.410 38.783,285.333 38.463,286.250 38.517 C 287.704 38.603,302.861 38.472,302.764 38.375 C 302.569 38.180,285.979 38.189,285.541 38.384 M219.462 38.594 C 219.410 38.645,217.429 38.730,215.059 38.783 C 212.059 38.849,210.554 38.947,210.104 39.105 C 209.749 39.231,209.280 39.333,209.062 39.333 C 208.647 39.333,208.517 39.624,208.875 39.751 C 208.990 39.792,209.752 39.883,210.570 39.954 C 212.220 40.098,212.628 40.393,211.424 40.574 C 210.587 40.699,210.399 41.073,211.049 41.320 C 211.618 41.537,211.955 41.988,211.676 42.161 C 211.556 42.235,211.509 42.379,211.572 42.481 C 211.646 42.602,211.508 42.667,211.177 42.667 L 210.667 42.667 210.667 45.296 C 210.667 48.175,210.557 48.500,209.591 48.500 C 208.917 48.500,208.961 48.780,209.697 49.163 C 210.382 49.520,211.500 49.528,211.500 49.175 C 211.500 48.638,212.466 48.724,212.734 49.286 C 213.258 50.386,212.227 51.067,210.931 50.476 C 210.587 50.319,210.432 50.341,210.048 50.601 C 209.793 50.775,209.402 50.954,209.180 51.000 C 208.620 51.116,208.528 51.500,209.060 51.500 C 209.291 51.500,209.729 51.642,210.032 51.815 C 210.555 52.114,211.275 52.151,213.802 52.012 C 213.921 52.005,213.973 51.924,213.916 51.832 C 213.859 51.740,213.929 51.619,214.073 51.564 C 214.216 51.509,214.333 51.352,214.333 51.214 C 214.333 51.077,214.525 50.814,214.759 50.630 C 214.993 50.446,215.299 50.009,215.439 49.660 C 215.578 49.311,215.798 48.985,215.926 48.936 C 216.164 48.845,217.000 47.265,217.000 46.906 C 217.000 46.797,217.100 46.624,217.223 46.523 C 217.345 46.421,217.545 46.018,217.668 45.627 C 217.791 45.236,218.054 44.729,218.254 44.500 C 218.453 44.271,218.747 43.746,218.906 43.333 C 219.066 42.921,219.415 42.185,219.681 41.698 C 219.948 41.211,220.167 40.667,220.167 40.490 C 220.167 40.312,220.236 40.167,220.320 40.167 C 220.569 40.167,221.207 39.012,221.105 38.746 C 221.012 38.505,219.675 38.381,219.462 38.594 M303.083 38.608 C 303.175 38.693,303.981 39.467,304.875 40.328 C 305.769 41.190,306.500 41.854,306.500 41.803 C 306.500 41.662,303.520 38.774,303.200 38.605 C 303.027 38.514,302.982 38.515,303.083 38.608 M209.116 41.940 C 208.904 42.152,209.198 42.333,209.755 42.333 C 210.191 42.333,210.301 42.275,210.227 42.083 C 210.132 41.837,209.323 41.732,209.116 41.940 M308.005 43.302 C 308.709 44.007,309.464 44.733,309.684 44.916 C 309.904 45.098,309.446 44.587,308.667 43.779 C 307.887 42.970,307.132 42.244,306.988 42.164 C 306.843 42.085,307.301 42.596,308.005 43.302 M311.750 47.000 C 312.201 47.458,312.608 47.833,312.654 47.833 C 312.700 47.833,312.368 47.458,311.917 47.000 C 311.465 46.542,311.058 46.167,311.013 46.167 C 310.967 46.167,311.299 46.542,311.750 47.000 M312.833 47.935 C 312.833 48.022,313.337 48.578,313.953 49.171 L 315.073 50.250 314.002 49.083 C 313.413 48.442,312.909 47.885,312.882 47.847 C 312.855 47.809,312.833 47.849,312.833 47.935 M261.333 48.154 C 261.333 48.239,261.202 48.335,261.042 48.367 C 260.855 48.404,260.817 48.467,260.936 48.542 C 261.038 48.606,261.256 48.511,261.420 48.329 C 261.590 48.141,261.636 48.000,261.526 48.000 C 261.420 48.000,261.333 48.070,261.333 48.154 M342.806 48.490 C 342.736 48.686,340.860 50.612,338.860 52.542 C 338.028 53.344,337.401 53.998,337.466 53.995 C 337.677 53.987,343.000 48.729,343.000 48.529 C 343.000 48.294,342.883 48.271,342.806 48.490 M259.708 50.366 C 259.507 50.567,259.292 50.681,259.231 50.620 C 259.069 50.458,259.494 50.000,259.807 50.000 C 260.022 50.000,260.002 50.072,259.708 50.366 M315.167 50.259 C 315.167 50.351,315.710 50.949,316.374 51.588 C 317.038 52.227,317.271 52.413,316.892 52.000 C 316.513 51.587,315.969 50.990,315.684 50.671 C 315.400 50.353,315.167 50.167,315.167 50.259 M261.167 53.417 C 261.049 53.559,260.990 53.712,261.036 53.758 C 261.082 53.804,261.216 53.725,261.333 53.583 C 261.451 53.441,261.510 53.288,261.464 53.242 C 261.418 53.196,261.284 53.275,261.167 53.417 M260.667 53.972 C 260.667 54.079,260.448 54.167,260.180 54.167 C 259.354 54.167,259.166 54.317,259.169 54.976 C 259.171 55.430,259.213 55.520,259.333 55.333 C 259.441 55.167,259.496 55.153,259.497 55.292 C 259.501 55.585,259.944 55.552,260.060 55.250 C 260.113 55.112,260.275 55.000,260.421 55.000 C 260.567 55.000,260.641 54.927,260.585 54.837 C 260.530 54.747,260.569 54.516,260.672 54.323 C 260.776 54.129,260.817 53.928,260.764 53.875 C 260.710 53.821,260.667 53.865,260.667 53.972 M335.747 55.708 L 334.250 57.250 335.792 55.753 C 337.224 54.364,337.409 54.167,337.288 54.167 C 337.263 54.167,336.570 54.860,335.747 55.708 M332.700 58.534 C 330.909 60.209,328.257 62.883,329.167 62.096 C 329.579 61.739,330.292 61.062,330.750 60.593 C 331.208 60.123,332.169 59.198,332.885 58.536 C 333.601 57.875,334.141 57.333,334.085 57.333 C 334.029 57.333,333.405 57.874,332.700 58.534 M263.833 59.917 C 263.833 60.069,263.914 60.168,264.012 60.135 C 264.111 60.102,264.192 60.004,264.192 59.917 C 264.192 59.830,264.111 59.731,264.012 59.699 C 263.914 59.666,263.833 59.764,263.833 59.917 M261.444 61.611 C 261.188 61.867,261.368 62.132,261.865 62.231 C 262.478 62.354,262.888 62.093,262.350 61.922 C 262.158 61.861,262.000 61.741,262.000 61.655 C 262.000 61.477,261.610 61.446,261.444 61.611 M328.244 63.215 C 328.133 63.656,328.380 64.408,328.698 64.599 C 328.863 64.699,328.860 64.661,328.686 64.446 C 328.559 64.289,328.455 63.862,328.455 63.497 C 328.455 62.748,328.385 62.654,328.244 63.215 M329.575 65.293 C 329.938 65.682,330.299 66.000,330.379 66.000 C 330.530 66.000,330.446 65.914,329.491 65.084 C 328.966 64.628,328.973 64.646,329.575 65.293 M287.833 84.681 C 276.971 95.578,265.239 107.347,261.761 110.833 C 256.755 115.854,255.482 117.216,255.645 117.378 C 255.826 117.559,257.682 117.696,259.417 117.658 C 261.111 117.620,265.145 117.629,266.417 117.673 C 270.036 117.800,273.890 117.514,274.225 117.095 C 274.721 116.475,317.619 73.623,317.904 73.464 C 318.215 73.290,318.731 73.539,319.277 74.128 C 319.491 74.359,319.667 74.468,319.667 74.370 C 319.667 74.085,318.445 73.152,318.138 73.203 C 317.985 73.229,311.154 79.925,302.959 88.083 C 294.763 96.242,284.895 106.042,281.029 109.862 C 277.163 113.682,274.000 116.882,274.000 116.974 C 274.000 117.212,272.093 117.262,266.667 117.167 C 262.991 117.102,261.926 117.036,261.958 116.875 C 261.981 116.760,261.944 116.679,261.875 116.694 C 261.806 116.709,261.538 116.662,261.279 116.590 C 260.982 116.506,260.740 116.527,260.621 116.646 C 260.518 116.749,260.280 116.828,260.092 116.822 C 259.753 116.810,259.753 116.809,260.083 116.655 C 260.341 116.536,260.297 116.522,259.891 116.594 C 259.591 116.646,259.317 116.608,259.253 116.504 C 259.177 116.382,258.960 116.434,258.589 116.663 C 257.936 117.067,257.332 116.968,257.723 116.521 C 257.854 116.372,258.011 116.083,258.073 115.879 C 258.236 115.347,258.976 114.803,259.295 114.982 C 259.481 115.086,259.707 114.971,260.109 114.568 C 260.776 113.902,260.805 113.762,260.250 113.902 C 259.908 113.988,259.833 113.946,259.833 113.667 C 259.833 113.398,259.918 113.342,260.237 113.400 C 260.563 113.459,260.726 113.341,261.091 112.778 C 262.129 111.181,262.321 110.989,262.666 111.205 C 262.841 111.314,263.042 111.347,263.113 111.276 C 263.183 111.206,263.141 111.087,263.019 111.012 C 262.688 110.807,262.925 110.286,263.592 109.754 C 263.916 109.497,264.415 108.959,264.702 108.559 C 264.989 108.160,265.324 107.833,265.447 107.833 C 265.571 107.833,265.802 107.619,265.961 107.357 C 266.121 107.095,266.649 106.540,267.136 106.125 C 267.623 105.709,268.205 105.118,268.430 104.810 C 269.054 103.954,280.098 92.720,298.636 74.083 C 306.398 66.280,307.842 64.801,307.651 64.851 C 307.614 64.861,298.696 73.784,287.833 84.681 M259.167 66.177 C 259.167 66.365,259.092 66.473,259.000 66.417 C 258.908 66.360,258.833 66.206,258.833 66.073 C 258.833 65.941,258.908 65.833,259.000 65.833 C 259.092 65.833,259.167 65.988,259.167 66.177 M331.881 67.458 C 333.687 69.173,333.678 69.165,334.409 69.816 C 334.758 70.127,335.015 70.312,334.980 70.227 C 334.945 70.142,334.092 69.318,333.083 68.395 C 332.075 67.473,331.147 66.594,331.021 66.443 C 330.895 66.291,330.731 66.167,330.657 66.167 C 330.582 66.167,331.133 66.748,331.881 67.458 M258.050 67.121 C 258.006 67.334,258.882 67.171,259.033 66.938 C 259.108 66.822,259.289 66.890,259.545 67.131 C 259.763 67.336,259.986 67.459,260.040 67.405 C 260.094 67.351,260.331 67.433,260.568 67.588 C 260.804 67.743,261.116 67.824,261.261 67.769 C 261.591 67.642,262.000 68.034,262.000 68.476 C 262.000 69.085,262.746 69.587,262.932 69.104 C 263.072 68.739,263.943 69.668,263.850 70.083 C 263.789 70.357,263.819 70.381,264.016 70.220 C 264.212 70.060,264.379 70.174,264.920 70.837 C 265.285 71.284,265.677 71.654,265.792 71.658 C 266.111 71.671,266.039 72.000,265.717 72.000 C 265.496 72.000,265.478 72.044,265.633 72.200 C 265.784 72.350,265.881 72.353,266.025 72.209 C 266.266 71.968,267.195 72.898,267.062 73.246 C 267.002 73.403,267.070 73.451,267.279 73.399 C 267.484 73.347,267.692 73.486,267.917 73.828 C 268.100 74.107,268.384 74.378,268.549 74.431 C 268.762 74.500,268.818 74.630,268.746 74.888 C 268.667 75.171,268.682 75.196,268.816 75.000 C 268.978 74.764,270.149 75.685,270.936 76.667 C 271.046 76.804,272.204 77.967,273.509 79.250 C 274.814 80.533,276.808 82.495,277.941 83.610 C 279.073 84.724,280.000 85.721,280.000 85.825 C 280.000 86.022,264.057 85.924,262.833 85.720 C 262.512 85.666,261.990 85.614,261.672 85.603 C 261.274 85.589,261.041 85.479,260.922 85.247 C 260.828 85.062,260.590 84.752,260.394 84.558 C 260.140 84.306,260.064 84.075,260.127 83.747 L 260.214 83.288 260.498 83.663 C 260.705 83.939,260.877 84.009,261.140 83.925 C 261.585 83.784,261.600 83.476,261.182 83.097 C 261.007 82.939,260.773 82.591,260.663 82.324 C 260.385 81.653,258.833 81.252,258.833 81.851 C 258.833 81.933,258.672 82.000,258.474 82.000 C 258.126 82.000,258.124 81.990,258.417 81.667 C 258.583 81.483,258.862 81.333,259.038 81.333 C 259.566 81.333,259.325 80.759,258.771 80.695 C 258.317 80.643,258.300 80.611,258.399 79.989 C 258.486 79.445,258.447 79.304,258.159 79.127 C 257.969 79.011,257.698 78.673,257.555 78.375 C 257.412 78.077,257.187 77.833,257.055 77.833 C 256.922 77.833,256.860 77.758,256.917 77.667 C 257.091 77.385,257.456 77.482,257.548 77.833 C 257.596 78.017,257.755 78.167,257.901 78.167 C 258.056 78.167,258.167 78.306,258.167 78.500 C 258.167 78.902,258.469 78.942,258.616 78.559 C 258.678 78.397,258.608 78.203,258.444 78.083 C 258.139 77.860,258.071 77.500,258.333 77.500 C 258.425 77.500,258.500 77.350,258.500 77.167 C 258.500 76.885,258.611 76.833,259.222 76.833 C 260.056 76.833,260.162 76.768,260.046 76.324 C 259.978 76.065,259.814 76.000,259.231 76.000 C 258.391 76.000,258.335 75.880,258.917 75.333 C 259.434 74.847,259.436 74.709,258.928 74.176 C 258.534 73.763,258.520 73.661,258.469 70.833 C 258.418 67.988,258.408 67.915,258.056 67.865 C 257.653 67.808,257.460 67.466,257.609 67.076 C 257.714 66.804,258.107 66.844,258.050 67.121 M336.246 71.472 C 336.885 72.129,337.428 72.667,337.454 72.667 C 337.677 72.667,337.311 72.252,336.290 71.347 L 335.083 70.278 336.246 71.472 M337.818 72.971 C 337.919 73.160,338.084 73.365,338.184 73.427 C 338.315 73.508,338.314 73.443,338.182 73.196 C 338.081 73.007,337.916 72.801,337.816 72.739 C 337.685 72.658,337.686 72.724,337.818 72.971 M338.751 73.875 C 338.909 74.127,339.108 74.333,339.193 74.333 C 339.278 74.333,339.719 74.681,340.174 75.106 C 340.628 75.531,341.000 75.834,341.000 75.779 C 341.000 75.636,339.624 74.333,339.473 74.333 C 339.404 74.333,339.148 74.127,338.905 73.875 L 338.463 73.417 338.751 73.875 M319.833 74.524 C 319.833 74.669,322.432 77.161,324.667 79.160 C 326.263 80.588,326.360 80.656,325.243 79.562 C 324.506 78.841,323.606 77.996,323.243 77.685 C 322.880 77.374,321.965 76.513,321.208 75.772 C 320.452 75.031,319.833 74.469,319.833 74.524 M342.615 77.403 L 343.417 78.140 343.391 82.445 L 343.365 86.750 343.589 83.000 C 343.749 80.313,343.763 79.085,343.637 78.667 C 343.470 78.111,342.255 76.667,341.955 76.667 C 341.876 76.667,342.173 76.998,342.615 77.403 M260.899 81.097 C 260.954 81.242,261.000 81.392,261.000 81.430 C 261.000 81.469,261.150 81.500,261.333 81.500 C 261.711 81.500,261.760 81.327,261.467 81.033 C 261.171 80.738,260.778 80.782,260.899 81.097 M326.667 80.896 C 326.667 81.035,329.401 83.749,330.437 84.638 C 330.792 84.943,331.611 85.693,332.257 86.305 C 332.902 86.916,334.138 88.054,335.003 88.833 C 335.868 89.612,337.380 91.000,338.363 91.917 C 342.422 95.702,342.806 95.992,342.932 95.371 C 342.956 95.254,342.937 95.235,342.890 95.329 C 342.732 95.649,342.483 95.501,341.200 94.321 C 340.494 93.673,339.728 92.972,339.496 92.765 C 339.265 92.557,337.963 91.354,336.601 90.092 C 335.240 88.829,333.970 87.673,333.780 87.523 C 333.328 87.167,330.910 84.890,328.545 82.593 C 327.512 81.589,326.667 80.826,326.667 80.896 M259.226 82.640 C 258.885 82.716,258.770 82.572,258.901 82.232 C 259.000 81.972,259.029 81.975,259.243 82.266 C 259.446 82.541,259.444 82.591,259.226 82.640 M343.126 89.417 C 343.057 90.608,343.012 92.371,343.026 93.333 C 343.045 94.685,343.083 94.343,343.194 91.833 C 343.272 90.046,343.317 88.283,343.293 87.917 C 343.269 87.550,343.194 88.225,343.126 89.417 M263.833 112.033 C 263.833 112.229,263.890 112.321,263.958 112.238 C 264.027 112.155,264.146 112.041,264.222 111.983 C 264.299 111.926,264.242 111.834,264.097 111.778 C 263.907 111.705,263.833 111.777,263.833 112.033 M260.833 114.625 C 260.833 114.708,260.646 114.877,260.417 115.000 C 259.871 115.292,259.857 115.833,260.396 115.833 C 261.028 115.833,261.578 114.737,261.042 114.546 C 260.927 114.505,260.833 114.541,260.833 114.625 " stroke="none" fill="#b24bf2" fill-rule="evenodd"></path><path id="path1" d="M138.276 32.613 C 138.170 32.718,137.543 33.992,137.166 34.867 C 137.075 35.078,136.930 35.362,136.844 35.500 C 136.665 35.785,135.591 37.921,135.126 38.917 C 134.954 39.283,134.692 39.808,134.544 40.083 C 133.527 41.964,128.611 51.530,124.138 60.333 C 123.230 62.121,122.419 63.696,122.335 63.833 C 122.251 63.971,121.856 64.758,121.457 65.583 C 121.058 66.408,120.498 67.533,120.213 68.083 C 119.928 68.633,119.530 69.458,119.329 69.917 C 119.128 70.375,118.798 70.975,118.596 71.250 C 118.395 71.525,118.128 72.012,118.003 72.333 C 117.879 72.654,117.612 73.217,117.410 73.583 C 117.208 73.950,116.931 74.475,116.794 74.750 C 116.657 75.025,116.430 75.475,116.289 75.750 C 116.147 76.025,115.497 77.300,114.842 78.583 C 114.188 79.867,113.587 81.029,113.506 81.167 C 113.426 81.304,113.197 81.754,112.999 82.167 C 112.800 82.579,112.344 83.497,111.985 84.207 C 111.278 85.605,111.188 86.075,111.597 86.232 C 112.253 86.484,126.136 86.340,126.397 86.079 C 126.537 85.939,127.061 85.021,127.561 84.037 C 130.646 77.977,132.243 74.855,133.121 73.167 C 133.670 72.112,134.233 71.025,134.372 70.750 C 137.865 63.848,137.818 63.930,138.523 63.684 C 139.336 63.400,139.282 63.314,142.909 70.650 C 143.426 71.695,143.995 72.737,144.174 72.964 C 145.322 74.423,144.671 74.667,139.628 74.667 C 136.562 74.667,135.345 74.722,135.200 74.867 C 134.939 75.128,134.913 85.526,135.173 86.011 C 135.340 86.325,135.641 86.333,146.454 86.333 C 156.086 86.333,157.521 86.302,157.240 86.097 C 156.822 85.791,156.995 85.633,157.750 85.633 C 158.506 85.633,158.651 85.767,158.238 86.080 C 157.947 86.299,158.040 86.323,159.207 86.328 C 160.444 86.333,160.496 86.318,160.442 85.967 C 160.411 85.766,160.294 85.570,160.181 85.533 C 159.869 85.429,160.799 85.003,161.394 84.978 L 161.917 84.956 161.333 84.833 C 160.828 84.727,160.810 84.708,161.194 84.689 C 161.439 84.677,161.673 84.573,161.715 84.458 C 161.776 84.292,161.836 84.292,162.013 84.458 C 162.292 84.722,162.984 84.750,162.720 84.487 C 162.591 84.358,162.653 84.185,162.937 83.879 C 163.243 83.549,163.291 83.399,163.145 83.224 C 162.988 83.034,162.920 83.045,162.742 83.290 C 162.496 83.625,162.423 83.581,162.253 83.000 C 162.136 82.595,162.140 82.593,162.394 82.917 C 162.652 83.245,162.656 83.244,162.661 82.852 C 162.667 82.423,161.971 81.667,161.570 81.667 C 161.241 81.667,161.073 81.194,161.315 80.951 C 161.462 80.805,161.588 80.808,161.835 80.963 C 162.232 81.210,162.333 81.218,162.333 81.000 C 162.333 80.908,162.221 80.833,162.083 80.833 C 161.946 80.833,161.833 80.754,161.833 80.657 C 161.833 80.560,161.909 80.527,162.002 80.585 C 162.096 80.642,162.216 80.462,162.273 80.178 C 162.390 79.593,162.588 79.513,162.715 80.000 C 162.763 80.183,162.886 80.333,162.988 80.333 C 163.109 80.333,163.089 80.201,162.932 79.958 C 162.799 79.752,162.351 78.908,161.936 78.083 C 161.522 77.258,161.179 76.675,161.174 76.787 C 161.170 76.898,161.317 77.257,161.500 77.583 C 161.683 77.910,161.833 78.321,161.833 78.497 C 161.833 78.673,161.956 78.886,162.107 78.970 C 162.261 79.056,162.327 79.209,162.259 79.319 C 162.166 79.470,162.082 79.470,161.902 79.321 C 161.772 79.214,161.667 79.189,161.667 79.266 C 161.667 79.342,161.253 78.997,160.747 78.497 C 160.146 77.903,159.862 77.501,159.928 77.336 C 160.118 76.859,160.149 76.491,159.991 76.589 C 159.904 76.642,159.833 76.569,159.833 76.427 C 159.833 76.284,159.911 76.167,160.005 76.167 C 160.100 76.167,160.242 75.998,160.322 75.792 C 160.465 75.419,160.467 75.419,160.645 75.875 C 160.744 76.127,160.869 76.333,160.922 76.333 C 160.976 76.333,160.993 76.277,160.960 76.208 C 160.577 75.401,160.426 75.205,160.242 75.276 C 160.123 75.322,159.942 75.203,159.840 75.013 C 159.738 74.822,159.545 74.667,159.411 74.667 C 159.277 74.667,159.167 74.581,159.167 74.477 C 159.167 74.372,159.035 74.185,158.875 74.060 C 158.597 73.844,158.597 73.823,158.875 73.607 C 159.035 73.482,159.167 73.294,159.167 73.190 C 159.167 73.085,159.254 73.000,159.361 73.000 C 159.468 73.000,159.500 72.945,159.433 72.877 C 159.365 72.810,159.221 72.753,159.113 72.752 C 159.005 72.751,158.917 72.675,158.917 72.583 C 158.917 72.492,158.956 72.430,159.003 72.446 C 159.051 72.462,158.754 71.771,158.342 70.912 C 157.930 70.052,157.544 69.428,157.484 69.525 C 157.410 69.646,157.335 69.637,157.249 69.499 C 157.180 69.387,157.217 69.239,157.330 69.169 C 157.476 69.078,157.482 69.009,157.351 68.928 C 157.250 68.865,157.167 68.893,157.167 68.990 C 157.167 69.294,156.757 69.183,156.529 68.817 C 156.252 68.374,156.415 68.200,156.851 68.472 C 157.150 68.659,157.170 68.649,157.032 68.383 C 156.948 68.218,156.341 66.979,155.684 65.630 C 155.027 64.281,154.372 63.112,154.230 63.032 C 154.087 62.952,153.980 62.818,153.992 62.735 C 154.066 62.215,153.228 60.609,152.967 60.771 C 152.876 60.826,152.819 60.697,152.837 60.477 C 152.900 59.732,152.851 59.548,152.667 59.833 C 152.578 59.971,152.499 60.046,152.491 60.000 C 152.483 59.954,152.451 59.729,152.419 59.500 C 152.368 59.128,151.517 57.268,150.666 55.667 C 150.495 55.346,150.173 54.708,149.949 54.250 C 148.883 52.067,148.286 50.881,148.061 50.500 C 147.926 50.271,147.701 49.821,147.560 49.500 C 147.420 49.179,146.887 48.092,146.376 47.083 C 145.865 46.075,145.341 45.025,145.212 44.750 C 145.084 44.475,144.868 44.063,144.733 43.833 C 144.598 43.604,144.189 42.779,143.824 42.000 C 143.459 41.221,143.093 40.471,143.009 40.333 C 142.926 40.196,142.616 39.596,142.320 39.000 C 142.025 38.404,141.654 37.729,141.497 37.500 C 141.339 37.271,140.890 36.352,140.498 35.458 C 140.106 34.565,139.733 33.833,139.668 33.833 C 139.604 33.833,139.415 33.533,139.250 33.167 C 138.971 32.548,138.569 32.320,138.276 32.613 M53.292 38.680 C 52.873 38.924,52.833 93.167,53.252 93.167 C 53.520 93.167,54.272 92.848,56.417 91.826 C 60.818 89.729,61.686 89.333,61.882 89.333 C 62.002 89.333,62.171 89.264,62.258 89.179 C 62.502 88.941,66.029 87.222,66.500 87.112 C 67.564 86.863,67.500 87.382,67.554 78.555 C 67.593 72.228,67.649 70.472,67.822 70.264 C 68.184 69.828,90.993 69.866,91.389 70.303 C 91.634 70.574,91.668 71.441,91.707 78.428 L 91.750 86.250 98.481 86.294 C 103.344 86.325,105.275 86.284,105.441 86.147 C 105.862 85.797,105.762 38.896,105.340 38.670 C 104.957 38.465,92.191 38.437,91.870 38.640 C 91.703 38.746,91.649 40.446,91.620 46.513 C 91.593 52.189,91.529 54.372,91.379 54.708 L 91.175 55.167 79.675 55.167 L 68.174 55.167 67.879 54.716 C 67.608 54.302,67.581 53.630,67.556 46.622 C 67.540 42.418,67.486 38.871,67.436 38.740 C 67.322 38.443,53.796 38.386,53.292 38.680 M166.626 49.917 C 166.582 50.146,166.611 50.333,166.690 50.333 C 166.769 50.333,166.833 50.146,166.833 49.917 C 166.833 49.688,166.805 49.500,166.769 49.500 C 166.734 49.500,166.670 49.688,166.626 49.917 M166.407 60.083 C 166.407 62.742,166.430 63.806,166.458 62.448 C 166.486 61.090,166.486 58.915,166.458 57.615 C 166.430 56.314,166.407 57.425,166.407 60.083 M166.403 71.167 C 166.403 72.862,166.427 73.556,166.458 72.708 C 166.488 71.860,166.488 70.473,166.458 69.625 C 166.427 68.777,166.403 69.471,166.403 71.167 M156.910 69.597 C 157.204 70.045,157.154 70.500,156.811 70.500 C 156.701 70.500,156.658 70.453,156.716 70.396 C 156.773 70.338,156.711 70.079,156.577 69.820 C 156.169 69.031,156.426 68.858,156.910 69.597 M159.375 73.593 C 159.088 73.905,159.108 73.950,159.576 74.039 C 159.953 74.111,159.963 73.861,159.602 73.392 C 159.592 73.378,159.490 73.469,159.375 73.593 M164.163 83.254 C 163.978 83.478,163.999 83.531,164.306 83.611 C 164.504 83.663,164.667 83.800,164.667 83.916 C 164.667 84.031,164.790 84.228,164.941 84.353 C 165.162 84.537,164.697 83.362,164.420 83.038 C 164.398 83.013,164.283 83.110,164.163 83.254 " stroke="none" fill="#5a69f9" fill-rule="evenodd"></path><path id="path2" d="M340.842 31.917 C 339.804 32.925,338.475 34.200,337.889 34.750 C 336.811 35.761,335.188 37.353,324.851 47.542 C 321.126 51.213,319.027 53.167,318.806 53.167 C 318.086 53.167,317.322 52.578,314.963 50.207 C 311.992 47.219,307.214 42.525,304.783 40.206 L 302.990 38.495 294.453 38.503 C 289.739 38.508,285.809 38.578,285.676 38.661 C 285.486 38.778,285.688 39.084,286.634 40.113 C 288.234 41.853,288.001 41.611,290.633 44.250 C 291.914 45.533,294.639 48.300,296.689 50.397 C 298.739 52.495,301.842 55.645,303.583 57.397 C 305.325 59.150,306.908 60.771,307.101 61.000 C 307.293 61.229,307.800 61.742,308.226 62.140 C 309.521 63.350,310.101 62.609,299.592 73.149 C 281.712 91.078,269.096 103.896,268.430 104.810 C 268.205 105.118,267.623 105.709,267.136 106.125 C 266.649 106.540,266.121 107.095,265.961 107.357 C 265.802 107.619,265.571 107.833,265.447 107.833 C 265.324 107.833,264.989 108.160,264.702 108.559 C 264.415 108.959,263.916 109.497,263.592 109.754 C 262.925 110.286,262.688 110.807,263.019 111.012 C 263.141 111.087,263.183 111.206,263.113 111.276 C 263.042 111.347,262.841 111.314,262.666 111.205 C 262.321 110.989,262.129 111.181,261.091 112.778 C 260.726 113.341,260.563 113.459,260.237 113.400 C 259.918 113.342,259.833 113.398,259.833 113.667 C 259.833 113.946,259.908 113.988,260.250 113.902 C 260.805 113.762,260.776 113.902,260.109 114.568 C 259.707 114.971,259.481 115.086,259.295 114.982 C 258.976 114.803,258.236 115.347,258.073 115.879 C 258.011 116.083,257.854 116.372,257.723 116.521 C 257.332 116.968,257.936 117.067,258.589 116.663 C 258.904 116.468,259.182 116.391,259.239 116.482 C 259.408 116.755,260.328 116.879,260.588 116.663 C 260.742 116.535,260.996 116.510,261.290 116.592 C 261.543 116.663,261.806 116.709,261.875 116.694 C 261.944 116.679,261.981 116.760,261.958 116.875 C 261.926 117.036,262.991 117.102,266.667 117.167 C 272.093 117.262,274.000 117.212,274.000 116.974 C 274.000 116.882,277.163 113.682,281.029 109.862 C 284.895 106.042,294.763 96.242,302.959 88.083 C 311.154 79.925,318.002 73.226,318.175 73.197 C 318.391 73.161,319.113 73.750,320.454 75.057 C 321.533 76.108,322.752 77.257,323.162 77.609 C 324.004 78.332,325.680 79.893,328.504 82.583 C 331.764 85.689,333.418 87.238,333.780 87.523 C 333.970 87.673,335.240 88.829,336.601 90.092 C 337.963 91.354,339.265 92.557,339.496 92.765 C 339.728 92.972,340.494 93.673,341.200 94.321 C 342.997 95.973,342.999 95.971,343.002 93.028 C 343.004 91.958,343.074 90.033,343.159 88.750 C 343.243 87.467,343.336 84.556,343.364 82.282 L 343.417 78.147 341.500 76.324 C 340.446 75.322,339.530 74.502,339.465 74.501 C 339.399 74.500,338.905 74.069,338.367 73.542 C 337.072 72.275,334.767 70.102,333.726 69.167 C 333.267 68.754,332.026 67.606,330.969 66.616 C 329.912 65.625,328.892 64.706,328.703 64.574 C 327.593 63.796,328.025 63.002,331.196 60.000 C 332.599 58.671,335.216 56.133,337.012 54.361 C 338.807 52.589,340.345 51.088,340.430 51.026 C 340.514 50.964,341.127 50.341,341.792 49.641 L 343.000 48.369 342.983 39.643 C 342.963 28.813,343.190 29.634,340.842 31.917 M271.033 37.297 C 268.382 39.961,266.167 42.259,266.111 42.404 C 266.056 42.548,265.908 42.667,265.782 42.667 C 265.656 42.667,265.468 42.854,265.364 43.083 C 265.259 43.313,265.089 43.500,264.985 43.500 C 264.711 43.500,263.000 45.255,263.000 45.536 C 263.000 45.848,262.379 46.425,261.749 46.699 C 261.434 46.837,261.250 47.039,261.250 47.250 C 261.250 47.481,261.156 47.567,260.944 47.531 C 260.725 47.494,260.655 47.564,260.699 47.781 C 260.733 47.951,260.593 48.216,260.380 48.387 C 259.989 48.700,259.835 49.667,260.177 49.667 C 260.274 49.667,260.307 49.742,260.250 49.833 C 260.190 49.931,260.365 50.000,260.675 50.000 C 261.070 50.000,261.179 50.061,261.108 50.245 C 261.057 50.379,261.088 50.534,261.177 50.590 C 261.455 50.762,261.168 51.000,260.683 51.000 C 260.222 51.000,259.667 51.436,259.667 51.798 C 259.667 51.902,259.358 52.301,258.981 52.686 C 258.348 53.332,258.302 53.440,258.377 54.102 C 258.427 54.548,258.387 54.849,258.270 54.897 C 258.168 54.939,258.196 54.980,258.333 54.987 C 258.548 54.998,258.576 55.424,258.535 57.974 C 258.481 61.231,258.529 61.404,259.485 61.427 C 260.948 61.462,261.025 61.486,260.970 61.875 C 260.923 62.206,260.808 62.255,260.000 62.294 C 258.826 62.350,258.296 62.471,258.411 62.657 C 258.461 62.739,258.314 63.029,258.084 63.302 C 257.855 63.575,257.667 63.914,257.667 64.056 C 257.667 64.198,257.602 64.354,257.522 64.403 C 257.361 64.503,257.281 66.281,257.428 66.518 C 257.620 66.829,258.000 66.167,258.000 65.522 C 258.000 64.761,258.070 64.689,258.852 64.642 C 259.163 64.623,259.501 64.545,259.603 64.468 C 259.706 64.392,260.098 64.311,260.475 64.289 C 260.852 64.268,261.197 64.156,261.242 64.042 C 261.286 63.927,261.475 63.833,261.661 63.833 C 261.872 63.833,262.000 63.723,262.001 63.542 C 262.003 63.220,262.780 62.781,263.052 62.949 C 263.157 63.014,263.181 62.945,263.114 62.771 C 263.047 62.596,263.099 62.451,263.250 62.394 C 263.609 62.256,264.755 61.130,264.881 60.792 C 264.941 60.631,265.067 60.500,265.161 60.500 C 265.256 60.500,265.333 60.386,265.333 60.247 C 265.333 60.064,265.443 60.021,265.729 60.093 C 266.055 60.175,266.248 60.047,266.817 59.372 C 267.197 58.921,267.694 58.452,267.921 58.331 C 268.148 58.210,268.333 58.023,268.333 57.917 C 268.333 57.810,268.513 57.627,268.732 57.510 C 269.146 57.288,269.498 56.690,269.503 56.200 C 269.504 56.004,269.544 55.979,269.634 56.119 C 269.775 56.341,270.500 56.222,270.500 55.977 C 270.500 55.893,271.073 55.283,271.773 54.621 C 274.552 51.991,275.960 50.505,276.020 50.137 C 276.055 49.924,276.046 46.450,276.000 42.417 C 275.954 38.383,275.970 34.559,276.036 33.919 C 276.102 33.268,276.088 32.688,276.004 32.604 C 275.915 32.515,273.902 34.415,271.033 37.297 M261.420 48.329 C 261.256 48.511,261.038 48.606,260.936 48.542 C 260.817 48.467,260.855 48.404,261.042 48.367 C 261.202 48.335,261.333 48.239,261.333 48.154 C 261.333 48.070,261.420 48.000,261.526 48.000 C 261.636 48.000,261.590 48.141,261.420 48.329 M259.330 50.254 C 258.987 50.668,259.311 50.764,259.708 50.366 C 260.002 50.072,260.022 50.000,259.807 50.000 C 259.661 50.000,259.446 50.114,259.330 50.254 M261.333 53.583 C 261.216 53.725,261.082 53.804,261.036 53.758 C 260.990 53.712,261.049 53.559,261.167 53.417 C 261.284 53.275,261.418 53.196,261.464 53.242 C 261.510 53.288,261.451 53.441,261.333 53.583 M260.672 54.323 C 260.569 54.516,260.530 54.747,260.585 54.837 C 260.641 54.927,260.567 55.000,260.421 55.000 C 260.275 55.000,260.113 55.112,260.060 55.250 C 259.944 55.552,259.501 55.585,259.497 55.292 C 259.496 55.153,259.441 55.167,259.333 55.333 C 259.213 55.520,259.171 55.430,259.169 54.976 C 259.166 54.317,259.354 54.167,260.180 54.167 C 260.448 54.167,260.667 54.079,260.667 53.972 C 260.667 53.865,260.710 53.821,260.764 53.875 C 260.817 53.928,260.776 54.129,260.672 54.323 M264.192 59.917 C 264.192 60.004,264.111 60.102,264.012 60.135 C 263.914 60.168,263.833 60.069,263.833 59.917 C 263.833 59.764,263.914 59.666,264.012 59.699 C 264.111 59.731,264.192 59.830,264.192 59.917 M262.000 61.655 C 262.000 61.741,262.158 61.861,262.350 61.922 C 262.888 62.093,262.478 62.354,261.865 62.231 C 261.368 62.132,261.188 61.867,261.444 61.611 C 261.610 61.446,262.000 61.477,262.000 61.655 M258.833 66.073 C 258.833 66.206,258.908 66.360,259.000 66.417 C 259.092 66.473,259.167 66.365,259.167 66.177 C 259.167 65.988,259.092 65.833,259.000 65.833 C 258.908 65.833,258.833 65.941,258.833 66.073 M257.609 67.076 C 257.460 67.466,257.653 67.808,258.056 67.865 C 258.408 67.915,258.418 67.988,258.469 70.833 C 258.520 73.661,258.534 73.763,258.928 74.176 C 259.436 74.709,259.434 74.847,258.917 75.333 C 258.335 75.880,258.391 76.000,259.231 76.000 C 259.814 76.000,259.978 76.065,260.046 76.324 C 260.162 76.768,260.056 76.833,259.222 76.833 C 258.611 76.833,258.500 76.885,258.500 77.167 C 258.500 77.350,258.425 77.500,258.333 77.500 C 258.071 77.500,258.139 77.860,258.444 78.083 C 258.608 78.203,258.678 78.397,258.616 78.559 C 258.469 78.942,258.167 78.902,258.167 78.500 C 258.167 78.306,258.056 78.167,257.901 78.167 C 257.755 78.167,257.596 78.017,257.548 77.833 C 257.456 77.482,257.091 77.385,256.917 77.667 C 256.860 77.758,256.922 77.833,257.055 77.833 C 257.187 77.833,257.412 78.077,257.555 78.375 C 257.698 78.673,257.969 79.011,258.159 79.127 C 258.447 79.304,258.486 79.445,258.399 79.989 C 258.300 80.611,258.317 80.643,258.771 80.695 C 259.325 80.759,259.566 81.333,259.038 81.333 C 258.862 81.333,258.583 81.483,258.417 81.667 C 258.124 81.990,258.126 82.000,258.474 82.000 C 258.672 82.000,258.833 81.933,258.833 81.851 C 258.833 81.252,260.385 81.653,260.663 82.324 C 260.773 82.591,261.007 82.939,261.182 83.097 C 261.600 83.476,261.585 83.784,261.140 83.925 C 260.877 84.009,260.705 83.939,260.498 83.663 L 260.214 83.288 260.127 83.747 C 260.064 84.075,260.140 84.306,260.394 84.558 C 260.590 84.752,260.828 85.062,260.922 85.247 C 261.041 85.479,261.274 85.589,261.672 85.603 C 261.990 85.614,262.512 85.666,262.833 85.720 C 264.057 85.924,280.000 86.022,280.000 85.825 C 280.000 85.721,279.073 84.724,277.941 83.610 C 276.808 82.495,274.814 80.533,273.509 79.250 C 272.204 77.967,271.046 76.804,270.936 76.667 C 270.149 75.685,268.978 74.764,268.816 75.000 C 268.682 75.196,268.667 75.171,268.746 74.888 C 268.818 74.630,268.762 74.500,268.549 74.431 C 268.384 74.378,268.100 74.107,267.917 73.828 C 267.692 73.486,267.484 73.347,267.279 73.399 C 267.070 73.451,267.002 73.403,267.062 73.246 C 267.195 72.898,266.266 71.968,266.025 72.209 C 265.881 72.353,265.784 72.350,265.633 72.200 C 265.478 72.044,265.496 72.000,265.717 72.000 C 266.039 72.000,266.111 71.671,265.792 71.658 C 265.677 71.654,265.285 71.284,264.920 70.837 C 264.379 70.174,264.212 70.060,264.016 70.220 C 263.819 70.381,263.789 70.357,263.850 70.083 C 263.943 69.668,263.072 68.739,262.932 69.104 C 262.746 69.587,262.000 69.085,262.000 68.476 C 262.000 68.034,261.591 67.642,261.261 67.769 C 261.116 67.824,260.804 67.743,260.568 67.588 C 260.331 67.433,260.094 67.351,260.040 67.405 C 259.986 67.459,259.763 67.336,259.545 67.131 C 259.289 66.890,259.108 66.822,259.033 66.938 C 258.882 67.171,258.006 67.334,258.050 67.121 C 258.107 66.844,257.714 66.804,257.609 67.076 M261.467 81.033 C 261.760 81.327,261.711 81.500,261.333 81.500 C 261.150 81.500,261.000 81.469,261.000 81.430 C 261.000 81.392,260.954 81.242,260.899 81.097 C 260.778 80.782,261.171 80.738,261.467 81.033 M258.901 82.232 C 258.770 82.572,258.885 82.716,259.226 82.640 C 259.444 82.591,259.446 82.541,259.243 82.266 C 259.029 81.975,259.000 81.972,258.901 82.232 M264.222 111.983 C 264.146 112.041,264.027 112.155,263.958 112.238 C 263.890 112.321,263.833 112.229,263.833 112.033 C 263.833 111.777,263.907 111.705,264.097 111.778 C 264.242 111.834,264.299 111.926,264.222 111.983 M261.205 115.005 C 261.143 115.544,260.860 115.833,260.396 115.833 C 259.857 115.833,259.871 115.292,260.417 115.000 C 260.646 114.877,260.833 114.708,260.833 114.625 C 260.833 114.541,260.927 114.505,261.042 114.546 C 261.156 114.587,261.230 114.793,261.205 115.005 " stroke="none" fill="#ed6cf9" fill-rule="evenodd"></path><path id="path3" d="M177.083 39.066 C 175.530 39.621,174.396 40.138,173.652 40.631 C 173.414 40.788,172.912 41.121,172.536 41.371 C 169.889 43.130,166.866 47.635,166.839 49.861 C 166.836 50.106,166.743 50.336,166.632 50.373 C 166.373 50.459,166.385 74.297,166.644 74.777 C 166.735 74.946,166.853 75.222,166.906 75.392 C 166.965 75.581,167.099 75.664,167.251 75.606 C 167.538 75.496,167.581 75.686,167.326 75.940 C 167.206 76.061,167.231 76.179,167.410 76.327 C 167.551 76.445,167.667 76.636,167.667 76.751 C 167.667 77.332,168.630 78.666,168.971 78.558 C 169.191 78.487,169.202 78.503,169.020 78.633 C 168.188 79.226,172.998 83.872,176.360 85.722 L 177.471 86.333 187.403 86.333 L 197.336 86.333 197.709 85.905 C 197.915 85.669,198.574 84.525,199.175 83.363 C 200.240 81.301,201.892 78.176,202.890 76.333 C 203.581 75.059,204.325 73.673,204.628 73.100 C 205.188 72.039,205.746 72.092,193.149 72.000 C 180.919 71.911,181.296 71.940,180.708 71.043 C 180.327 70.461,180.254 53.868,180.630 53.210 C 181.164 52.275,180.486 52.310,197.638 52.327 C 206.316 52.336,213.662 52.293,213.962 52.233 C 214.453 52.134,214.592 51.957,215.382 50.418 C 215.945 49.320,216.153 48.777,215.965 48.894 C 215.804 48.995,215.562 49.351,215.428 49.686 C 215.294 50.021,214.993 50.446,214.759 50.630 C 214.525 50.814,214.333 51.077,214.333 51.214 C 214.333 51.352,214.216 51.509,214.073 51.564 C 213.929 51.619,213.859 51.740,213.916 51.832 C 213.973 51.924,213.921 52.005,213.802 52.012 C 211.275 52.151,210.555 52.114,210.032 51.815 C 209.729 51.642,209.291 51.500,209.060 51.500 C 208.528 51.500,208.620 51.116,209.180 51.000 C 209.402 50.954,209.793 50.775,210.048 50.601 C 210.432 50.341,210.587 50.319,210.931 50.476 C 212.227 51.067,213.258 50.386,212.734 49.286 C 212.466 48.724,211.500 48.638,211.500 49.175 C 211.500 49.528,210.382 49.520,209.697 49.163 C 208.961 48.780,208.917 48.500,209.591 48.500 C 210.557 48.500,210.667 48.175,210.667 45.296 L 210.667 42.667 211.177 42.667 C 211.508 42.667,211.646 42.602,211.572 42.481 C 211.509 42.379,211.556 42.235,211.676 42.161 C 211.955 41.988,211.618 41.537,211.049 41.320 C 210.399 41.073,210.587 40.699,211.424 40.574 C 212.628 40.393,212.220 40.098,210.570 39.954 C 209.752 39.883,208.990 39.792,208.875 39.751 C 208.517 39.624,208.647 39.333,209.062 39.333 C 209.280 39.333,209.749 39.231,210.104 39.105 C 210.554 38.947,212.059 38.849,215.059 38.783 C 224.032 38.585,218.879 38.498,199.071 38.514 L 178.583 38.531 177.083 39.066 M210.227 42.083 C 210.301 42.275,210.191 42.333,209.755 42.333 C 209.198 42.333,208.904 42.152,209.116 41.940 C 209.323 41.732,210.132 41.837,210.227 42.083 M218.060 44.697 C 217.881 44.977,217.520 46.000,217.600 46.000 C 217.714 46.000,218.356 44.634,218.278 44.556 C 218.235 44.513,218.137 44.577,218.060 44.697 M217.171 46.578 C 217.060 46.712,216.997 46.908,217.032 47.013 C 217.067 47.118,217.185 47.008,217.294 46.769 C 217.517 46.281,217.474 46.213,217.171 46.578 M152.833 60.500 C 152.833 60.811,152.878 60.856,153.033 60.700 C 153.189 60.544,153.189 60.456,153.033 60.300 C 152.878 60.144,152.833 60.189,152.833 60.500 M156.339 68.446 C 156.346 68.646,156.764 69.167,156.917 69.167 C 156.988 69.167,157.146 69.298,157.268 69.458 C 157.479 69.736,157.490 69.736,157.495 69.458 C 157.498 69.298,157.443 69.167,157.373 69.167 C 157.303 69.167,157.172 68.998,157.081 68.793 C 156.924 68.436,156.327 68.158,156.339 68.446 M156.333 69.258 C 156.333 69.309,156.443 69.562,156.577 69.820 C 156.711 70.079,156.773 70.338,156.716 70.396 C 156.658 70.453,156.701 70.500,156.811 70.500 C 157.154 70.500,157.204 70.045,156.910 69.597 C 156.657 69.210,156.333 69.020,156.333 69.258 M158.766 72.474 C 158.708 72.567,158.742 72.694,158.842 72.755 C 159.098 72.914,159.263 72.697,159.049 72.483 C 158.930 72.363,158.836 72.360,158.766 72.474 M159.167 73.190 C 159.167 73.294,159.035 73.482,158.875 73.607 C 158.597 73.823,158.597 73.844,158.875 74.060 C 159.035 74.185,159.167 74.372,159.167 74.477 C 159.167 74.581,159.270 74.667,159.396 74.667 C 159.523 74.667,159.739 74.835,159.878 75.042 C 160.255 75.603,160.418 75.266,160.097 74.589 C 159.918 74.211,159.701 74.000,159.492 74.000 C 159.313 74.000,159.167 73.925,159.167 73.833 C 159.167 73.742,159.242 73.667,159.333 73.667 C 159.425 73.667,159.500 73.517,159.500 73.333 C 159.500 73.150,159.425 73.000,159.333 73.000 C 159.242 73.000,159.167 73.085,159.167 73.190 M160.333 75.745 C 160.333 75.891,160.221 76.054,160.083 76.106 C 159.946 76.159,159.833 76.311,159.833 76.444 C 159.833 76.577,159.904 76.642,159.991 76.589 C 160.149 76.491,160.118 76.859,159.928 77.336 C 159.862 77.501,160.146 77.903,160.747 78.497 C 161.253 78.997,161.667 79.342,161.667 79.266 C 161.667 79.189,161.772 79.214,161.902 79.321 C 162.082 79.470,162.166 79.470,162.259 79.319 C 162.327 79.209,162.261 79.056,162.107 78.970 C 161.956 78.886,161.833 78.673,161.833 78.497 C 161.833 78.321,161.683 77.910,161.500 77.583 C 161.317 77.257,161.167 76.850,161.167 76.679 C 161.167 76.509,161.054 76.326,160.917 76.273 C 160.779 76.220,160.667 76.067,160.667 75.932 C 160.667 75.797,160.592 75.640,160.500 75.583 C 160.408 75.527,160.333 75.600,160.333 75.745 M162.273 80.178 C 162.216 80.462,162.096 80.642,162.002 80.585 C 161.909 80.527,161.833 80.560,161.833 80.657 C 161.833 80.754,161.946 80.833,162.083 80.833 C 162.221 80.833,162.333 80.908,162.333 81.000 C 162.333 81.218,162.232 81.210,161.835 80.963 C 161.588 80.808,161.462 80.805,161.315 80.951 C 161.073 81.194,161.241 81.667,161.570 81.667 C 161.971 81.667,162.667 82.423,162.661 82.852 C 162.656 83.244,162.652 83.245,162.394 82.917 C 162.140 82.593,162.136 82.595,162.253 83.000 C 162.423 83.581,162.496 83.625,162.742 83.290 C 162.920 83.045,162.988 83.034,163.145 83.224 C 163.291 83.399,163.243 83.549,162.937 83.879 C 162.653 84.185,162.591 84.358,162.720 84.487 C 162.984 84.750,162.292 84.722,162.012 84.458 C 161.836 84.292,161.776 84.292,161.715 84.458 C 161.673 84.573,161.439 84.677,161.194 84.689 C 160.810 84.708,160.828 84.727,161.333 84.833 L 161.917 84.956 161.394 84.978 C 160.699 85.007,159.883 85.419,160.245 85.558 C 160.387 85.613,160.494 85.716,160.482 85.787 C 160.397 86.304,160.528 86.333,162.883 86.333 C 165.857 86.333,166.341 85.976,165.169 84.648 C 164.896 84.337,164.671 83.998,164.669 83.894 C 164.668 83.791,164.499 83.662,164.295 83.608 C 164.000 83.531,163.965 83.468,164.128 83.305 C 164.446 82.988,164.371 82.667,163.980 82.667 C 163.684 82.667,163.660 82.626,163.833 82.417 C 163.977 82.244,163.983 82.167,163.854 82.167 C 163.751 82.167,163.667 81.951,163.667 81.687 C 163.667 81.423,163.554 81.114,163.417 81.000 C 163.279 80.886,163.167 80.697,163.167 80.581 C 163.167 80.464,163.054 80.326,162.917 80.273 C 162.779 80.220,162.667 80.062,162.667 79.922 C 162.667 79.465,162.378 79.653,162.273 80.178 M157.375 85.633 C 156.903 85.704,156.895 85.932,157.354 86.178 C 157.707 86.366,158.500 86.122,158.500 85.825 C 158.500 85.671,157.856 85.561,157.375 85.633 " stroke="none" fill="#8258f9" fill-rule="evenodd"></path><path id="path4" d="M342.632 28.745 C 342.384 28.977,342.122 29.169,342.049 29.172 C 341.834 29.181,341.167 29.789,341.167 29.976 C 341.167 30.192,339.038 32.333,338.824 32.333 C 338.737 32.333,338.667 32.405,338.667 32.492 C 338.667 32.699,337.032 34.333,336.825 34.333 C 336.738 34.333,336.667 34.414,336.667 34.512 C 336.667 34.729,336.248 35.167,336.040 35.167 C 335.957 35.167,335.794 35.346,335.676 35.565 C 335.559 35.784,335.284 36.059,335.065 36.176 C 334.846 36.294,334.667 36.457,334.667 36.540 C 334.667 36.748,334.229 37.167,334.012 37.167 C 333.914 37.167,333.833 37.252,333.833 37.356 C 333.833 37.555,333.005 38.333,332.792 38.333 C 332.723 38.333,332.667 38.414,332.667 38.512 C 332.667 38.743,332.243 39.167,332.012 39.167 C 331.914 39.167,331.833 39.247,331.833 39.345 C 331.833 39.562,331.415 40.000,331.207 40.000 C 331.124 40.000,330.959 40.181,330.841 40.403 C 330.722 40.624,330.485 40.842,330.314 40.887 C 330.142 40.932,329.949 41.107,329.885 41.276 C 329.768 41.585,329.422 42.000,329.282 42.000 C 329.140 42.000,327.833 43.372,327.833 43.520 C 327.833 43.600,327.734 43.667,327.613 43.667 C 327.359 43.667,324.760 46.182,324.610 46.573 C 324.555 46.716,324.422 46.833,324.313 46.833 C 324.205 46.833,323.677 47.283,323.140 47.833 C 322.604 48.383,322.090 48.833,321.999 48.833 C 321.908 48.833,321.833 48.914,321.833 49.012 C 321.833 49.243,321.409 49.667,321.179 49.667 C 321.080 49.667,321.000 49.736,321.000 49.821 C 321.000 49.906,320.445 50.534,319.767 51.217 C 318.541 52.451,318.533 52.456,318.322 52.062 C 318.206 51.845,318.043 51.667,317.960 51.667 C 317.752 51.667,317.333 51.229,317.333 51.012 C 317.333 50.914,317.229 50.833,317.102 50.833 C 316.974 50.833,316.661 50.571,316.405 50.250 C 316.149 49.929,315.804 49.667,315.637 49.667 C 315.470 49.667,315.333 49.586,315.333 49.488 C 315.333 49.294,314.923 48.833,314.750 48.833 C 314.611 48.833,314.167 48.389,314.167 48.250 C 314.167 48.077,313.706 47.667,313.512 47.667 C 313.414 47.667,313.333 47.586,313.333 47.488 C 313.333 47.294,312.923 46.833,312.750 46.833 C 312.590 46.833,312.167 46.379,312.167 46.207 C 312.167 46.124,311.979 45.956,311.750 45.833 C 311.521 45.711,311.333 45.543,311.333 45.460 C 311.333 45.288,310.910 44.833,310.750 44.833 C 310.577 44.833,310.167 44.373,310.167 44.179 C 310.167 44.080,310.086 44.000,309.988 44.000 C 309.794 44.000,309.333 43.590,309.333 43.417 C 309.333 43.256,308.879 42.833,308.707 42.833 C 308.624 42.833,308.456 42.646,308.333 42.417 C 308.211 42.188,308.043 42.000,307.960 42.000 C 307.752 42.000,307.333 41.562,307.333 41.345 C 307.333 41.247,307.275 41.167,307.203 41.167 C 307.005 41.167,305.333 39.531,305.333 39.337 C 305.333 39.243,305.253 39.167,305.155 39.167 C 304.954 39.167,304.500 38.754,304.500 38.572 C 304.500 38.376,303.937 38.011,303.625 38.005 C 303.465 38.002,303.333 37.925,303.333 37.833 C 303.333 37.724,300.083 37.667,293.917 37.667 C 287.750 37.667,284.500 37.724,284.500 37.833 C 284.500 37.925,284.387 38.000,284.250 38.000 C 283.821 38.000,283.941 38.909,284.417 39.266 C 284.646 39.438,284.833 39.661,284.833 39.761 C 284.833 39.862,285.021 40.044,285.250 40.167 C 285.479 40.289,285.667 40.457,285.667 40.540 C 285.667 40.748,286.104 41.167,286.321 41.167 C 286.420 41.167,286.500 41.223,286.500 41.292 C 286.501 41.505,287.278 42.333,287.478 42.333 C 287.582 42.333,287.667 42.414,287.667 42.512 C 287.667 42.729,288.085 43.167,288.293 43.167 C 288.376 43.167,288.544 43.354,288.667 43.583 C 288.789 43.813,288.957 44.000,289.040 44.000 C 289.212 44.000,289.667 44.423,289.667 44.583 C 289.667 44.756,290.127 45.167,290.321 45.167 C 290.420 45.167,290.500 45.247,290.500 45.345 C 290.500 45.576,290.924 46.000,291.155 46.000 C 291.253 46.000,291.333 46.056,291.334 46.125 C 291.334 46.338,292.112 47.167,292.311 47.167 C 292.415 47.167,292.500 47.247,292.500 47.345 C 292.500 47.576,292.924 48.000,293.155 48.000 C 293.253 48.000,293.333 48.085,293.333 48.189 C 293.333 48.388,294.162 49.166,294.375 49.166 C 294.444 49.167,294.500 49.247,294.500 49.345 C 294.500 49.576,294.924 50.000,295.155 50.000 C 295.253 50.000,295.333 50.078,295.333 50.174 C 295.333 50.270,295.521 50.550,295.750 50.797 C 295.979 51.044,296.167 51.341,296.167 51.457 C 296.167 51.572,296.256 51.667,296.365 51.667 C 296.475 51.667,296.839 51.948,297.175 52.292 C 297.511 52.635,298.131 53.217,298.554 53.583 C 298.976 53.950,299.324 54.309,299.327 54.380 C 299.331 54.452,300.046 55.224,300.917 56.096 C 301.787 56.968,302.500 57.754,302.500 57.841 C 302.500 57.928,302.612 58.000,302.750 58.000 C 302.887 58.000,303.000 58.084,303.000 58.186 C 303.000 58.401,304.634 60.000,304.854 60.000 C 304.934 60.000,305.000 60.080,305.000 60.179 C 305.000 60.409,305.424 60.833,305.655 60.833 C 305.753 60.833,305.833 60.897,305.833 60.974 C 305.833 61.183,307.453 62.833,307.657 62.833 C 307.754 62.833,307.833 62.979,307.833 63.157 C 307.833 63.482,257.982 113.500,257.658 113.500 C 257.571 113.500,257.500 113.575,257.500 113.667 C 257.500 114.079,256.152 115.177,255.703 115.130 C 255.321 115.091,255.242 115.154,255.198 115.529 C 255.170 115.775,255.039 116.065,254.907 116.175 C 254.775 116.284,254.667 116.469,254.667 116.586 C 254.667 116.886,254.244 117.011,254.013 116.780 C 253.866 116.633,253.782 116.646,253.662 116.835 C 253.388 117.269,253.487 117.668,253.917 117.864 C 254.146 117.968,254.333 118.191,254.333 118.360 C 254.333 118.556,254.454 118.667,254.667 118.667 C 254.850 118.667,255.000 118.593,255.000 118.503 C 255.000 118.398,258.298 118.317,264.125 118.278 C 269.144 118.244,273.550 118.158,273.917 118.085 C 274.544 117.962,276.667 116.074,276.667 115.639 C 276.667 115.563,276.747 115.500,276.845 115.500 C 277.076 115.500,277.500 115.076,277.500 114.845 C 277.500 114.747,277.585 114.667,277.689 114.667 C 277.892 114.667,279.500 113.003,279.500 112.793 C 279.500 112.724,279.579 112.667,279.676 112.667 C 279.881 112.667,281.500 111.016,281.500 110.807 C 281.500 110.730,281.571 110.667,281.659 110.667 C 281.866 110.667,284.333 108.199,284.333 107.992 C 284.333 107.905,284.414 107.833,284.512 107.833 C 284.729 107.833,285.167 107.415,285.167 107.207 C 285.167 107.124,285.346 106.960,285.565 106.843 C 285.784 106.726,286.059 106.451,286.176 106.232 C 286.294 106.013,286.457 105.833,286.540 105.833 C 286.748 105.833,287.167 105.396,287.167 105.179 C 287.167 105.080,287.224 105.000,287.293 105.000 C 287.503 105.000,289.167 103.392,289.167 103.189 C 289.167 103.085,289.241 103.000,289.332 103.000 C 289.540 103.000,293.167 99.361,293.167 99.153 C 293.167 99.069,293.247 99.000,293.345 99.000 C 293.576 99.000,294.000 98.576,294.000 98.345 C 294.000 98.247,294.070 98.167,294.156 98.167 C 294.364 98.167,300.000 92.538,300.000 92.330 C 300.000 92.240,300.075 92.167,300.168 92.167 C 300.260 92.167,304.346 88.156,309.247 83.254 C 314.872 77.628,318.244 74.373,318.389 74.429 C 318.516 74.478,318.718 74.701,318.838 74.926 C 318.958 75.150,319.140 75.333,319.241 75.333 C 319.343 75.333,319.537 75.488,319.672 75.677 C 319.806 75.866,320.160 76.137,320.458 76.279 C 320.756 76.422,321.000 76.629,321.000 76.741 C 321.000 76.852,321.188 77.044,321.417 77.167 C 321.646 77.289,321.833 77.489,321.833 77.611 C 321.833 77.734,321.901 77.833,321.984 77.833 C 322.066 77.833,322.878 78.565,323.787 79.458 C 324.696 80.352,325.726 81.308,326.074 81.583 C 326.423 81.858,327.447 82.815,328.351 83.708 C 329.254 84.602,330.070 85.333,330.163 85.333 C 330.257 85.333,330.333 85.414,330.333 85.512 C 330.333 85.706,330.744 86.167,330.917 86.167 C 331.090 86.167,331.500 86.627,331.500 86.821 C 331.500 86.920,331.574 87.000,331.665 87.000 C 331.816 87.000,332.371 87.422,332.927 87.958 C 333.046 88.073,333.223 88.167,333.321 88.167 C 333.420 88.167,333.500 88.247,333.500 88.345 C 333.500 88.562,333.919 89.000,334.127 89.000 C 334.209 89.000,334.377 89.188,334.500 89.417 C 334.623 89.646,334.791 89.833,334.873 89.833 C 335.081 89.833,335.500 90.271,335.500 90.488 C 335.500 90.586,335.563 90.667,335.639 90.667 C 335.716 90.667,336.121 91.004,336.539 91.417 C 336.958 91.829,337.370 92.167,337.455 92.167 C 337.540 92.167,337.711 92.354,337.833 92.583 C 337.956 92.813,338.158 93.000,338.282 93.000 C 338.407 93.000,338.580 93.188,338.667 93.417 C 338.754 93.646,338.925 93.833,339.048 93.833 C 339.170 93.833,339.921 94.471,340.716 95.250 C 342.030 96.537,342.221 96.667,342.811 96.667 C 343.751 96.667,343.778 96.573,343.902 92.912 C 343.964 91.076,344.085 89.088,344.171 88.495 C 344.448 86.577,344.378 77.911,344.083 77.667 C 343.946 77.553,343.833 77.388,343.833 77.301 C 343.833 77.113,343.675 76.958,342.607 76.099 C 342.162 75.741,341.434 75.085,340.990 74.641 C 340.546 74.197,340.104 73.833,340.008 73.833 C 339.912 73.833,339.833 73.753,339.833 73.655 C 339.833 73.438,339.415 73.000,339.207 73.000 C 339.124 73.000,338.956 72.813,338.833 72.583 C 338.711 72.354,338.521 72.167,338.413 72.167 C 338.304 72.167,338.013 71.979,337.766 71.750 C 337.518 71.521,337.277 71.333,337.230 71.333 C 337.106 71.333,336.667 70.878,336.667 70.750 C 336.667 70.590,336.212 70.167,336.040 70.167 C 335.957 70.167,335.789 69.979,335.667 69.750 C 335.544 69.521,335.381 69.333,335.305 69.333 C 335.229 69.333,334.717 68.883,334.167 68.333 C 333.617 67.783,333.091 67.333,332.999 67.333 C 332.906 67.333,332.312 66.808,331.678 66.167 C 331.044 65.525,330.445 65.000,330.346 65.000 C 330.247 65.000,330.167 64.919,330.167 64.819 C 330.167 64.720,329.903 64.383,329.581 64.070 L 328.995 63.501 331.079 61.417 C 332.226 60.271,333.239 59.333,333.332 59.333 C 333.424 59.333,333.500 59.260,333.500 59.169 C 333.500 58.955,335.955 56.500,336.169 56.500 C 336.260 56.500,336.333 56.422,336.333 56.326 C 336.333 56.100,337.100 55.333,337.326 55.333 C 337.422 55.333,337.500 55.253,337.500 55.155 C 337.500 54.947,337.913 54.503,338.113 54.494 C 338.360 54.484,338.926 53.928,339.252 53.375 C 339.428 53.077,339.659 52.833,339.766 52.833 C 339.873 52.833,340.656 52.156,341.506 51.327 C 342.356 50.499,343.134 49.767,343.234 49.702 C 343.814 49.325,343.833 48.980,343.833 39.044 L 343.832 29.250 343.458 28.787 L 343.083 28.324 342.632 28.745 M343.007 30.042 C 343.093 30.578,343.171 47.675,343.090 48.116 C 342.964 48.794,342.990 48.767,334.901 56.583 C 327.798 63.447,328.455 62.740,328.455 63.526 C 328.455 64.065,328.546 64.300,328.852 64.543 C 329.373 64.958,330.473 65.952,331.917 67.315 C 332.559 67.921,333.909 69.167,334.917 70.083 C 335.925 71.000,337.338 72.331,338.056 73.042 C 338.774 73.752,339.417 74.333,339.483 74.333 C 339.804 74.333,343.484 78.129,343.642 78.623 C 343.764 79.005,343.746 80.431,343.580 83.498 C 343.451 85.883,343.295 89.427,343.232 91.375 C 343.060 96.771,343.514 96.721,338.363 91.917 C 337.380 91.000,335.868 89.612,335.003 88.833 C 334.138 88.054,332.902 86.916,332.257 86.305 C 331.611 85.693,330.792 84.943,330.437 84.638 C 330.081 84.333,329.069 83.374,328.187 82.506 C 327.305 81.639,325.721 80.145,324.667 79.187 C 323.612 78.229,321.873 76.600,320.801 75.567 C 318.673 73.516,318.297 73.244,317.904 73.464 C 317.619 73.623,274.721 116.475,274.225 117.095 C 273.890 117.514,270.036 117.800,266.417 117.673 C 265.145 117.629,261.111 117.620,259.417 117.658 C 257.686 117.696,255.826 117.559,255.646 117.379 C 255.413 117.147,252.944 119.654,286.500 86.054 C 303.195 69.336,308.833 63.594,308.833 63.308 C 308.833 63.054,308.412 62.502,307.584 61.671 C 303.682 57.756,293.833 47.787,293.833 47.753 C 293.833 47.615,288.027 41.833,287.888 41.833 C 287.794 41.833,287.650 41.687,287.567 41.508 C 287.484 41.329,286.910 40.663,286.292 40.027 C 285.027 38.727,284.980 38.611,285.625 38.367 C 286.421 38.066,302.472 38.197,303.044 38.510 C 303.481 38.749,309.577 44.634,315.328 50.369 C 317.688 52.722,318.026 53.000,318.527 53.000 C 319.134 53.000,319.526 52.630,332.040 40.250 C 340.688 31.694,342.936 29.602,343.007 30.042 M275.667 30.833 C 275.667 31.019,275.556 31.167,275.417 31.167 C 275.279 31.167,275.167 31.225,275.167 31.297 C 275.167 31.478,273.540 33.167,273.365 33.167 C 273.287 33.167,273.123 33.354,273.000 33.583 C 272.877 33.813,272.709 34.000,272.627 34.000 C 272.432 34.000,272.000 34.432,272.000 34.627 C 272.000 34.709,271.813 34.877,271.583 35.000 C 271.354 35.123,271.167 35.291,271.167 35.373 C 271.167 35.546,270.744 36.000,270.583 36.000 C 270.423 36.000,270.000 36.454,270.000 36.627 C 270.000 36.709,269.813 36.877,269.583 37.000 C 269.354 37.123,269.167 37.291,269.167 37.373 C 269.167 37.568,268.735 38.000,268.540 38.000 C 268.457 38.000,268.289 38.188,268.167 38.417 C 268.044 38.646,267.876 38.833,267.793 38.833 C 267.599 38.833,267.167 39.265,267.167 39.460 C 267.167 39.543,266.987 39.706,266.768 39.824 C 266.549 39.941,266.274 40.216,266.157 40.435 C 266.040 40.654,265.876 40.833,265.793 40.833 C 265.599 40.833,265.167 41.265,265.167 41.460 C 265.167 41.543,264.979 41.711,264.750 41.833 C 264.521 41.956,264.333 42.124,264.333 42.207 C 264.333 42.379,263.910 42.833,263.750 42.833 C 263.577 42.833,263.167 43.294,263.167 43.488 C 263.167 43.586,263.086 43.667,262.988 43.667 C 262.794 43.667,262.333 44.077,262.333 44.250 C 262.333 44.389,261.889 44.833,261.750 44.833 C 261.577 44.833,261.167 45.294,261.167 45.488 C 261.167 45.586,261.086 45.667,260.988 45.667 C 260.757 45.667,260.333 46.091,260.333 46.321 C 260.333 46.420,260.255 46.500,260.159 46.500 C 260.063 46.500,259.804 46.669,259.584 46.875 C 259.363 47.081,259.085 47.340,258.966 47.450 C 258.579 47.809,258.333 48.149,258.333 48.326 C 258.333 48.422,258.248 48.500,258.144 48.500 C 257.945 48.500,257.167 49.329,257.167 49.542 C 257.167 49.610,257.086 49.667,256.988 49.667 C 256.767 49.667,256.333 50.087,256.333 50.302 C 256.333 50.390,256.178 50.502,255.988 50.552 C 255.797 50.601,255.605 50.784,255.559 50.959 C 255.514 51.133,255.268 51.399,255.013 51.549 C 254.398 51.913,253.500 52.842,253.500 53.115 C 253.500 53.235,253.394 53.333,253.264 53.333 C 253.134 53.333,251.849 54.496,250.409 55.917 C 248.968 57.337,247.724 58.500,247.645 58.500 C 247.565 58.500,247.500 58.584,247.500 58.686 C 247.500 58.887,246.282 60.167,246.091 60.167 C 245.925 60.167,245.500 60.617,245.500 60.793 C 245.500 60.876,245.321 61.040,245.102 61.157 C 244.883 61.274,244.607 61.549,244.490 61.768 C 244.373 61.987,244.209 62.167,244.127 62.167 C 243.919 62.167,243.500 62.604,243.500 62.821 C 243.500 62.920,243.422 63.000,243.327 63.000 C 243.138 63.000,241.513 64.672,241.505 64.875 C 241.502 64.944,241.387 65.000,241.250 65.000 C 241.030 65.000,241.000 63.396,241.000 51.560 C 241.000 38.956,240.982 38.106,240.708 37.899 C 240.476 37.722,238.894 37.676,232.946 37.672 C 225.073 37.666,225.000 37.673,225.000 38.405 C 225.000 38.549,224.910 38.667,224.800 38.667 C 224.644 38.667,224.644 38.711,224.800 38.867 C 224.954 39.021,225.000 46.192,225.000 70.132 L 225.000 101.197 225.359 101.487 C 225.717 101.777,226.495 101.636,226.499 101.280 C 226.501 101.088,226.942 100.667,227.141 100.667 C 227.231 100.667,227.332 100.588,227.364 100.491 C 227.461 100.199,232.396 95.000,232.576 95.000 C 232.770 95.000,233.333 94.411,233.333 94.208 C 233.333 94.088,233.460 93.941,233.614 93.882 C 233.981 93.741,250.167 77.558,250.167 77.331 C 250.167 77.236,250.354 77.087,250.583 77.000 C 250.813 76.913,251.000 76.765,251.000 76.671 C 251.000 76.577,251.112 76.500,251.250 76.500 C 251.387 76.500,251.500 76.580,251.500 76.679 C 251.500 76.909,251.924 77.333,252.155 77.333 C 252.253 77.333,252.333 77.408,252.333 77.499 C 252.333 77.649,252.755 78.204,253.292 78.760 C 253.406 78.879,253.500 79.023,253.500 79.080 C 253.500 79.137,254.213 79.890,255.083 80.754 C 255.954 81.618,256.667 82.399,256.667 82.490 C 256.667 82.582,257.042 83.043,257.500 83.516 C 257.958 83.989,258.333 84.409,258.333 84.450 C 258.333 84.584,258.807 85.000,258.960 85.000 C 259.043 85.000,259.214 85.206,259.342 85.458 C 259.613 85.995,259.913 86.310,260.536 86.710 C 261.194 87.132,280.632 87.158,281.474 86.738 C 282.107 86.422,282.153 85.971,281.583 85.667 C 281.354 85.544,281.167 85.376,281.167 85.293 C 281.167 85.085,280.729 84.667,280.512 84.667 C 280.414 84.667,280.333 84.586,280.333 84.488 C 280.333 84.294,279.923 83.833,279.750 83.833 C 279.611 83.833,279.167 83.389,279.167 83.250 C 279.167 83.077,278.706 82.667,278.512 82.667 C 278.414 82.667,278.333 82.586,278.333 82.488 C 278.333 82.271,277.915 81.833,277.707 81.833 C 277.624 81.833,277.460 81.654,277.343 81.435 C 277.226 81.216,276.951 80.941,276.732 80.824 C 276.513 80.706,276.333 80.543,276.333 80.460 C 276.333 80.265,275.901 79.833,275.707 79.833 C 275.624 79.833,275.456 79.646,275.333 79.417 C 275.211 79.188,275.054 79.000,274.985 79.000 C 274.822 79.000,272.333 76.511,272.333 76.348 C 272.333 76.279,272.154 76.127,271.935 76.010 C 271.716 75.893,271.441 75.617,271.324 75.398 C 271.206 75.179,271.043 75.000,270.960 75.000 C 270.765 75.000,270.333 74.568,270.333 74.373 C 270.333 74.291,270.146 74.123,269.917 74.000 C 269.688 73.877,269.500 73.709,269.500 73.627 C 269.500 73.467,269.082 73.000,268.939 73.000 C 268.796 73.000,266.333 70.455,266.333 70.306 C 266.333 70.229,266.262 70.167,266.175 70.167 C 265.980 70.167,263.167 67.338,263.167 67.142 C 263.167 67.064,263.067 67.000,262.945 67.000 C 262.823 67.000,262.623 66.813,262.500 66.583 C 262.377 66.354,262.177 66.167,262.055 66.167 C 261.557 66.167,262.237 65.286,263.423 64.395 C 263.649 64.226,263.833 63.993,263.833 63.877 C 263.833 63.761,263.914 63.667,264.012 63.667 C 264.229 63.667,264.667 63.248,264.667 63.040 C 264.667 62.957,264.854 62.789,265.083 62.667 C 265.313 62.544,265.500 62.376,265.500 62.293 C 265.500 62.121,265.923 61.667,266.083 61.667 C 266.256 61.667,266.667 61.206,266.667 61.012 C 266.667 60.914,266.747 60.833,266.845 60.833 C 267.076 60.833,267.500 60.409,267.500 60.179 C 267.500 60.080,267.578 60.000,267.674 60.000 C 267.900 60.000,268.667 59.234,268.667 59.008 C 268.667 58.912,268.747 58.833,268.845 58.833 C 269.076 58.833,269.500 58.409,269.500 58.179 C 269.500 58.080,269.578 58.000,269.674 58.000 C 269.900 58.000,270.667 57.234,270.667 57.008 C 270.667 56.912,270.747 56.833,270.845 56.833 C 271.076 56.833,271.500 56.409,271.500 56.179 C 271.500 56.080,271.594 55.999,271.708 55.999 C 271.823 55.998,272.193 55.735,272.531 55.415 C 272.868 55.095,273.178 54.833,273.219 54.833 C 273.441 54.833,276.646 51.496,276.885 51.016 C 277.291 50.200,277.321 30.833,276.917 30.833 C 276.779 30.833,276.667 30.758,276.667 30.667 C 276.667 30.575,276.442 30.500,276.167 30.500 C 275.778 30.500,275.667 30.574,275.667 30.833 M138.042 31.389 C 137.835 31.494,137.667 31.675,137.667 31.792 C 137.667 32.034,137.350 32.628,137.042 32.964 C 136.927 33.088,136.833 33.298,136.833 33.429 C 136.833 33.560,136.758 33.667,136.667 33.667 C 136.575 33.667,136.500 33.768,136.500 33.891 C 136.500 34.178,136.028 35.130,135.823 35.257 C 135.737 35.310,135.667 35.499,135.667 35.677 C 135.667 35.854,135.592 36.000,135.500 36.000 C 135.408 36.000,135.333 36.188,135.333 36.417 C 135.333 36.676,135.239 36.833,135.083 36.833 C 134.928 36.833,134.833 36.991,134.833 37.250 C 134.833 37.479,134.758 37.667,134.667 37.667 C 134.575 37.667,134.500 37.802,134.500 37.967 C 134.500 38.132,134.434 38.338,134.354 38.425 C 134.073 38.730,133.333 40.181,133.333 40.428 C 133.333 40.565,133.221 40.720,133.083 40.773 C 132.946 40.826,132.833 40.964,132.833 41.081 C 132.833 41.198,132.571 41.729,132.250 42.262 C 131.929 42.794,131.667 43.329,131.667 43.449 C 131.667 43.569,131.592 43.667,131.500 43.667 C 131.408 43.667,131.333 43.846,131.333 44.066 C 131.333 44.285,131.221 44.508,131.083 44.560 C 130.946 44.613,130.833 44.768,130.833 44.906 C 130.833 45.153,130.094 46.604,129.813 46.908 C 129.732 46.995,129.667 47.202,129.667 47.367 C 129.667 47.532,129.592 47.667,129.500 47.667 C 129.408 47.667,129.333 47.846,129.333 48.066 C 129.333 48.285,129.221 48.508,129.083 48.560 C 128.946 48.613,128.833 48.809,128.833 48.995 C 128.833 49.181,128.758 49.333,128.667 49.333 C 128.575 49.333,128.500 49.479,128.500 49.657 C 128.500 49.835,128.430 50.024,128.344 50.077 C 128.139 50.203,127.667 51.156,127.667 51.442 C 127.667 51.566,127.593 51.667,127.503 51.667 C 127.413 51.667,127.293 51.854,127.235 52.083 C 127.178 52.313,127.064 52.500,126.982 52.500 C 126.900 52.500,126.833 52.688,126.833 52.917 C 126.833 53.146,126.758 53.333,126.667 53.333 C 126.575 53.333,126.500 53.486,126.500 53.672 C 126.500 53.858,126.388 54.054,126.250 54.106 C 126.112 54.159,126.000 54.340,126.000 54.508 C 126.000 54.676,125.925 54.860,125.833 54.917 C 125.742 54.973,125.667 55.165,125.667 55.343 C 125.667 55.521,125.593 55.667,125.503 55.667 C 125.413 55.667,125.293 55.854,125.235 56.083 C 125.178 56.313,125.064 56.500,124.982 56.500 C 124.900 56.500,124.833 56.688,124.833 56.917 C 124.833 57.146,124.758 57.333,124.667 57.333 C 124.575 57.333,124.500 57.521,124.500 57.750 C 124.500 58.009,124.406 58.167,124.250 58.167 C 124.111 58.167,124.000 58.315,124.000 58.500 C 124.000 58.683,123.925 58.833,123.833 58.833 C 123.742 58.833,123.667 58.974,123.667 59.146 C 123.667 59.318,123.554 59.553,123.417 59.667 C 123.279 59.781,123.167 60.015,123.167 60.187 C 123.167 60.359,123.092 60.500,123.000 60.500 C 122.908 60.500,122.833 60.612,122.833 60.750 C 122.833 60.887,122.758 61.000,122.667 61.000 C 122.575 61.000,122.500 61.120,122.500 61.266 C 122.500 61.560,121.989 62.551,121.792 62.639 C 121.723 62.669,121.667 62.834,121.667 63.004 C 121.667 63.174,121.596 63.357,121.511 63.410 C 121.306 63.537,120.833 64.489,120.833 64.776 C 120.833 64.899,120.760 65.000,120.670 65.000 C 120.580 65.000,120.459 65.188,120.402 65.417 C 120.344 65.646,120.230 65.833,120.149 65.833 C 120.067 65.833,120.000 66.021,120.000 66.250 C 120.000 66.479,119.925 66.667,119.833 66.667 C 119.742 66.667,119.667 66.807,119.667 66.980 C 119.667 67.152,119.554 67.386,119.417 67.500 C 119.279 67.614,119.167 67.811,119.167 67.937 C 119.167 68.063,119.092 68.167,119.000 68.167 C 118.908 68.167,118.833 68.346,118.833 68.566 C 118.833 68.785,118.721 69.008,118.583 69.060 C 118.446 69.113,118.333 69.309,118.333 69.495 C 118.333 69.681,118.258 69.833,118.167 69.833 C 118.075 69.833,118.000 69.979,118.000 70.157 C 118.000 70.335,117.925 70.527,117.833 70.583 C 117.742 70.640,117.667 70.824,117.667 70.992 C 117.667 71.160,117.554 71.341,117.417 71.394 C 117.279 71.446,117.167 71.642,117.167 71.828 C 117.167 72.014,117.092 72.167,117.000 72.167 C 116.908 72.167,116.833 72.346,116.833 72.566 C 116.833 72.785,116.721 73.008,116.583 73.060 C 116.446 73.113,116.333 73.309,116.333 73.495 C 116.333 73.681,116.277 73.834,116.208 73.835 C 116.064 73.836,115.667 74.639,115.667 74.929 C 115.667 75.037,115.554 75.219,115.417 75.333 C 115.279 75.447,115.167 75.682,115.167 75.854 C 115.167 76.026,115.100 76.167,115.019 76.167 C 114.938 76.167,114.828 76.298,114.774 76.458 C 114.720 76.619,114.608 76.862,114.524 77.000 C 114.440 77.137,114.270 77.475,114.145 77.750 C 114.020 78.025,113.874 78.287,113.821 78.333 C 113.620 78.506,113.167 79.564,113.167 79.859 C 113.167 80.028,113.092 80.167,113.000 80.167 C 112.908 80.167,112.833 80.279,112.833 80.417 C 112.833 80.554,112.773 80.667,112.699 80.667 C 112.551 80.667,112.000 81.828,112.000 82.139 C 112.000 82.246,111.944 82.334,111.875 82.334 C 111.707 82.336,111.167 83.299,111.167 83.597 C 111.167 83.727,111.092 83.833,111.000 83.833 C 110.908 83.833,110.833 84.021,110.833 84.250 C 110.833 84.479,110.760 84.667,110.670 84.667 C 110.580 84.667,110.459 84.854,110.402 85.083 C 110.344 85.313,110.230 85.500,110.149 85.500 C 110.067 85.500,110.000 85.625,110.000 85.779 C 110.000 85.932,109.875 86.196,109.722 86.365 C 109.460 86.653,109.465 86.693,109.798 87.003 C 110.142 87.323,110.403 87.333,118.368 87.328 C 126.785 87.323,127.167 87.295,127.167 86.690 C 127.167 86.585,127.236 86.500,127.321 86.500 C 127.499 86.500,128.000 85.559,128.000 85.224 C 128.000 85.101,128.074 85.000,128.163 85.000 C 128.253 85.000,128.374 84.813,128.432 84.583 C 128.489 84.354,128.603 84.167,128.685 84.167 C 128.766 84.167,128.833 83.979,128.833 83.750 C 128.833 83.521,128.908 83.333,129.000 83.333 C 129.092 83.333,129.167 83.146,129.167 82.917 C 129.167 82.657,129.261 82.500,129.417 82.500 C 129.556 82.500,129.667 82.352,129.667 82.167 C 129.667 81.983,129.742 81.833,129.833 81.833 C 129.925 81.833,130.000 81.654,130.000 81.434 C 130.000 81.215,130.112 80.992,130.250 80.940 C 130.387 80.887,130.500 80.691,130.500 80.505 C 130.500 80.319,130.575 80.167,130.667 80.167 C 130.758 80.167,130.833 79.979,130.833 79.750 C 130.833 79.521,130.900 79.333,130.982 79.333 C 131.064 79.333,131.178 79.146,131.235 78.917 C 131.293 78.687,131.413 78.500,131.503 78.500 C 131.593 78.500,131.667 78.354,131.667 78.177 C 131.667 77.999,131.742 77.807,131.833 77.750 C 131.925 77.693,132.000 77.509,132.000 77.341 C 132.000 77.173,132.112 76.992,132.250 76.940 C 132.387 76.887,132.500 76.691,132.500 76.505 C 132.500 76.319,132.575 76.167,132.667 76.167 C 132.758 76.167,132.833 75.987,132.833 75.768 C 132.833 75.548,132.946 75.326,133.083 75.273 C 133.221 75.220,133.333 75.025,133.333 74.839 C 133.333 74.652,133.408 74.500,133.500 74.500 C 133.592 74.500,133.667 74.364,133.667 74.198 C 133.667 74.032,133.802 73.751,133.967 73.573 C 134.328 73.185,134.833 72.204,134.833 71.891 C 134.833 71.768,134.894 71.667,134.968 71.667 C 135.115 71.667,135.667 70.505,135.667 70.194 C 135.667 70.087,135.742 70.000,135.833 70.000 C 135.925 70.000,136.000 69.850,136.000 69.667 C 136.000 69.483,136.061 69.333,136.135 69.333 C 136.282 69.333,136.833 68.172,136.833 67.861 C 136.833 67.754,136.898 67.667,136.977 67.667 C 137.057 67.667,137.256 67.310,137.420 66.875 C 137.585 66.440,137.765 66.046,137.821 66.000 C 137.876 65.954,138.071 65.599,138.253 65.210 C 138.621 64.423,138.761 64.343,138.917 64.833 C 138.975 65.017,139.092 65.167,139.178 65.167 C 139.263 65.167,139.333 65.381,139.333 65.642 C 139.333 65.919,139.508 66.306,139.750 66.568 C 139.979 66.815,140.165 67.107,140.164 67.217 C 140.161 67.470,141.041 69.231,141.208 69.306 C 141.277 69.336,141.333 69.505,141.333 69.681 C 141.333 69.856,141.400 70.000,141.482 70.000 C 141.564 70.000,141.678 70.188,141.735 70.417 C 141.793 70.646,141.913 70.833,142.003 70.833 C 142.093 70.833,142.167 70.979,142.167 71.157 C 142.167 71.335,142.242 71.527,142.333 71.583 C 142.425 71.640,142.500 71.834,142.500 72.015 C 142.500 72.196,142.612 72.387,142.750 72.440 C 142.887 72.492,143.000 72.673,143.000 72.841 C 143.000 73.009,143.075 73.193,143.167 73.250 C 143.963 73.742,143.313 73.833,138.997 73.833 L 134.661 73.833 134.384 74.414 C 134.160 74.885,134.145 75.066,134.307 75.372 C 134.451 75.646,134.459 75.910,134.335 76.333 C 134.083 77.189,134.125 86.604,134.382 87.015 C 134.651 87.446,167.333 87.524,167.333 87.093 C 167.333 86.961,167.258 86.807,167.167 86.750 C 167.075 86.693,167.000 86.431,167.000 86.167 C 167.000 85.902,166.925 85.640,166.833 85.583 C 166.742 85.527,166.667 85.344,166.667 85.177 C 166.667 85.011,166.554 84.781,166.417 84.667 C 166.279 84.553,166.167 84.278,166.167 84.056 C 166.167 83.834,166.029 83.505,165.861 83.324 C 165.693 83.144,165.303 82.491,164.995 81.873 C 164.687 81.255,164.374 80.725,164.301 80.694 C 164.227 80.664,164.167 80.544,164.167 80.428 C 164.167 80.208,163.680 79.144,163.513 79.000 C 163.291 78.808,163.000 78.147,163.000 77.836 C 163.000 77.651,162.925 77.500,162.833 77.500 C 162.742 77.500,162.667 77.348,162.667 77.161 C 162.667 76.975,162.554 76.780,162.417 76.727 C 162.279 76.674,162.161 76.508,162.154 76.357 C 162.148 76.207,161.999 75.858,161.823 75.583 C 161.647 75.308,161.460 74.971,161.406 74.833 C 161.353 74.696,161.239 74.453,161.155 74.294 C 161.070 74.135,161.000 73.891,161.000 73.752 C 161.000 73.614,160.925 73.500,160.833 73.500 C 160.742 73.500,160.667 73.393,160.667 73.262 C 160.667 73.131,160.568 72.925,160.446 72.803 C 160.325 72.682,160.090 72.227,159.924 71.792 C 159.757 71.356,159.557 71.000,159.477 71.000 C 159.398 71.000,159.333 70.813,159.333 70.583 C 159.333 70.354,159.276 70.167,159.206 70.167 C 159.136 70.167,159.005 70.024,158.915 69.849 C 158.512 69.074,158.177 68.365,157.900 67.708 C 157.737 67.319,157.542 67.000,157.468 67.000 C 157.394 67.000,157.333 66.861,157.333 66.691 C 157.333 66.521,157.146 66.180,156.917 65.932 C 156.688 65.685,156.500 65.351,156.500 65.191 C 156.500 64.898,155.702 63.156,155.496 63.000 C 155.435 62.954,155.252 62.560,155.087 62.125 C 154.923 61.690,154.723 61.333,154.644 61.333 C 154.565 61.333,154.500 61.230,154.500 61.104 C 154.500 60.834,153.708 59.379,153.487 59.242 C 153.402 59.190,153.333 58.926,153.333 58.657 C 153.333 58.387,153.274 58.167,153.202 58.167 C 153.130 58.167,152.850 57.735,152.581 57.208 C 152.312 56.681,151.921 55.970,151.713 55.628 C 151.504 55.286,151.328 54.874,151.321 54.712 C 151.314 54.549,151.164 54.192,150.986 53.917 C 150.808 53.642,150.617 53.285,150.562 53.125 C 150.506 52.965,150.395 52.833,150.314 52.833 C 150.233 52.833,150.167 52.689,150.167 52.512 C 150.167 52.335,150.054 52.078,149.917 51.940 C 149.779 51.803,149.667 51.610,149.667 51.512 C 149.667 51.414,149.592 51.333,149.500 51.333 C 149.408 51.333,149.333 51.189,149.333 51.014 C 149.333 50.652,148.816 49.669,148.625 49.668 C 148.556 49.667,148.500 49.513,148.500 49.325 C 148.500 48.897,148.046 48.000,147.829 48.000 C 147.740 48.000,147.667 47.854,147.667 47.677 C 147.667 47.499,147.592 47.307,147.500 47.250 C 147.408 47.193,147.333 47.001,147.333 46.823 C 147.333 46.646,147.266 46.500,147.185 46.500 C 147.103 46.500,146.989 46.313,146.932 46.083 C 146.874 45.854,146.753 45.667,146.663 45.667 C 146.574 45.667,146.500 45.479,146.500 45.250 C 146.500 45.021,146.425 44.833,146.333 44.833 C 146.242 44.833,146.167 44.681,146.167 44.495 C 146.167 44.309,146.054 44.113,145.917 44.060 C 145.779 44.008,145.667 43.827,145.667 43.659 C 145.667 43.491,145.592 43.307,145.500 43.250 C 145.408 43.193,145.333 43.001,145.333 42.823 C 145.333 42.646,145.260 42.500,145.170 42.500 C 145.080 42.500,144.959 42.313,144.902 42.083 C 144.844 41.854,144.730 41.667,144.649 41.667 C 144.567 41.667,144.500 41.523,144.500 41.347 C 144.500 40.986,143.983 40.003,143.792 40.001 C 143.723 40.000,143.667 39.854,143.667 39.677 C 143.667 39.499,143.592 39.307,143.500 39.250 C 143.408 39.193,143.333 39.009,143.333 38.841 C 143.333 38.673,143.221 38.492,143.083 38.440 C 142.946 38.387,142.833 38.191,142.833 38.005 C 142.833 37.819,142.758 37.667,142.667 37.667 C 142.575 37.667,142.500 37.579,142.500 37.473 C 142.500 37.162,141.949 36.000,141.801 36.000 C 141.727 36.000,141.667 35.886,141.667 35.748 C 141.667 35.515,141.503 35.130,141.136 34.500 C 141.056 34.362,140.946 34.119,140.892 33.958 C 140.839 33.798,140.728 33.667,140.647 33.667 C 140.566 33.667,140.500 33.479,140.500 33.250 C 140.500 33.021,140.425 32.833,140.333 32.833 C 140.242 32.833,140.167 32.726,140.167 32.595 C 140.167 32.464,140.062 32.253,139.935 32.125 C 139.807 31.998,139.675 31.748,139.642 31.572 C 139.569 31.191,138.643 31.085,138.042 31.389 M276.431 32.583 C 276.489 32.812,276.484 33.131,276.421 33.291 C 276.358 33.452,276.315 37.273,276.326 41.782 C 276.342 48.510,276.303 50.080,276.110 50.532 C 275.971 50.857,274.182 52.723,271.746 55.083 C 269.476 57.283,266.561 60.110,265.268 61.364 C 263.975 62.619,262.560 63.991,262.125 64.413 C 261.416 65.101,261.333 65.258,261.333 65.918 L 261.333 66.655 270.917 76.216 C 280.257 85.535,281.130 86.501,280.006 86.276 C 279.735 86.222,279.474 86.240,279.427 86.317 C 279.333 86.468,263.488 86.394,262.000 86.234 C 260.997 86.127,260.199 85.449,257.996 82.833 C 257.495 82.237,256.690 81.364,256.209 80.893 C 255.727 80.422,255.333 79.964,255.333 79.876 C 255.333 79.788,255.127 79.496,254.875 79.228 C 254.623 78.959,253.828 78.088,253.108 77.292 C 251.647 75.677,251.350 75.508,250.707 75.929 C 250.464 76.089,245.799 80.668,240.341 86.104 C 226.330 100.059,226.391 100.000,226.098 100.000 C 225.869 100.000,225.833 99.690,225.832 97.708 C 225.817 61.227,225.856 38.968,225.935 38.761 C 226.045 38.475,239.347 38.355,239.790 38.637 C 239.952 38.739,240.000 41.648,240.008 51.981 C 240.020 66.877,239.997 66.627,241.347 65.982 C 241.731 65.798,252.242 55.429,259.864 47.713 C 260.569 47.000,263.794 43.817,267.031 40.639 C 276.403 31.438,276.190 31.621,276.431 32.583 M139.250 33.167 C 139.415 33.533,139.604 33.833,139.668 33.833 C 139.733 33.833,140.106 34.565,140.498 35.458 C 140.890 36.352,141.339 37.271,141.497 37.500 C 141.654 37.729,142.025 38.404,142.320 39.000 C 142.616 39.596,142.926 40.196,143.009 40.333 C 143.093 40.471,143.459 41.221,143.824 42.000 C 144.189 42.779,144.598 43.604,144.733 43.833 C 144.868 44.063,145.084 44.475,145.212 44.750 C 145.341 45.025,145.865 46.075,146.376 47.083 C 146.887 48.092,147.420 49.179,147.560 49.500 C 147.701 49.821,147.926 50.271,148.061 50.500 C 148.286 50.881,148.883 52.067,149.949 54.250 C 150.173 54.708,150.495 55.346,150.666 55.667 C 150.836 55.987,151.281 56.887,151.654 57.667 C 152.027 58.446,152.409 59.196,152.502 59.333 C 152.595 59.471,152.933 60.146,153.252 60.833 C 153.572 61.521,153.959 62.308,154.112 62.583 C 154.265 62.858,155.450 65.183,156.744 67.750 C 158.038 70.317,159.183 72.567,159.289 72.750 C 159.394 72.933,160.186 74.511,161.048 76.255 C 161.910 77.999,162.852 79.851,163.141 80.371 C 163.430 80.890,163.667 81.398,163.667 81.498 C 163.667 81.599,164.117 82.506,164.667 83.513 C 165.694 85.395,165.813 85.787,165.467 86.133 C 165.070 86.530,135.386 86.410,135.173 86.011 C 134.913 85.526,134.939 75.128,135.200 74.867 C 135.345 74.722,136.562 74.667,139.628 74.667 C 144.671 74.667,145.322 74.423,144.174 72.964 C 143.995 72.737,143.426 71.695,142.909 70.650 C 139.282 63.314,139.336 63.400,138.523 63.684 C 137.818 63.930,137.865 63.848,134.372 70.750 C 134.233 71.025,133.670 72.112,133.121 73.167 C 132.243 74.855,130.646 77.977,127.561 84.037 C 127.061 85.021,126.537 85.939,126.397 86.079 C 126.136 86.340,112.253 86.484,111.597 86.232 C 111.188 86.075,111.278 85.605,111.985 84.207 C 112.344 83.497,112.800 82.579,112.999 82.167 C 113.197 81.754,113.426 81.304,113.506 81.167 C 113.587 81.029,114.188 79.867,114.842 78.583 C 115.497 77.300,116.147 76.025,116.289 75.750 C 116.430 75.475,116.657 75.025,116.794 74.750 C 116.931 74.475,117.208 73.950,117.410 73.583 C 117.612 73.217,117.879 72.654,118.003 72.333 C 118.128 72.012,118.395 71.525,118.596 71.250 C 118.798 70.975,119.128 70.375,119.329 69.917 C 119.530 69.458,119.928 68.633,120.213 68.083 C 120.498 67.533,121.058 66.408,121.457 65.583 C 121.856 64.758,122.251 63.971,122.335 63.833 C 122.419 63.696,123.230 62.121,124.138 60.333 C 128.611 51.530,133.527 41.964,134.544 40.083 C 134.692 39.808,134.954 39.283,135.126 38.917 C 135.591 37.921,136.665 35.785,136.844 35.500 C 136.930 35.362,137.075 35.078,137.166 34.867 C 138.301 32.234,138.688 31.919,139.250 33.167 M52.333 37.961 C 51.952 38.390,51.868 93.344,52.249 93.725 C 52.387 93.863,52.500 94.067,52.500 94.178 C 52.500 94.429,54.218 94.262,54.305 94.003 C 54.336 93.910,54.500 93.833,54.671 93.833 C 54.841 93.833,55.027 93.758,55.083 93.667 C 55.140 93.575,55.334 93.500,55.515 93.500 C 55.696 93.500,55.887 93.388,55.940 93.250 C 55.992 93.112,56.215 93.000,56.434 93.000 C 56.654 93.000,56.833 92.925,56.833 92.833 C 56.833 92.742,56.986 92.667,57.172 92.667 C 57.358 92.667,57.554 92.554,57.606 92.417 C 57.659 92.279,57.808 92.167,57.937 92.167 C 58.066 92.167,58.301 92.098,58.461 92.014 C 58.620 91.930,59.028 91.741,59.368 91.593 C 59.708 91.445,60.031 91.251,60.086 91.162 C 60.141 91.073,60.320 91.000,60.484 91.000 C 60.876 91.000,61.833 90.518,61.833 90.321 C 61.833 90.236,61.984 90.167,62.169 90.167 C 62.354 90.167,62.635 90.100,62.794 90.018 C 62.953 89.937,63.383 89.731,63.750 89.560 C 64.117 89.390,64.442 89.194,64.472 89.125 C 64.503 89.056,64.623 89.000,64.738 89.000 C 65.014 89.000,65.966 88.523,66.090 88.323 C 66.143 88.237,66.332 88.167,66.510 88.167 C 66.688 88.167,66.833 88.092,66.833 88.000 C 66.833 87.908,67.053 87.833,67.322 87.833 C 68.501 87.833,68.500 87.838,68.500 78.891 L 68.500 70.917 79.584 70.852 L 90.667 70.787 90.667 78.346 C 90.667 84.943,90.701 85.996,90.939 86.619 L 91.212 87.333 98.663 87.333 C 105.671 87.333,106.131 87.315,106.391 87.029 C 106.783 86.595,106.820 38.296,106.429 37.905 C 106.032 37.509,91.468 37.555,91.002 37.954 C 90.675 38.234,90.667 38.432,90.667 46.227 L 90.667 54.214 79.584 54.149 L 68.500 54.083 68.500 46.102 C 68.500 38.696,68.479 38.104,68.208 37.899 C 67.713 37.522,52.671 37.581,52.333 37.961 M178.250 37.833 C 178.193 37.925,177.893 38.000,177.583 38.000 C 177.273 38.000,176.973 38.075,176.917 38.167 C 176.860 38.258,176.602 38.333,176.344 38.333 C 176.086 38.333,175.781 38.446,175.667 38.583 C 175.553 38.721,175.281 38.833,175.063 38.833 C 174.845 38.833,174.667 38.908,174.667 39.000 C 174.667 39.092,174.514 39.167,174.328 39.167 C 174.142 39.167,173.946 39.279,173.894 39.417 C 173.841 39.554,173.656 39.667,173.482 39.667 C 173.309 39.667,173.167 39.742,173.167 39.833 C 173.167 39.925,173.054 40.000,172.917 40.000 C 172.779 40.000,172.667 40.075,172.667 40.167 C 172.667 40.258,172.527 40.333,172.357 40.333 C 172.186 40.333,171.906 40.521,171.734 40.750 C 171.562 40.979,171.329 41.167,171.217 41.167 C 170.947 41.167,169.000 43.167,169.000 43.445 C 169.000 43.490,168.756 43.771,168.458 44.068 C 167.840 44.685,167.500 45.219,167.500 45.573 C 167.500 45.707,167.406 45.877,167.292 45.950 C 166.969 46.156,166.667 46.785,166.667 47.248 C 166.667 47.509,166.573 47.667,166.417 47.667 C 166.261 47.667,166.167 47.824,166.167 48.083 C 166.167 48.313,166.100 48.500,166.018 48.500 C 165.586 48.500,165.257 74.084,165.678 74.996 C 165.785 75.227,165.938 75.547,166.019 75.706 C 166.100 75.865,166.167 76.109,166.167 76.248 C 166.167 76.386,166.279 76.500,166.417 76.500 C 166.572 76.500,166.667 76.657,166.667 76.917 C 166.667 77.146,166.742 77.333,166.833 77.333 C 166.925 77.333,167.000 77.486,167.000 77.672 C 167.000 77.858,167.112 78.054,167.250 78.106 C 167.387 78.159,167.500 78.344,167.500 78.518 C 167.500 78.691,167.575 78.833,167.667 78.833 C 167.758 78.833,167.833 78.946,167.833 79.083 C 167.833 79.221,167.903 79.333,167.989 79.333 C 168.074 79.333,168.197 79.502,168.263 79.708 C 168.328 79.915,168.520 80.205,168.691 80.353 C 168.861 80.501,169.000 80.707,169.000 80.811 C 169.000 80.915,169.080 81.000,169.179 81.000 C 169.404 81.000,169.833 81.422,169.833 81.643 C 169.833 81.874,171.185 83.250,171.542 83.382 C 171.702 83.441,171.833 83.567,171.833 83.661 C 171.833 83.756,171.913 83.833,172.011 83.833 C 172.109 83.833,172.437 84.096,172.739 84.417 C 173.042 84.737,173.412 85.000,173.561 85.000 C 173.711 85.000,173.833 85.075,173.833 85.167 C 173.833 85.258,173.946 85.333,174.083 85.333 C 174.221 85.333,174.333 85.446,174.333 85.583 C 174.333 85.739,174.491 85.833,174.750 85.833 C 174.979 85.833,175.167 85.908,175.167 86.000 C 175.167 86.092,175.271 86.167,175.397 86.167 C 175.524 86.167,175.751 86.354,175.901 86.583 C 176.125 86.925,176.309 87.000,176.921 87.000 C 177.331 87.000,177.667 87.063,177.667 87.141 C 177.667 87.494,198.034 87.272,198.232 86.917 C 198.333 86.733,198.456 86.546,198.504 86.500 C 198.748 86.267,199.167 85.480,199.167 85.256 C 199.167 85.115,199.234 85.000,199.315 85.000 C 199.397 85.000,199.511 84.813,199.568 84.583 C 199.626 84.354,199.747 84.167,199.837 84.167 C 199.926 84.167,200.000 83.979,200.000 83.750 C 200.000 83.521,200.075 83.333,200.167 83.333 C 200.258 83.333,200.333 83.183,200.333 83.000 C 200.333 82.817,200.406 82.667,200.496 82.667 C 200.585 82.667,200.810 82.334,200.995 81.927 C 201.181 81.520,201.394 81.149,201.470 81.102 C 201.546 81.055,201.708 80.713,201.831 80.342 C 201.953 79.970,202.116 79.667,202.193 79.667 C 202.270 79.667,202.333 79.479,202.333 79.250 C 202.333 79.021,202.390 78.833,202.458 78.832 C 202.626 78.831,203.167 77.867,203.167 77.570 C 203.167 77.440,203.240 77.333,203.330 77.333 C 203.420 77.333,203.541 77.146,203.598 76.917 C 203.656 76.688,203.770 76.500,203.851 76.500 C 203.933 76.500,204.002 76.369,204.005 76.208 C 204.008 76.048,204.118 75.774,204.250 75.600 C 204.382 75.427,204.455 75.228,204.412 75.160 C 204.370 75.091,204.447 74.992,204.584 74.939 C 204.721 74.887,204.833 74.691,204.833 74.505 C 204.833 74.319,204.908 74.167,205.000 74.167 C 205.092 74.167,205.167 74.054,205.167 73.917 C 205.167 73.779,205.225 73.667,205.295 73.667 C 205.520 73.667,205.970 72.610,206.052 71.890 C 206.160 70.945,206.993 71.005,193.696 71.002 C 183.763 71.000,181.940 70.964,181.738 70.762 C 181.347 70.371,181.387 53.923,181.780 53.530 C 182.030 53.279,182.871 53.239,189.905 53.144 C 194.220 53.086,197.862 53.033,198.000 53.027 C 198.137 53.021,201.954 53.057,206.482 53.106 C 211.009 53.155,214.759 53.132,214.815 53.056 C 214.871 52.979,215.067 52.834,215.250 52.733 C 215.433 52.632,215.608 52.369,215.639 52.150 C 215.670 51.930,215.764 51.679,215.847 51.592 C 215.931 51.505,216.000 51.332,216.000 51.209 C 216.000 51.085,216.188 50.810,216.417 50.598 C 216.690 50.344,216.833 50.033,216.833 49.689 C 216.833 49.402,216.907 49.167,216.997 49.167 C 217.087 49.167,217.207 48.979,217.265 48.750 C 217.322 48.521,217.436 48.333,217.518 48.333 C 217.600 48.333,217.667 48.219,217.667 48.080 C 217.667 47.941,217.854 47.530,218.083 47.167 C 218.313 46.804,218.500 46.393,218.500 46.253 C 218.500 46.114,218.575 46.000,218.667 46.000 C 218.758 46.000,218.833 45.821,218.833 45.601 C 218.833 45.382,218.946 45.159,219.083 45.106 C 219.221 45.054,219.333 44.858,219.333 44.672 C 219.333 44.486,219.390 44.333,219.459 44.333 C 219.529 44.333,219.674 44.127,219.782 43.875 C 219.890 43.623,220.113 43.098,220.278 42.708 C 220.443 42.319,220.636 42.000,220.706 42.000 C 220.776 42.000,220.833 41.854,220.833 41.675 C 220.833 41.497,221.021 41.148,221.250 40.901 C 221.479 40.654,221.667 40.312,221.667 40.142 C 221.667 39.972,221.742 39.833,221.833 39.833 C 221.925 39.833,222.000 39.730,222.000 39.604 C 222.000 39.477,222.112 39.281,222.250 39.167 C 222.589 38.885,222.566 38.170,222.208 37.899 C 221.840 37.619,178.422 37.554,178.250 37.833 M67.436 38.740 C 67.486 38.871,67.540 42.418,67.556 46.622 C 67.581 53.630,67.608 54.302,67.879 54.716 L 68.174 55.167 79.675 55.167 L 91.175 55.167 91.379 54.708 C 91.529 54.372,91.593 52.189,91.620 46.513 C 91.649 40.446,91.703 38.746,91.870 38.640 C 92.191 38.437,104.957 38.465,105.340 38.670 C 105.762 38.896,105.862 85.797,105.441 86.147 C 105.275 86.284,103.344 86.325,98.481 86.294 L 91.750 86.250 91.707 78.428 C 91.668 71.441,91.634 70.574,91.389 70.303 C 90.993 69.866,68.184 69.828,67.822 70.264 C 67.649 70.472,67.593 72.228,67.554 78.555 C 67.500 87.382,67.564 86.863,66.500 87.112 C 66.029 87.222,62.502 88.941,62.258 89.179 C 62.171 89.264,62.002 89.333,61.882 89.333 C 61.686 89.333,60.818 89.729,56.417 91.826 C 54.272 92.848,53.520 93.167,53.252 93.167 C 52.833 93.167,52.873 38.924,53.292 38.680 C 53.796 38.386,67.322 38.443,67.436 38.740 M221.091 38.711 C 221.282 39.209,214.601 52.054,214.076 52.199 C 213.805 52.274,206.445 52.330,197.721 52.323 C 180.479 52.311,181.164 52.275,180.630 53.210 C 180.254 53.868,180.327 70.461,180.708 71.043 C 181.296 71.940,180.919 71.911,193.149 72.000 C 205.746 72.092,205.188 72.039,204.628 73.100 C 204.325 73.673,203.581 75.059,202.890 76.333 C 201.892 78.176,200.240 81.301,199.175 83.363 C 198.574 84.525,197.915 85.669,197.709 85.905 L 197.336 86.333 187.400 86.333 L 177.465 86.333 176.177 85.609 C 175.468 85.210,174.454 84.554,173.923 84.151 C 173.392 83.747,172.756 83.267,172.509 83.083 C 170.604 81.671,168.063 78.042,166.596 74.641 C 166.204 73.734,166.201 52.141,166.592 50.201 C 167.222 47.077,169.866 43.143,172.520 41.381 C 172.905 41.126,173.414 40.788,173.652 40.631 C 174.396 40.138,175.530 39.621,177.083 39.066 L 178.583 38.531 199.796 38.514 C 216.863 38.501,221.026 38.539,221.091 38.711 " stroke="none" fill="#625b9e" fill-rule="evenodd"></path></g></svg>