<svg width="161" height="161" viewBox="0 0 161 161" fill="none" xmlns="http://www.w3.org/2000/svg">
<path d="M25.2006 46H30.4006V40.7H32.6006V36.4H30.4006V13.5H25.0005L15.6006 37.3V40.6H25.2006V46ZM20.4006 36.4L25.3005 23V36.4H20.4006Z" fill="#9FB4ED"/>
<path d="M70.6002 86.3L41.7002 69.6V123.6L70.6002 132.3V86.3ZM73.7002 86.4V132.3L102.8 123.5V69.6L73.7002 86.4ZM125.4 68.3C125.4 66.4 123.9 64.9 122 64.9C120.1 64.9 118.6 66.4 118.6 68.3V72H125.4V68.3ZM118.6 122.6L122 134.5L125.4 122.6V74.6H118.6V122.6Z" fill="#9FB4ED"/>
<path d="M109 72L105.9 69.5V125L73.8 135.4H70.6L38.6 126.5V69.5L35.5 72V128.6L70.4 138.3H74L106.1 128.1L109 127.2V72Z" fill="#9FB4ED"/>
<path d="M46 32.8H51.3V34.6H48.2V38.4H50.4V40.2H48.2V44.2H51.3V46H46V32.8ZM59.2 36.3V42.4C59.2 44.4 58.4 45.9 56 45.9H52.6V32.8H56C58.4 32.8 59.2 34.3 59.2 36.3ZM55.7 44.1C56.6 44.1 57 43.6 57 42.8V35.9C57 35.1 56.7 34.6 55.7 34.6H54.8V44.1H55.7ZM67.1 32.8V42.7C67.1 44.7 66.2 46.1 64 46.1C61.7 46.1 60.7 44.8 60.7 42.7V32.8H62.9V43C62.9 43.8 63.2 44.3 64 44.3C64.8 44.3 65.1 43.8 65.1 43V32.8H67.1ZM68.5 42.5V36.1C68.5 34 69.5 32.6 71.8 32.6C74.2 32.6 74.9 34 74.9 35.9V37.5H72.9V35.8C72.9 35 72.6 34.5 71.8 34.5C71 34.5 70.7 35.1 70.7 35.9V43C70.7 43.8 71 44.4 71.8 44.4C72.6 44.4 72.9 43.9 72.9 43.1V40.7H74.9V43C74.9 44.9 74.1 46.3 71.8 46.3C69.5 46.1 68.5 44.6 68.5 42.5ZM75.7 45.9L78.2 32.8H80.7L83.2 45.9H80.9L80.5 43.5H78.2L77.8 45.9H75.7ZM78.4 41.8H80.2L79.3 36.5L78.4 41.8ZM82.9 32.8H88.8V34.6H87V45.9H84.8V34.6H83V32.8H82.9ZM90 32.8H92.2V45.9H90V32.8ZM93.7 42.5V36.1C93.7 34 94.7 32.6 97 32.6C99.3 32.6 100.4 34.1 100.4 36.1V42.5C100.4 44.5 99.4 46 97 46C94.7 46.1 93.7 44.6 93.7 42.5ZM98.2 42.9V35.8C98.2 35 97.9 34.4 97.1 34.4C96.3 34.4 96 35 96 35.8V42.9C96 43.7 96.3 44.3 97.1 44.3C97.8 44.2 98.2 43.7 98.2 42.9ZM103.7 37.7V46H101.8V32.9H104L106.4 40.4V32.9H108.2V46H106.3L103.7 37.7Z" fill="#9FB4ED"/>
<path d="M48.5 27.5V26.6001C46.7 26.3001 46 25 46 23.2V16.8C46 14.7 47 13.3 49.3 13.3C51.6 13.3 52.7 14.8 52.7 16.8V23.2C52.7 24.6 52.2 25.8 51.1 26.3L52.7 26.6001V28.2L48.5 27.5ZM50.5 23.7V16.5C50.5 15.7 50.2 15.1001 49.4 15.1001C48.6 15.1001 48.3 15.7 48.3 16.5V23.7C48.3 24.5 48.6 25.1001 49.4 25.1001C50.1 25.1001 50.5 24.5 50.5 23.7ZM60.5 13.5V23.4C60.5 25.4 59.6 26.8 57.4 26.8C55.1 26.8 54.1 25.5 54.1 23.4V13.5H56.3V23.7C56.3 24.5 56.6 25 57.4 25C58.2 25 58.5 24.5 58.5 23.7V13.5H60.5ZM61.4 26.6001L63.9 13.5H66.4L68.9 26.6001H66.6L66.2 24.2H63.9L63.5 26.6001H61.4ZM64.1 22.5H65.9L65 17.2L64.1 22.5ZM69.9 13.5H72.1V24.8H74.7V26.6001H69.9V13.5ZM75.8 13.5H78V26.6001H75.8V13.5ZM79.1 13.5H85V15.3H83.2V26.6001H81V15.3H79.2L79.1 13.5ZM90.3 21.6001V26.6001H88.1V21.6001L85.6 13.5H87.9L89.2 18.5L90.5 13.5H92.6L90.3 21.6001Z" fill="#9FB4ED"/>
</svg>
