<svg width="161" height="161" viewBox="0 0 161 161" fill="none" xmlns="http://www.w3.org/2000/svg">
<path d="M16.5 17.9H24.9L17.6 45.9H23L30.2 18.5V13.5H16.5V17.9Z" fill="#9FB4ED"/>
<path d="M45.6006 26.6001L48.1006 13.5001H50.6006L53.1006 26.6001H50.8006L50.4006 24.2H48.1006L47.7006 26.6001H45.6006ZM48.4006 22.4001H50.2006L49.3006 17.1001L48.4006 22.4001ZM53.9006 13.5001H59.1006V15.3H56.1006V19.1001H58.3006V20.9001H56.1006V26.7H53.9006V13.5001ZM60.0006 13.5001H65.2006V15.3H62.2006V19.1001H64.4006V20.9001H62.2006V26.7H60.0006V13.5001ZM65.8006 23.2V16.8C65.8006 14.7 66.8006 13.3 69.1006 13.3C71.4006 13.3 72.5006 14.8 72.5006 16.8V23.2C72.5006 25.2 71.5006 26.7 69.1006 26.7C66.8006 26.8 65.8006 25.2 65.8006 23.2ZM70.3006 23.6001V16.5001C70.3006 15.7001 70.0006 15.1001 69.2006 15.1001C68.4006 15.1001 68.1006 15.7001 68.1006 16.5001V23.6001C68.1006 24.4001 68.4006 25.0001 69.2006 25.0001C70.0006 24.9001 70.3006 24.4001 70.3006 23.6001ZM75.9006 20.6001V26.6001H73.7006V13.5001H76.9006C79.1006 13.5001 79.9006 14.6001 79.9006 16.4001V18.1001C79.9006 19.5001 79.4006 20.3001 78.1006 20.6001L80.2006 26.6001H77.9006L75.9006 20.6001ZM75.9006 15.3V19.4001H76.6006C77.4006 19.4001 77.7006 19 77.7006 18.3V16.4001C77.7006 15.7001 77.4006 15.3 76.6006 15.3H75.9006ZM87.7006 17.0001V23.1001C87.7006 25.1001 86.9006 26.6001 84.5006 26.6001H81.1006V13.5001H84.5006C86.8006 13.5001 87.7006 15.0001 87.7006 17.0001ZM84.2006 24.8C85.1006 24.8 85.5006 24.3001 85.5006 23.5001V16.6001C85.5006 15.8001 85.2006 15.3 84.2006 15.3H83.3006V24.8H84.2006ZM88.2006 26.6001L90.7006 13.5001H93.2006L95.7006 26.6001H93.4006L93.0006 24.2H90.7006L90.3006 26.6001H88.2006ZM91.0006 22.4001H92.8006L91.9006 17.1001L91.0006 22.4001ZM96.5006 13.5001H99.7006C101.901 13.5001 102.601 14.5001 102.601 16.4001V17.7C102.601 18.8 102.201 19.5 101.301 19.8C102.401 20.1 102.901 20.8001 102.901 22.0001V23.7C102.901 25.6 102.101 26.6001 99.9006 26.6001H96.5006V13.5001ZM98.7006 19.0001H99.5006C100.201 19.0001 100.501 18.6001 100.501 17.9001V16.3C100.501 15.6 100.201 15.2 99.4006 15.2H98.6006V19.0001H98.7006ZM98.7006 20.7V24.8H99.7006C100.401 24.8 100.801 24.4 100.801 23.7V21.7C100.801 21 100.501 20.6001 99.7006 20.6001H98.7006V20.7ZM104.001 13.5001H106.201V24.8H108.801V26.6001H104.001V13.5001ZM109.801 13.5001H115.101V15.3H112.001V19.1001H114.201V20.9001H112.001V24.9001H115.101V26.7H109.801V13.5001ZM117.701 26.6001L120.201 13.5001H122.701L125.201 26.6001H122.901L122.501 24.2H120.201L119.801 26.6001H117.701ZM120.501 22.4001H122.301L121.401 17.1001L120.501 22.4001ZM127.901 18.3V26.6001H126.001V13.5001H128.201L130.601 21.0001V13.5001H132.401V26.6001H130.501L127.901 18.3ZM140.201 17.0001V23.1001C140.201 25.1001 139.401 26.6001 137.001 26.6001H133.601V13.5001H137.001C139.401 13.5001 140.201 15.0001 140.201 17.0001ZM136.801 24.8C137.701 24.8 138.101 24.3001 138.101 23.5001V16.6001C138.101 15.8001 137.801 15.3 136.801 15.3H135.901V24.8H136.801Z" fill="#9FB4ED"/>
<path d="M45.9004 42.5V36.2C45.9004 34.2 46.9004 32.7 49.2004 32.7C51.6004 32.7 52.3004 34.1 52.3004 36V37.5H50.3004V35.8C50.3004 35 50.0004 34.5 49.2004 34.5C48.4004 34.5 48.1004 35.1 48.1004 35.9V42.9C48.1004 43.7 48.4004 44.3 49.2004 44.3C50.0004 44.3 50.3004 43.8 50.3004 43V40.6H52.3004V42.9C52.3004 44.8 51.5004 46.2 49.2004 46.2C46.9004 46.1 45.9004 44.6 45.9004 42.5ZM53.7004 32.8H55.9004V44.1H58.5004V45.9H53.7004V32.8ZM59.7004 32.8H64.9004V34.6H61.9004V38.3H64.1004V40.1H61.9004V44.1H64.9004V45.9H59.7004V32.8ZM66.0004 45.9L68.5004 32.8H71.0004L73.5004 45.9H71.2004L70.8004 43.5H68.5004L68.1004 45.9H66.0004ZM68.8004 41.8H70.6004L69.7004 36.5L68.8004 41.8ZM76.4004 37.7V45.9H74.5004V32.8H76.7004L79.1004 40.3V32.8H80.9004V45.9H79.0004L76.4004 37.7ZM86.8004 32.8H92.0004V34.6H89.0004V38.3H91.2004V40.1H89.0004V44.1H92.0004V45.9H86.8004V32.8ZM95.2004 37.7V45.9H93.3004V32.8H95.5004L97.9004 40.3V32.8H99.7004V45.9H97.8004L95.2004 37.7ZM101.2 32.8H106.4V34.6H103.4V38.3H105.6V40.1H103.4V44.1H106.4V45.9H101.2V32.8ZM110 39.9V45.9H107.8V32.8H111C113.2 32.8 114 33.9 114 35.7V37.4C114 38.8 113.5 39.6 112.2 39.9L114.3 45.8H112L110 39.9ZM110 34.6V38.7H110.7C111.5 38.7 111.8 38.3 111.8 37.6V35.7C111.8 35 111.5 34.6 110.7 34.6H110ZM118.7 38.9H121.8V45.9H120.2V44.5C119.9 45.5 119.3 46.1 118.1 46.1C116.2 46.1 115.3 44.6 115.3 42.6V36.3C115.3 34.3 116.3 32.8 118.6 32.8C121 32.8 121.7 34.2 121.7 36.1V37.3H119.7V36C119.7 35.2 119.4 34.7 118.6 34.7C117.8 34.7 117.5 35.3 117.5 36.1V43.1C117.5 43.9 117.8 44.5 118.6 44.5C119.3 44.5 119.7 44.1 119.7 43.2V40.9H118.7V38.9ZM127.5 40.9V45.9H125.3V40.9L122.8 32.8H125.1L126.4 37.8L127.7 32.8H129.8L127.5 40.9Z" fill="#9FB4ED"/>
<path d="M80.6004 142.4C81.7004 142.4 82.5004 141.5 82.5004 140.6V130.3C82.5004 129.4 81.6004 128.5 80.6004 128.5C79.5004 128.5 78.7004 129.5 78.7004 130.3V140.6C78.7004 141.4 79.6004 142.4 80.6004 142.4ZM80.4004 78C67.4004 78 56.8004 88.6 56.8004 101.6C56.8004 114.6 67.4004 125.2 80.4004 125.2C93.4004 125.2 104 114.6 104 101.6C104 88.5 93.5004 78 80.4004 78ZM78.7004 87.3C78.7004 86.5 79.5004 85.7 80.5004 85.7C81.5004 85.7 82.2004 86.6 82.2004 87.3V95.4C82.2004 96.2 81.4004 97 80.5004 97C79.5004 97 78.7004 96.1 78.7004 95.4V87.3ZM80.4004 113.6C73.6004 113.6 68.1004 108.1 68.1004 101.3C68.1004 95.8 71.7004 91.1 76.7004 89.6V94.2C74.1004 95.5 72.3004 98.2 72.3004 101.3C72.3004 105.7 75.9004 109.3 80.3004 109.3C84.7004 109.3 88.3004 105.7 88.3004 101.3C88.3004 98.2 86.5004 95.5 83.9004 94.1V89.5C88.9004 91 92.5004 95.7 92.5004 101.2C92.7004 108.1 87.2004 113.6 80.4004 113.6ZM53.4004 101.3C53.4004 100.2 52.5004 99.4 51.6004 99.4H41.2004C40.3004 99.4 39.4004 100.3 39.4004 101.3C39.4004 102.4 40.4004 103.2 41.2004 103.2H51.5004C52.4004 103.3 53.4004 102.4 53.4004 101.3ZM121.5 101.3C121.5 100.2 120.6 99.4 119.7 99.4H109.4C108.5 99.4 107.6 100.3 107.6 101.3C107.6 102.4 108.6 103.2 109.4 103.2H119.7C120.5 103.3 121.5 102.4 121.5 101.3ZM80.4004 74.3C81.5004 74.3 82.3004 73.4 82.3004 72.5V62.2C82.3004 61.3 81.4004 60.4 80.4004 60.4C79.3004 60.4 78.5004 61.4 78.5004 62.2V72.4C78.5004 73.3 79.4004 74.3 80.4004 74.3ZM56.9004 87.9C57.4004 87 57.0004 85.7 56.3004 85.3L47.3004 80.2C46.5004 79.8 45.3004 80 44.8004 81C44.3004 81.9 44.7004 83.2 45.4004 83.6L54.4004 88.7C55.1004 89.1 56.4004 88.8 56.9004 87.9ZM116.1 121.7C116.6 120.8 116.2 119.5 115.5 119.1L106.5 114C105.7 113.6 104.5 113.8 104 114.8C103.5 115.7 103.9 117 104.6 117.4L113.6 122.5C114.3 122.9 115.5 122.7 116.1 121.7ZM93.9004 77.8C94.8004 78.3 96.0004 77.9 96.5004 77.2L101.6 68.2C102 67.4 101.8 66.2 100.8 65.7C99.9004 65.2 98.6004 65.6 98.2004 66.3L93.1004 75.3C92.7004 76.1 93.0004 77.3 93.9004 77.8ZM60.0004 137C60.9004 137.5 62.1004 137.1 62.6004 136.4L67.7004 127.4C68.1004 126.6 67.9004 125.4 66.9004 124.9C66.0004 124.4 64.7004 124.8 64.3004 125.5L59.2004 134.5C58.8004 135.2 59.1004 136.4 60.0004 137ZM66.9004 77.9C67.8004 77.4 68.1004 76.1 67.7004 75.4L62.6004 66.4C62.2004 65.6 60.9004 65.2 60.0004 65.8C59.1004 66.3 58.8004 67.6 59.2004 68.4L64.3004 77.4C64.8004 78 66.0004 78.4 66.9004 77.9ZM100.9 136.9C101.8 136.4 102.1 135.1 101.7 134.4L96.6004 125.4C96.2004 124.6 94.9004 124.2 94.0004 124.8C93.1004 125.3 92.8004 126.6 93.2004 127.4L98.3004 136.4C98.7004 137.1 100 137.5 100.9 136.9ZM103.9 87.8C104.4 88.7 105.7 89 106.4 88.6L115.4 83.5C116.2 83.1 116.6 81.8 116 80.9C115.5 80 114.2 79.7 113.4 80.1L104.4 85.2C103.8 85.7 103.4 86.9 103.9 87.8ZM44.9004 121.8C45.4004 122.7 46.7004 123 47.4004 122.6L56.4004 117.5C57.2004 117.1 57.6004 115.8 57.0004 114.9C56.5004 114 55.2004 113.7 54.4004 114.1L45.4004 119.2C44.7004 119.6 44.3004 120.9 44.9004 121.8Z" fill="#9FB4ED"/>
</svg>
