<svg width="161" height="161" viewBox="0 0 161 161" fill="none" xmlns="http://www.w3.org/2000/svg">
<path d="M15.6006 21.1V45.9H21.0005V13.5H16.7006L11.6006 19.3V25H11.7006L15.5005 21.1H15.6006ZM41.0005 37.6V21.9C41.0005 16.8 38.5006 13.1 32.9006 13.1C27.4006 13.1 24.9006 16.8 24.9006 21.9V37.6C24.9006 42.6 27.4006 46.4 32.9006 46.4C38.4006 46.3 41.0005 42.6 41.0005 37.6ZM30.3005 38.4V21C30.3005 19 31.0006 17.6 32.9006 17.6C34.8006 17.6 35.5005 19 35.5005 21V38.4C35.5005 40.4 34.8006 41.8 32.9006 41.8C31.0006 41.8 30.3005 40.4 30.3005 38.4Z" fill="#9FB4ED"/>
<path d="M53.6004 20.6001V26.6001H51.4004V13.4001H54.6004C56.8004 13.4001 57.6004 14.5 57.6004 16.3V18.0001C57.6004 19.4001 57.1004 20.2001 55.8004 20.5001L57.9004 26.5001H55.6004L53.6004 20.6001ZM53.6004 15.2V19.3H54.3004C55.1004 19.3 55.4004 18.9 55.4004 18.2V16.3C55.4004 15.6 55.1004 15.2 54.3004 15.2H53.6004ZM59.1004 13.4001H64.4004V15.2H61.3004V19.0001H63.5004V20.8H61.3004V24.8H64.4004V26.6001H59.1004V13.4001ZM71.9004 17.0001V23.1001C71.9004 25.1001 71.1004 26.6001 68.7004 26.6001H65.3004V13.4001H68.7004C71.1004 13.4001 71.9004 14.9001 71.9004 17.0001ZM68.4004 24.8C69.3004 24.8 69.7004 24.3001 69.7004 23.5001V16.6001C69.7004 15.8001 69.4004 15.3 68.4004 15.3H67.5004V24.8H68.4004ZM79.8004 13.4001V23.3C79.8004 25.3 78.9004 26.7 76.7004 26.7C74.4004 26.7 73.4004 25.4 73.4004 23.3V13.4001H75.6004V23.6001C75.6004 24.4001 75.9004 24.9001 76.7004 24.9001C77.5004 24.9001 77.8004 24.4001 77.8004 23.6001V13.4001H79.8004ZM81.2004 23.2V16.8C81.2004 14.7 82.2004 13.3 84.5004 13.3C86.9004 13.3 87.6004 14.7001 87.6004 16.6001V18.2H85.6004V16.4001C85.6004 15.6001 85.3004 15.1001 84.5004 15.1001C83.7004 15.1001 83.4004 15.7001 83.4004 16.5001V23.6001C83.4004 24.4001 83.7004 25.0001 84.5004 25.0001C85.3004 25.0001 85.6004 24.5 85.6004 23.7V21.3H87.6004V23.6001C87.6004 25.5001 86.8004 26.9001 84.5004 26.9001C82.2004 26.7001 81.2004 25.2 81.2004 23.2ZM89.0004 13.4001H94.3004V15.2H91.2004V19.0001H93.4004V20.8H91.2004V24.8H94.3004V26.6001H89.0004V13.4001ZM102.3 17.0001V23.1001C102.3 25.1001 101.5 26.6001 99.1004 26.6001H95.7004V13.4001H99.1004C101.5 13.4001 102.3 14.9001 102.3 17.0001ZM98.8004 24.8C99.7004 24.8 100.1 24.3001 100.1 23.5001V16.6001C100.1 15.8001 99.8004 15.3 98.8004 15.3H97.9004V24.8H98.8004Z" fill="#9FB4ED"/>
<path d="M51.4004 32.6H53.6004V45.7H51.4004V32.6ZM56.9004 37.4V45.7H55.0004V32.6H57.2004L59.6004 40.1V32.6H61.4004V45.7H59.5004L56.9004 37.4ZM62.7004 32.6H68.0004V34.4H64.9004V38.2H67.1004V40H64.9004V44H68.0004V45.8H62.7004V32.6ZM71.3004 46.6V45.7C69.5004 45.4 68.8004 44.1 68.8004 42.3V35.9C68.8004 33.8 69.8004 32.4 72.1004 32.4C74.4004 32.4 75.5004 33.9 75.5004 35.9V42.3C75.5004 43.7 75.0004 44.9 73.9004 45.4L75.5004 45.7V47.3L71.3004 46.6ZM73.3004 42.8V35.6C73.3004 34.8 73.0004 34.2 72.2004 34.2C71.4004 34.2 71.1004 34.8 71.1004 35.6V42.8C71.1004 43.6 71.4004 44.2 72.2004 44.2C72.9004 44.1 73.3004 43.6 73.3004 42.8ZM83.1004 32.6V42.5C83.1004 44.5 82.2004 45.9 80.0004 45.9C77.7004 45.9 76.7004 44.6 76.7004 42.5V32.6H78.9004V42.8C78.9004 43.6 79.2004 44.1 80.0004 44.1C80.8004 44.1 81.1004 43.6 81.1004 42.8V32.6H83.1004ZM83.8004 45.7L86.3004 32.6H88.8004L91.3004 45.7H89.0004L88.6004 43.3H86.3004L85.9004 45.7H83.8004ZM86.6004 41.5H88.4004L87.5004 36.2L86.6004 41.5ZM92.3004 32.6H94.5004V43.9H97.1004V45.7H92.3004V32.6ZM98.1004 32.6H100.3V45.7H98.1004V32.6ZM101.3 32.6H107.2V34.4H105.4V45.7H103.2V34.4H101.4V32.6H101.3ZM108.2 32.6H110.4V45.7H108.2V32.6ZM111.7 32.6H117V34.4H113.9V38.2H116.1V40H113.9V44H117V45.8H111.7V32.6ZM117.9 42.9V41.1H120V42.9C120 43.6 120.3 44.1 121.1 44.1C121.8 44.1 122.1 43.6 122.1 42.9V42.4C122.1 41.6 121.8 41.2 121.1 40.5L119.8 39.2C118.5 38 118 37.2 118 35.7V35.3C118 33.7 119 32.4 121.1 32.4C123.3 32.4 124.2 33.5 124.2 35.4V36.5H122.2V35.4C122.2 34.6 121.9 34.3 121.2 34.3C120.6 34.3 120.2 34.6 120.2 35.4V35.7C120.2 36.4 120.6 36.9 121.2 37.5L122.6 38.9C123.8 40.1 124.4 40.9 124.4 42.3V42.9C124.4 44.7 123.4 46 121.2 46C118.7 45.9 117.9 44.6 117.9 42.9Z" fill="#9FB4ED"/>
<path d="M53.1 87.9L38 103L53.1 118.2V87.9ZM107.9 118.2L123 103L107.9 87.9V118.2ZM95.7 75.7L80.5 60.6L65.4 75.7H95.7ZM65.4 130.4L80.5 145.5L95.7 130.4H65.4ZM64.1 88.9H97V98H64.1V88.9ZM64.1 107.7H97V117.2H64.1V107.7Z" fill="#9FB4ED"/>
</svg>
