<svg width="161" height="161" viewBox="0 0 161 161" fill="none" xmlns="http://www.w3.org/2000/svg">
<path d="M20.3004 13.5V46H14.8004V21.1L11.0004 25.1H10.9004V19.4L15.9004 13.5H20.3004ZM38.3004 20.6V23.4C38.3004 26.1 36.8004 27.9 34.6004 28.7C37.3004 29.3 38.6004 31.2 38.6004 34.2V39C38.6004 43.5 36.2004 46.4 30.7004 46.4C25.2004 46.4 23.2004 43.2 23.2004 38.3V34H28.2004V38.6C28.2004 40.5 28.9004 41.8 30.7004 41.8C32.4004 41.8 33.1004 40.6 33.1004 38.9V33.5C33.1004 31.8 32.3004 30.9 30.4004 30.9H28.1004V26.7H30.2004C32.0004 26.7 33.1004 25.8 33.1004 24.1V20.6C33.1004 18.8 32.5004 17.7 30.8004 17.7C29.1004 17.7 28.5004 18.8 28.5004 20.9V24.2H23.5004V21.3C23.5004 16.5 25.5004 13.2 31.1004 13.2C36.1004 13.2 38.3004 16 38.3004 20.6ZM139.5 100.8C135.3 94.9 116.1 71.1 80.4004 71.1C44.7004 71.1 25.6004 94.8 21.3004 100.8C21.1004 101.1 21.0004 101.3 20.8004 101.5C20.9004 101.7 21.1004 101.9 21.3004 102.2C25.5004 108.1 44.7004 131.9 80.4004 131.9C116 131.9 135.2 108.2 139.5 102.2C139.7 101.9 139.8 101.7 140 101.5C139.8 101.3 139.7 101 139.5 100.8ZM60.5004 86.1C60.8004 85.6 61.9004 84.3 62.0004 84.1C62.3004 83.7 62.8004 83.7 63.2004 83.6C63.6004 83.5 64.1004 83.7 64.1004 84C64.2004 84.3 64.0004 85.4 63.8004 85.6C63.3004 86.1 61.9004 86.9 61.2004 86.8C60.7004 86.7 60.4004 86.3 60.5004 86.1ZM59.3004 88.6C59.4004 88.5 59.4004 88.5 59.4004 88.4C59.8004 87.9 60.7004 87.7999 61.4004 87.7C62.0004 87.6 62.8004 87.9 62.9004 88.3C63.0004 88.7 61.4004 89.5 61.0004 89.7C60.1004 90.5 58.8004 92.1 58.0004 92.3C57.7004 92.4 57.5004 92.2999 57.4004 92.2C57.9004 91.1 58.6004 89.8 59.3004 88.6ZM72.6004 116C72.1004 117.9 71.6004 118.6 71.1004 119.2C70.6004 119.8 68.8004 120.6 67.7004 120.5C66.6004 120.4 66.4004 117.4 66.4004 115.9C66.4004 115.4 65.6004 117 65.2004 113.7C64.9004 111.6 63.6004 113.9 63.5004 112.5C63.4004 111.1 62.7004 111.4 62.0004 110.5C61.3004 109.6 60.4004 110.6 59.5004 111C58.5004 111.4 58.9004 111.7 57.6004 111.2H57.5004C56.2004 108.2 55.5004 105 55.5004 101.5C55.5004 100.7 55.5004 99.8 55.6004 99C55.6004 98.9 55.7004 98.8 55.8004 98.8C57.1004 97.2 57.1004 96.9 57.1004 96.9L58.6004 96.4C58.6004 96.4 60.9004 96.8 62.7004 97.4C64.1004 97.9 66.4004 99.2 67.7004 98.6C68.7004 98.2 69.4004 97.7 69.3004 96.9C69.2004 95.9 68.4004 95.7 67.5004 96.3C67.1004 96.5 66.4004 94.8 65.8004 94.9C65.2004 95 66.5004 97 66.0004 97C65.5004 97.1 64.5004 94.9 64.3004 94.6C64.1004 94.3 63.4004 93.4 62.7004 94.1C61.2004 95.5 58.9004 95.4 58.4004 95.8C56.9004 96.9 56.6004 95.4 56.6004 94.6C56.7004 94.4 56.7004 94.2 56.8004 94C57.3004 93.5 59.0004 93.2999 59.6004 93.7C60.2004 94.1 60.7004 93.6 61.0004 93.3C61.3004 93 61.2004 92.6 61.0004 92.3C60.8004 92 61.3004 91.7 61.7004 91.6C62.0004 91.5 63.1004 90.7 63.6004 90.5C64.0004 90.2 66.3004 90 67.4004 90.5C68.4004 91 69.4004 90.6 69.9004 90C70.5004 89.2 71.3004 88.7 71.7004 88.5C72.1004 88.3 70.8004 87.2 69.8004 88.4C68.8004 89.7 68.3004 89.8 67.8004 89.8C67.3004 89.8 64.5004 89.1 64.1004 88.2C63.8004 87.2999 65.0004 86.6 66.1004 86.1C67.2004 85.6 70.1004 85.6 70.8004 85.4C72.3004 85.1 74.2004 84.3 75.2004 85C76.2004 85.6 71.2004 86.7999 72.8004 87.7C73.4004 88 76.0004 86.2 76.9004 85.7C79.0004 84.6 74.8004 84.2 75.4004 82C76.0004 79.5 70.2004 80.3999 67.4004 80.7C71.3004 78.2 75.8004 76.8 80.8004 76.8C92.5004 76.8 102.3 84.9 104.9 95.8C104.9 96.3 104.8 96.7 104.8 96.9C104.6 97.8 102.9 98.6 101.9 97.1C101.6 96.7 100.6 95.7 100.6 97.5C100.6 99.2 102.3 99.4 100.7 100.4C99.1004 101.4 98.8004 101.2 98.1004 101.4C97.4004 101.7 96.7004 103.4 96.8004 104.4C97.0004 105.3 99.2004 107.9 97.6004 107.8C97.2004 107.8 94.2004 105.7 93.7004 104.4C93.2004 103 92.6004 101.7 92.2004 100.6C91.8004 99.6 90.7004 99.3 89.9004 99.9C89.0004 100.5 90.1004 101.1 89.5004 102.4C88.9004 103.7 88.4004 104.8 87.5004 103.8C85.1004 101 81.6004 102.4 81.0004 99.3C80.7004 97.6 79.3004 97.8 78.1004 96.8C76.9004 95.9 76.2004 95.3 76.0004 96C75.8004 96.6 79.8004 99.8 80.1004 100.6C80.5004 101.8 78.9004 102.9 77.7004 103.1C76.5004 103.4 76.0004 102.4 74.8004 101.2C73.6004 100 73.1004 99.1 73.1004 100.1C73.0004 101.5 74.2004 103.5 75.4004 104.2C76.4004 104.8 77.5004 105.1 77.2004 106.2C76.9004 107.2 77.2004 106.6 76.1004 107.8C75.0004 108.9 74.8004 109.3 74.8004 110.8C74.9004 112.4 74.5004 112.4 74.2004 113.7C73.7004 115.2 73.1004 114.1 72.6004 116ZM99.3004 106.1C100.1 106 101.4 107.2 100.9 107.6C100.4 108 99.2004 107.9 98.5004 107.4C97.9004 106.9 98.9004 106.1 99.3004 106.1ZM98.2004 105.3C97.9004 105.2 97.7004 104.9 97.5004 104.3C97.3004 103.7 97.8004 103.3 98.3004 103.6C98.8004 103.9 99.5004 104.6 99.5004 105C99.5004 105.5 98.5004 105.5 98.2004 105.3ZM87.2004 105.3C86.7004 105.7 85.5004 105.6 84.8004 105.1C84.2004 104.6 85.2004 103.8 85.6004 103.8C86.5004 103.7 87.7004 104.9 87.2004 105.3ZM77.1004 110.2C76.8004 110.8 75.8004 114.9 75.2004 114.4C74.6004 113.9 75.5004 109.6 75.6004 109.2C76.6004 107.5 78.7004 107.6 77.1004 110.2ZM80.5004 126.4C78.1004 126.4 75.7004 126 73.5004 125.4C73.2004 125.1 73.0004 124.7 73.2004 124.2C74.0004 122.2 76.3004 121.4 78.1004 121.2C82.1004 120.8 87.4004 123.8 88.3004 123.3C89.1004 122.8 90.8004 120.6 93.3004 120.7C95.0004 120.8 95.0004 121.1 95.6004 121.3C91.4004 124.5 86.1004 126.4 80.5004 126.4ZM98.0004 119.2C97.8004 119.1 97.5004 119 97.2004 118.9C95.8004 118.2 96.0004 119.3 95.3004 119.1C94.6004 118.9 96.1004 117.3 94.0004 118.6C92.0004 119.9 92.5004 118.4 91.7004 116.2C90.8004 114 92.7004 111.5 94.3004 110.9C96.5004 110.1 97.8004 110 98.8004 109.7C101.8 109 102.4 107.2 103 108.3L103.3 108.9C103.5 109.2 103.7 109.9 103.7 110.5C102.4 113.8 100.5 116.7 98.0004 119.2ZM104.8 106.7C104.1 106.5 101.3 102.7 103.6 100.1C104 99.7 102.9 98.5 103.2 98.4C104.4 98.3 105 99.1 105.4 100.1V101.5C105.3 103.3 105.1 105 104.8 106.7ZM51.3004 23.3V16.9C51.3004 14.8 52.3004 13.4 54.6004 13.4C57.0004 13.4 57.7004 14.8 57.7004 16.7V18.3H55.7004V16.6C55.7004 15.8 55.4004 15.3 54.6004 15.3C53.8004 15.3 53.5004 15.9 53.5004 16.7V23.8C53.5004 24.6 53.8004 25.2 54.6004 25.2C55.4004 25.2 55.7004 24.7 55.7004 23.9V21.5H57.7004V23.8C57.7004 25.7 56.9004 27.1 54.6004 27.1C52.3004 26.8 51.3004 25.3 51.3004 23.3ZM59.1004 13.5H61.3004V24.8H63.9004V26.6H59.1004V13.5ZM65.2004 13.5H67.4004V26.6H65.2004V13.5ZM75.1004 18.1L73.5004 26.6H72.5004L70.9004 18.1V26.6H69.1004V13.5H71.7004L73.1004 20.9L74.4004 13.5H77.2004V26.6H75.2004L75.1004 18.1ZM78.3004 26.7L80.8004 13.6H83.3004L85.8004 26.7H83.5004L83.1004 24.3H80.8004L80.4004 26.7H78.3004ZM81.0004 22.5H82.8004L81.9004 17.2L81.0004 22.5ZM85.5004 13.5H91.4004V15.3H89.6004V26.6H87.4004V15.3H85.6004L85.5004 13.5ZM92.6004 13.5H97.9004V15.3H94.8004V19.1H97.0004V20.9H94.8004V24.9H97.9004V26.7H92.6004V13.5ZM50.9004 45.7L53.4004 32.6H55.9004L58.4004 45.7H56.2004L55.8004 43.3H53.5004L53.1004 45.7H50.9004ZM53.7004 41.5H55.5004L54.6004 36.2L53.7004 41.5ZM59.1004 42.3V35.9C59.1004 33.8 60.1004 32.4 62.4004 32.4C64.8004 32.4 65.5004 33.8 65.5004 35.7V37.3H63.5004V35.6C63.5004 34.8 63.2004 34.3 62.4004 34.3C61.6004 34.3 61.3004 34.9 61.3004 35.7V42.8C61.3004 43.6 61.6004 44.2 62.4004 44.2C63.2004 44.2 63.5004 43.7 63.5004 42.9V40.5H65.5004V42.8C65.5004 44.7 64.7004 46.1 62.4004 46.1C60.0004 45.9 59.1004 44.3 59.1004 42.3ZM66.3004 32.6H72.2004V34.4H70.4004V45.7H68.2004V34.4H66.4004L66.3004 32.6ZM73.4004 32.6H75.6004V45.7H73.4004V32.6ZM77.1004 42.3V35.9C77.1004 33.8 78.1004 32.4 80.4004 32.4C82.7004 32.4 83.8004 33.9 83.8004 35.9V42.3C83.8004 44.3 82.8004 45.8 80.4004 45.8C78.1004 45.9 77.1004 44.3 77.1004 42.3ZM81.5004 42.7V35.6C81.5004 34.8 81.2004 34.2 80.4004 34.2C79.6004 34.2 79.3004 34.8 79.3004 35.6V42.7C79.3004 43.5 79.6004 44.1 80.4004 44.1C81.2004 44 81.5004 43.5 81.5004 42.7ZM87.1004 37.4V45.7H85.2004V32.6H87.4004L89.8004 40.1V32.6H91.6004V45.7H89.7004L87.1004 37.4Z" fill="#9FB4ED"/>
</svg>
