<svg width="161" height="161" viewBox="0 0 161 161" fill="none" xmlns="http://www.w3.org/2000/svg">
<path d="M29.5006 21.6C29.5006 16.6 27.3006 12.9 21.6006 12.9C15.8006 12.9 13.6006 16.1 13.6006 21.1V25.9C13.6006 31.2 15.7006 33.9 19.6006 33.9C21.9006 33.9 23.3006 32.8 24.1006 31.3V38.3C24.1006 40.3 23.3006 41.6 21.4006 41.6C19.4006 41.6 18.7006 40.5 18.7006 38.4V36.2H13.7006V37.9C13.7006 42.7 15.4006 46 21.5006 46C27.2006 46 29.5006 42.3 29.5006 37.2V21.6ZM24.1006 26.6C24.0006 28.4 23.2006 29.6 21.5006 29.6C19.6006 29.6 18.9006 28.5 18.9006 26.3V20.7C18.9006 18.6 19.7006 17.4 21.5006 17.4C23.3006 17.4 24.0006 18.6 24.0006 20.7V26.6H24.1006ZM120.701 105.8L101.601 94.8V72.7C101.601 72.2 101.401 71.8 100.901 71.6L81.1006 60.2C80.7006 60 80.2006 60 79.8006 60.2L60.0006 71.6C59.6006 71.8 59.3006 72.3 59.3006 72.7V94.8L40.2006 105.8C39.8006 106 39.5006 106.5 39.5006 106.9V129.7C39.5006 130.2 39.7006 130.6 40.2006 130.8L60.0006 142.2C60.2006 142.3 60.4006 142.4 60.7006 142.4C60.9006 142.4 61.2006 142.3 61.4006 142.2L80.5005 131.2L99.6006 142.2C99.8006 142.3 100.001 142.4 100.301 142.4C100.601 142.4 100.801 142.3 101.001 142.2L120.801 130.8C121.201 130.6 121.501 130.1 121.501 129.7V106.9C121.301 106.4 121.101 106 120.701 105.8ZM79.1006 127.5L63.2006 118.3L79.1006 109.1V127.5ZM97.6006 95.5L81.7006 104.7V86.4L97.6006 95.5ZM79.1006 104.6L63.2006 95.4L79.1006 86.2V104.6ZM83.1006 106.9L100.301 97L117.501 106.9L100.301 116.8L83.1006 106.9ZM98.9006 93.2L83.0005 84L98.9006 74.8V93.2ZM77.8006 84.1L61.9006 93.3V75L77.8006 84.1ZM59.4006 138.9L42.2006 129V109.2L59.4006 119.1V138.9ZM62.0006 138.9V120.6L77.9006 129.8L62.0006 138.9ZM118.701 129L101.501 138.9V119.1L118.701 109.2V129Z" fill="#9FB4ED"/>
<path d="M38 13.7H40.1V25.9001H38V13.7ZM43 18.3V26.0001H41.3V13.8H43.3L45.5 20.8V13.8H47.2V26.0001H45.4L43 18.3ZM54.6 17.0001V22.7C54.6 24.6 53.8 26.0001 51.6 26.0001H48.4V13.8H51.6C53.9 13.7 54.6 15.1001 54.6 17.0001ZM51.4 24.3C52.2 24.3 52.6 23.8 52.6 23.1V16.7C52.6 16 52.3 15.5001 51.4 15.5001H50.5V24.4001L51.4 24.3ZM61.9 13.7V22.9001C61.9 24.8001 61.1 26.0001 59 26.0001C56.8 26.0001 55.9 24.8001 55.9 22.9001V13.7H58V23.1C58 23.8 58.3 24.3 59 24.3C59.7 24.3 60 23.8 60 23.1V13.7H61.9ZM63 23.3V21.7H64.9V23.4001C64.9 24.1001 65.2 24.5001 65.9 24.5001C66.5 24.5001 66.8 24.1001 66.8 23.4001V22.9001C66.8 22.2001 66.5 21.8 65.9 21.2L64.7 20.0001C63.5 18.8001 63 18.1 63 16.7V16.3C63 14.8 63.9 13.6 65.9 13.6C68 13.6 68.8 14.6001 68.8 16.4001V17.4001H66.9V16.3C66.9 15.6 66.6 15.3 65.9 15.3C65.3 15.3 64.9 15.6 64.9 16.3V16.6C64.9 17.3 65.3 17.7 65.9 18.3L67.2 19.6C68.3 20.7 68.9 21.4 68.9 22.8V23.4001C68.9 25.1001 68 26.3 65.9 26.3C63.8 26.1 63 24.9 63 23.3ZM69.4 13.7H74.9V15.4001H73.2V25.9001H71.1V15.4001H69.4V13.7ZM77.9 20.3V25.9001H75.9V13.7H78.9C81 13.7 81.7 14.7001 81.7 16.4001V18.0001C81.7 19.3001 81.2 20.1001 80.1 20.4001L82.1 25.9001H79.9L77.9 20.3ZM77.9 15.4001V19.2H78.6C79.3 19.2 79.6 18.8 79.6 18.2V16.4001C79.6 15.7001 79.3 15.4001 78.6 15.4001H77.9ZM86.5 21.3V25.9001H84.4V21.3L82.1 13.7H84.2L85.4 18.3L86.6 13.7H88.6L86.5 21.3ZM90.8 24.1L89.8 26.9001H88.6L88.9 24.0001H90.8V24.1ZM94.1 13.7H96.2V25.9001H94.1V13.7ZM99.1 18.3V26.0001H97.4V13.8H99.4L101.6 20.8V13.8H103.3V26.0001H101.5L99.1 18.3ZM106.3 18.3V26.0001H104.6V13.8H106.6L108.8 20.8V13.8H110.5V26.0001H108.7L106.3 18.3ZM111.8 22.8V16.9001C111.8 15.0001 112.7 13.6 114.9 13.6C117.1 13.6 118 15.0001 118 16.9001V22.8C118 24.7 117.1 26.1 114.9 26.1C112.7 26.1 111.8 24.7 111.8 22.8ZM116 23.1V16.5001C116 15.8001 115.7 15.2 114.9 15.2C114.2 15.2 113.9 15.7001 113.9 16.5001V23.1C113.9 23.8 114.2 24.4001 114.9 24.4001C115.6 24.4001 116 23.9 116 23.1ZM125.9 13.7L123.6 25.9001H121.4L119.1 13.7H121.2L122.6 22.2L124 13.7H125.9ZM125.6 25.9001L127.9 13.7H130.2L132.5 25.9001H130.4L130 23.7H127.9L127.5 25.9001H125.6ZM128.1 22.1H129.7L128.9 17.2L128.1 22.1ZM132.3 13.7H137.8V15.4001H136.1V25.9001H134V15.4001H132.3V13.7ZM138.8 13.7H140.9V25.9001H138.8V13.7ZM142.2 22.8V16.9001C142.2 15.0001 143.1 13.6 145.3 13.6C147.5 13.6 148.4 15.0001 148.4 16.9001V22.8C148.4 24.7 147.5 26.1 145.3 26.1C143.1 26.1 142.2 24.7 142.2 22.8ZM146.3 23.1V16.5001C146.3 15.8001 146 15.2 145.2 15.2C144.5 15.2 144.2 15.7001 144.2 16.5001V23.1C144.2 23.8 144.5 24.4001 145.2 24.4001C146 24.4001 146.3 23.9 146.3 23.1ZM151.4 18.3V26.0001H149.7V13.8H151.7L153.9 20.8V13.8H155.6V26.0001H153.8L151.4 18.3Z" fill="#9FB4ED"/>
<path d="M37.6006 45.3L39.9006 33.1H42.2006L44.5006 45.3H42.4006L42.0006 43.1H39.9006L39.5006 45.3H37.6006ZM40.2006 41.4H41.8006L41.0006 36.5L40.2006 41.4ZM47.1006 37.6V45.3H45.4006V33.1H47.4006L49.6006 40.1V33.1H51.3006V45.3H49.5006L47.1006 37.6ZM58.7006 36.3V42C58.7006 43.9 57.9006 45.3 55.7006 45.3H52.5006V33.1H55.7006C57.9006 33.1 58.7006 34.5 58.7006 36.3ZM55.5006 43.6C56.3006 43.6 56.7006 43.1 56.7006 42.4V36C56.7006 35.3 56.4006 34.8 55.5006 34.8H54.6006V43.7L55.5006 43.6ZM61.9006 33.1H64.0006V45.3H61.9006V33.1ZM67.0006 37.6V45.3H65.3006V33.1H67.3006L69.5006 40.1V33.1H71.2006V45.3H69.4006L67.0006 37.6ZM72.5005 33.1H77.3006V34.8H74.5005V38.3H76.6006V40H74.5005V45.4H72.4006L72.5005 33.1ZM80.3006 39.7V45.3H78.2006V33.1H81.2006C83.3006 33.1 84.0005 34.1 84.0005 35.8V37.4C84.0005 38.7 83.5006 39.5 82.4006 39.8L84.4006 45.3H82.2006L80.3006 39.7ZM80.3006 34.7V38.5H81.0005C81.7006 38.5 82.0005 38.1 82.0005 37.5V35.7C82.0005 35 81.7006 34.7 81.0005 34.7H80.3006ZM85.0005 45.3L87.3006 33.1H89.6006L91.9006 45.3H89.8006L89.4006 43.1H87.2006L86.8006 45.3H85.0005ZM87.5005 41.4H89.1006L88.3006 36.5L87.5005 41.4ZM92.6006 42.6V41H94.5005V42.7C94.5005 43.4 94.8005 43.8 95.5005 43.8C96.1005 43.8 96.4006 43.4 96.4006 42.7V42.2C96.4006 41.5 96.1005 41.1 95.5005 40.5L94.3006 39.3C93.1006 38.1 92.6006 37.4 92.6006 36V35.6C92.6006 34.1 93.5005 32.9 95.5005 32.9C97.6005 32.9 98.4006 33.9 98.4006 35.7V36.7H96.5005V35.6C96.5005 34.9 96.2006 34.6 95.5005 34.6C94.9006 34.6 94.5005 34.9 94.5005 35.6V35.9C94.5005 36.6 94.9006 37 95.5005 37.6L96.8006 38.9C97.9006 40 98.5005 40.7 98.5005 42.1V42.7C98.5005 44.4 97.6005 45.6 95.5005 45.6C93.4006 45.6 92.6006 44.2 92.6006 42.6ZM99.1006 33.1H104.601V34.8H102.901V45.3H100.801V34.8H99.1006V33.1ZM107.701 39.7V45.3H105.601V33.1H108.601C110.701 33.1 111.401 34.1 111.401 35.8V37.4C111.401 38.7 110.901 39.5 109.801 39.8L111.801 45.3H109.601L107.701 39.7ZM107.701 34.7V38.5H108.401C109.101 38.5 109.401 38.1 109.401 37.5V35.7C109.401 35 109.101 34.7 108.401 34.7H107.701ZM118.601 33.1V42.3C118.601 44.2 117.801 45.4 115.701 45.4C113.501 45.4 112.601 44.2 112.601 42.3V33.1H114.701V42.5C114.701 43.2 115.001 43.7 115.701 43.7C116.401 43.7 116.701 43.2 116.701 42.5V33.1H118.601ZM119.901 42.1V36.2C119.901 34.3 120.801 32.9 123.001 32.9C125.301 32.9 125.901 34.2 125.901 36V37.4H124.001V35.8C124.001 35 123.701 34.6 123.001 34.6C122.301 34.6 122.001 35.1 122.001 35.9V42.5C122.001 43.2 122.301 43.8 123.001 43.8C123.701 43.8 124.001 43.3 124.001 42.6V40.3H125.901V42.4C125.901 44.1 125.201 45.4 123.001 45.4C120.801 45.4 119.901 44 119.901 42.1ZM126.301 33.1H131.801V34.8H130.101V45.3H128.001V34.8H126.301V33.1ZM138.801 33.1V42.3C138.801 44.2 138.001 45.4 135.901 45.4C133.701 45.4 132.801 44.2 132.801 42.3V33.1H134.901V42.5C134.901 43.2 135.201 43.7 135.901 43.7C136.601 43.7 136.901 43.2 136.901 42.5V33.1H138.801ZM142.101 39.7V45.3H140.001V33.1H143.001C145.101 33.1 145.801 34.1 145.801 35.8V37.4C145.801 38.7 145.301 39.5 144.201 39.8L146.201 45.3H144.001L142.101 39.7ZM142.101 34.7V38.5H142.801C143.501 38.5 143.801 38.1 143.801 37.5V35.7C143.801 35 143.501 34.7 142.801 34.7H142.101ZM147.101 33.1H152.001V34.8H149.201V38.3H151.201V40H149.201V43.7H152.001V45.4H147.101V33.1Z" fill="#9FB4ED"/>
</svg>
