<svg width="161" height="161" viewBox="0 0 161 161" fill="none" xmlns="http://www.w3.org/2000/svg">
<path d="M24.1002 13.5V46H18.6002V21.1L14.7002 25.1V19.4L19.7002 13.5H24.1002ZM26.6002 13.5H40.2002V18.6L33.1002 46H27.7002L35.0002 18H26.6002V13.5ZM121.3 97.6C121.3 86.3 112.3 77.1 101.1 76.7C98.2002 68.6 90.4002 62.7 81.3002 62.7C72.2002 62.7 64.4002 68.5 61.5002 76.7C50.3002 77.1 41.3002 86.3 41.3002 97.6C41.3002 104.3 44.5001 110.3 49.4001 114.1C48.9001 115.9 48.6002 117.9 48.6002 119.9C48.6002 131.5 58.0002 140.9 69.6002 140.9C74.0002 140.9 78.1001 139.5 81.4001 137.2C84.7001 139.4 88.7002 140.7 93.0002 140.7C104.6 140.7 114 131.3 114 119.7C114 117.7 113.7 115.8 113.2 114C118.2 110.3 121.3 104.3 121.3 97.6ZM98.1002 83.7C98.1002 92.1 91.9002 99 83.8002 100.2C83.7002 99.3999 83.6002 98.5 83.6002 97.6C83.6002 89.2 89.8001 82.3 97.9001 81.1C98.0001 81.9 98.1002 82.7999 98.1002 83.7ZM81.5002 131.8C78.4002 128.8 76.4001 124.5 76.4001 119.8C76.4001 115.2 78.3002 111 81.3002 107.9C84.4002 110.9 86.4001 115.2 86.4001 119.9C86.4001 124.6 84.5002 128.8 81.5002 131.8ZM64.9001 81.1C73.0001 82.3 79.2002 89.2 79.2002 97.6C79.2002 98.5 79.1002 99.2999 79.0002 100.2C70.9002 99 64.7002 92.1 64.7002 83.7C64.7002 82.7999 64.7001 81.9 64.9001 81.1ZM77.4001 105.1C74.6001 110.6 69.0002 114.4 62.5002 114.4C59.7002 114.4 57.1002 113.7 54.8002 112.5C57.6002 107 63.2002 103.2 69.8002 103.2C72.4002 103.2 75.1001 103.9 77.4001 105.1ZM85.4001 105C87.7001 103.8 90.3002 103.1 93.1002 103.1C99.7002 103.1 105.4 106.9 108.1 112.5C105.8 113.7 103.1 114.4 100.4 114.4C93.8001 114.4 88.1001 110.6 85.4001 105ZM81.4001 66.9C88.3001 66.9 94.2002 71 96.7002 77C89.9002 78.2 84.2001 82.7 81.4001 88.8C78.6001 82.7 72.9002 78.2 66.1002 77C68.6002 71.1 74.5001 66.9 81.4001 66.9ZM45.7002 97.6C45.7002 89 52.3002 81.9 60.6002 81C60.5002 81.9 60.4001 82.7999 60.4001 83.7C60.4001 89.7999 63.0002 95.2999 67.2002 99.2C60.2002 100 54.3002 104.2 51.1002 110.1C47.8002 107 45.7002 102.6 45.7002 97.6ZM52.9001 120C52.9001 118.8 53.0002 117.7 53.3002 116.5C56.1002 117.8 59.1001 118.6 62.4001 118.6C66.1001 118.6 69.5002 117.7 72.5002 116C72.3002 117.2 72.1002 118.5 72.1002 119.9C72.1002 125.6 74.4002 130.7 78.0002 134.5C75.5002 136 72.6002 136.8 69.6002 136.8C60.4002 136.7 52.9001 129.2 52.9001 120ZM109.9 119.8C109.9 129 102.4 136.5 93.2002 136.5C90.2002 136.5 87.4001 135.7 84.9001 134.3C88.5001 130.5 90.7002 125.5 90.7002 119.9C90.7002 118.5 90.6002 117.2 90.3002 115.9C93.3002 117.6 96.8002 118.5 100.5 118.5C103.8 118.5 106.9 117.7 109.6 116.4C109.7 117.6 109.9 118.7 109.9 119.8ZM95.6002 99C99.7002 95.2 102.3 89.7 102.3 83.6C102.3 82.7 102.2 81.8 102.1 80.9C110.5 81.8 117 88.9 117 97.5C117 102.4 114.9 106.8 111.5 109.9C108.5 104.1 102.6 99.9 95.6002 99Z" fill="#9FB4ED"/>
<path d="M51.2998 13.5H54.5998C56.7998 13.5 57.5998 14.6 57.5998 16.4V19.2C57.5998 21 56.7998 22.2 54.5998 22.2H53.4998V26.7H51.2998V13.5ZM53.5998 15.3V20.5H54.3998C55.1998 20.5 55.4998 20.1 55.4998 19.4V16.4C55.4998 15.7 55.1998 15.3 54.3998 15.3H53.5998ZM57.8998 26.7L60.3998 13.6H62.8998L65.3998 26.7H63.0998L62.6998 24.3H60.3998L59.9998 26.7H57.8998ZM60.6998 22.5H62.4998L61.5998 17.2L60.6998 22.5ZM68.7998 20.6V26.6H66.5998V13.5H69.7998C71.9998 13.5 72.7998 14.6 72.7998 16.4V18.1C72.7998 19.5 72.2998 20.3 70.9998 20.6L73.0998 26.6H70.7998L68.7998 20.6ZM68.7998 15.3V19.4H69.4998C70.2998 19.4 70.5998 19 70.5998 18.3V16.4C70.5998 15.7 70.2998 15.3 69.4998 15.3H68.7998ZM73.5998 13.5H79.4998V15.3H77.6998V26.6H75.4998V15.3H73.6998V13.5H73.5998ZM82.6998 18.4V26.7H80.7998V13.6H82.9998L85.3998 21.1V13.6H87.1998V26.7H85.2998L82.6998 18.4ZM89.0998 13.5H94.3998V15.3H91.2998V19.1H93.4998V20.9H91.2998V24.9H94.3998V26.7H89.0998V13.5ZM97.9998 20.6V26.6H95.7998V13.5H98.9998C101.2 13.5 102 14.6 102 16.4V18.1C102 19.5 101.5 20.3 100.2 20.6L102.3 26.6H99.9998L97.9998 20.6ZM97.9998 15.3V19.4H98.6998C99.4998 19.4 99.7998 19 99.7998 18.3V16.4C99.7998 15.7 99.4998 15.3 98.6998 15.3H97.9998ZM103.1 23.8V22.1H105.2V23.9C105.2 24.6 105.5 25.1 106.3 25.1C107 25.1 107.3 24.6 107.3 23.9V23.4C107.3 22.6 107 22.2 106.3 21.5L105 20.2C103.7 19 103.2 18.2 103.2 16.7V16.3C103.2 14.7 104.2 13.4 106.3 13.4C108.5 13.4 109.4 14.5 109.4 16.4V17.5H107.4V16.4C107.4 15.6 107.1 15.3 106.4 15.3C105.8 15.3 105.4 15.6 105.4 16.4V16.7C105.4 17.4 105.8 17.9 106.4 18.5L107.8 19.9C109 21.1 109.6 21.9 109.6 23.3V23.9C109.6 25.7 108.6 27 106.4 27C104 26.8 103.1 25.6 103.1 23.8ZM115.2 20.9H113.1V26.7H110.8V13.6H113V19.2H115.1V13.6H117.3V26.7H115.1V20.9H115.2ZM118.9 13.5H121.1V26.6H118.9V13.5ZM122.5 13.5H125.8C128 13.5 128.8 14.6 128.8 16.4V19.2C128.8 21 128 22.2 125.8 22.2H124.8V26.7H122.6L122.5 13.5ZM124.8 15.3V20.5H125.6C126.4 20.5 126.7 20.1 126.7 19.4V16.4C126.7 15.7 126.4 15.3 125.6 15.3H124.8ZM129.7 23.8V22.1H131.8V23.9C131.8 24.6 132.1 25.1 132.9 25.1C133.6 25.1 133.9 24.6 133.9 23.9V23.4C133.9 22.6 133.6 22.2 132.9 21.5L131.6 20.2C130.3 19 129.8 18.2 129.8 16.7V16.3C129.8 14.7 130.8 13.4 132.9 13.4C135.1 13.4 136 14.5 136 16.4V17.5H134V16.4C134 15.6 133.7 15.3 133 15.3C132.4 15.3 132 15.6 132 16.4V16.7C132 17.4 132.4 17.9 133 18.5L134.4 19.9C135.6 21.1 136.2 21.9 136.2 23.3V23.9C136.2 25.7 135.2 27 133 27C130.6 26.8 129.7 25.6 129.7 23.8Z" fill="#9FB4ED"/>
<path d="M51.2998 32.6H56.4998V34.4H53.4998V38.2H55.6998V40H53.4998V45.8H51.2998V32.6ZM57.2998 42.4V36C57.2998 33.9 58.2998 32.5 60.5998 32.5C62.8998 32.5 63.9998 34 63.9998 36V42.4C63.9998 44.4 62.9998 45.9 60.5998 45.9C58.2998 45.9 57.2998 44.4 57.2998 42.4ZM61.7998 42.7V35.6C61.7998 34.8 61.4998 34.2 60.6998 34.2C59.8998 34.2 59.5998 34.8 59.5998 35.6V42.7C59.5998 43.5 59.8998 44.1 60.6998 44.1C61.3998 44.1 61.7998 43.5 61.7998 42.7ZM67.5998 39.7V45.7H65.3998V32.6H68.5998C70.7998 32.6 71.5998 33.7 71.5998 35.5V37.2C71.5998 38.6 71.0998 39.4 69.7998 39.7L71.8998 45.7H69.5998L67.5998 39.7ZM67.5998 34.4V38.5H68.2998C69.0998 38.5 69.3998 38.1 69.3998 37.4V35.5C69.3998 34.8 69.0998 34.4 68.2998 34.4H67.5998ZM75.1998 32.6H81.0998V34.4H79.2998V45.7H77.0998V34.4H75.2998V32.6H75.1998ZM86.3998 40H84.2998V45.8H82.0998V32.7H84.2998V38.3H86.3998V32.7H88.5998V45.8H86.3998V40ZM90.0998 32.6H95.3998V34.4H92.2998V38.2H94.4998V40H92.2998V44H95.3998V45.8H90.0998V32.6ZM102.5 38.8H105.6V45.8H104V44.4C103.7 45.4 103.1 46 101.9 46C99.9998 46 99.0998 44.5 99.0998 42.5V36.1C99.0998 34 100.1 32.6 102.4 32.6C104.8 32.6 105.6 34 105.6 35.9V37.1H103.6V35.8C103.6 35 103.3 34.5 102.5 34.5C101.7 34.5 101.4 35.1 101.4 35.9V43C101.4 43.8 101.7 44.4 102.5 44.4C103.2 44.4 103.6 44 103.6 43.1V40.8H102.6V38.8H102.5ZM106.8 42.4V36C106.8 33.9 107.8 32.5 110.1 32.5C112.4 32.5 113.5 34 113.5 36V42.4C113.5 44.4 112.5 45.9 110.1 45.9C107.9 45.9 106.8 44.4 106.8 42.4ZM111.3 42.7V35.6C111.3 34.8 111 34.2 110.2 34.2C109.4 34.2 109.1 34.8 109.1 35.6V42.7C109.1 43.5 109.4 44.1 110.2 44.1C111 44.1 111.3 43.5 111.3 42.7ZM114.2 45.8L116.7 32.7H119.2L121.7 45.8H119.4L119 43.4H116.7L116.3 45.8H114.2ZM116.9 41.6H118.7L117.8 36.3L116.9 41.6ZM122.8 32.6H125V43.9H127.6V45.7H122.8V32.6ZM128.4 42.9V41.1H130.5V42.9C130.5 43.6 130.8 44.1 131.6 44.1C132.3 44.1 132.6 43.6 132.6 42.9V42.4C132.6 41.6 132.3 41.2 131.6 40.5L130.3 39.2C129 38 128.5 37.2 128.5 35.7V35.3C128.5 33.7 129.5 32.4 131.6 32.4C133.8 32.4 134.7 33.5 134.7 35.4V36.5H132.7V35.4C132.7 34.6 132.4 34.3 131.7 34.3C131.1 34.3 130.7 34.6 130.7 35.4V35.7C130.7 36.4 131.1 36.9 131.7 37.5L133.1 38.9C134.3 40.1 134.9 40.9 134.9 42.3V42.9C134.9 44.7 133.9 46 131.7 46C129.3 45.9 128.4 44.7 128.4 42.9Z" fill="#9FB4ED"/>
</svg>
