<svg width="161" height="161" viewBox="0 0 161 161" fill="none" xmlns="http://www.w3.org/2000/svg">
<path d="M22.9004 46.3999C28.4004 46.3999 30.8004 43.5 30.8004 39V34.2C30.8004 31.2 29.5004 29.3 26.8004 28.7C29.0004 28 30.5004 26.1999 30.5004 23.3999V20.6C30.5004 16 28.3004 13.2 23.3004 13.2C17.7004 13.2 15.7004 16.5 15.7004 21.3V24.2H20.7004V20.8999C20.7004 18.8999 21.3004 17.7 23.0004 17.7C24.7004 17.7 25.3004 18.8 25.3004 20.6V24.1C25.3004 25.8 24.2004 26.7 22.4004 26.7H20.3004V30.8999H22.6004C24.5004 30.8999 25.3004 31.8 25.3004 33.5V38.8999C25.3004 40.5999 24.5004 41.8 22.9004 41.8C21.0004 41.8 20.4004 40.6 20.4004 38.6V34H15.4004V38.3C15.4004 43.2 17.4004 46.3999 22.9004 46.3999Z" fill="#9FB4ED"/>
<path d="M134.4 100.6C134.4 96.1 131.5 92.4 127.1 92.4C124.9 92.4 122.2 94.8 120.8 96.3C119.4 94.8 116.9 92.4 114.7 92.4C110.3 92.4 107.2 96.1 107.2 100.6C107.2 102.9 108.1 104.9 109.5 106.4L120.8 117.7L132.1 106.4C133.5 104.9 134.4 102.9 134.4 100.6Z" fill="#9FB4ED"/>
<path d="M86.4 136.1C85.4 136 84.7 135.4 84.6 134.6L78.9 101.2L70.2 117.3C69.8 118 69 118.4 68.2 118.2C67.4 118.1 66.8 117.4 66.7 116.6L63 90.8L56.3 105.9C56 106.6 55.3 107 54.6 107H28.4C27.4 107 26.5 106.2 26.5 105.1C26.5 104.1 27.3 103.2 28.4 103.2H53.4L62.3 83.3C62.6 82.5 63.4 82.1 64.2 82.2C65 82.3 65.7 83 65.8 83.8L69.6 110.4L78.2 94.5C78.6 93.8 79.3 93.4 80.1 93.6C80.9 93.7 81.5 94.3 81.6 95.1L86.9 126L106.2 61.8C106.4 61.1 107.1 60.5 107.8 60.5C108.6 60.4 109.3 60.9 109.6 61.5L119.8 82.6C120.2 83.5 119.9 84.6 118.9 85.1C118 85.5 116.9 85.2 116.4 84.2L108.3 67.4L88.1 134.6C87.9 135.6 87.2 136.1 86.4 136.1Z" fill="#9FB4ED"/>
<path d="M49.3004 19.6H52.4004V26.6H50.8004V25.2C50.5004 26.2 49.9004 26.8 48.7004 26.8C46.8004 26.8 45.9004 25.3 45.9004 23.3V16.9C45.9004 14.8 46.9004 13.4 49.2004 13.4C51.6004 13.4 52.4004 14.8 52.4004 16.7V17.9H50.4004V16.6C50.4004 15.8 50.1004 15.3 49.3004 15.3C48.5004 15.3 48.2004 15.9 48.2004 16.7V23.8C48.2004 24.6 48.5004 25.2 49.3004 25.2C50.0004 25.2 50.4004 24.8 50.4004 23.9V21.6H49.4004V19.6H49.3004ZM53.9004 23.3V16.9C53.9004 14.8 54.9004 13.4 57.2004 13.4C59.5004 13.4 60.6004 14.9 60.6004 16.9V23.3C60.6004 25.3 59.6004 26.8 57.2004 26.8C54.9004 26.8 53.9004 25.3 53.9004 23.3ZM58.4004 23.6V16.5C58.4004 15.7 58.1004 15.1 57.3004 15.1C56.5004 15.1 56.2004 15.7 56.2004 16.5V23.6C56.2004 24.4 56.5004 25 57.3004 25C58.0004 25 58.4004 24.4 58.4004 23.6ZM62.0004 23.3V16.9C62.0004 14.8 63.0004 13.4 65.3004 13.4C67.6004 13.4 68.7004 14.9 68.7004 16.9V23.3C68.7004 25.3 67.7004 26.8 65.3004 26.8C63.0004 26.8 62.0004 25.3 62.0004 23.3ZM66.5004 23.6V16.5C66.5004 15.7 66.2004 15.1 65.4004 15.1C64.6004 15.1 64.3004 15.7 64.3004 16.5V23.6C64.3004 24.4 64.6004 25 65.4004 25C66.2004 25 66.5004 24.4 66.5004 23.6ZM76.8004 17V23.1C76.8004 25.1 76.0004 26.6 73.6004 26.6H70.2004V13.5H73.6004C75.9004 13.5 76.8004 15 76.8004 17ZM73.3004 24.8C74.2004 24.8 74.6004 24.3 74.6004 23.5V16.6C74.6004 15.8 74.3004 15.3 73.3004 15.3H72.4004V24.8H73.3004ZM85.6004 20.9H83.5004V26.7H81.3004V13.6H83.5004V19.2H85.6004V13.6H87.8004V26.7H85.6004V20.9ZM89.4004 13.5H94.7004V15.3H91.6004V19.1H93.8004V20.9H91.6004V24.9H94.7004V26.7H89.4004V13.5ZM95.7004 26.7L98.2004 13.6H100.7L103.2 26.7H100.9L100.5 24.3H98.2004L97.8004 26.7H95.7004ZM98.5004 22.5H100.3L99.4004 17.2L98.5004 22.5ZM104.3 13.5H106.5V24.8H109.1V26.6H104.3V13.5ZM108.8 13.5H114.7V15.3H112.9V26.6H110.7V15.3H108.9V13.5H108.8ZM120.3 20.9H118.2V26.7H116V13.6H118.2V19.2H120.3V13.6H122.5V26.7H120.3V20.9Z" fill="#9FB4ED"/>
<path d="M45.5996 45.8999L48.0996 32.8H50.5996L53.0996 45.8999H50.7996L50.3996 43.5H48.0996L47.6996 45.8999H45.5996ZM48.3996 41.8H50.1996L49.2996 36.5L48.3996 41.8ZM55.8996 37.7V46H53.9996V32.8999H56.1996L58.5996 40.3999V32.8999H60.3996V46H58.4996L55.8996 37.7ZM68.5996 36.3V42.3999C68.5996 44.3999 67.7996 45.8999 65.3996 45.8999H61.9996V32.8H65.3996C67.7996 32.8 68.5996 34.3 68.5996 36.3ZM65.0996 44.1C65.9996 44.1 66.3996 43.6 66.3996 42.8V35.8999C66.3996 35.0999 66.0996 34.6 65.0996 34.6H64.1996V44.1H65.0996ZM77.0996 37.8L75.8996 45.8999H73.7996L71.9996 32.8H74.0996L75.0996 41.1L76.1996 32.8H77.9996L79.1996 41.1L80.1996 32.8H82.0996L80.3996 45.8999H78.2996L77.0996 37.8ZM83.2996 32.8H88.5996V34.6H85.4996V38.3999H87.6996V40.2H85.4996V44.2H88.5996V46H83.2996V32.8ZM89.9996 32.8H92.1996V44.1H94.7996V45.8999H89.9996V32.8ZM95.9996 32.8H98.1996V44.1H100.8V45.8999H95.9996V32.8ZM100.6 38.2H103.7V40H100.6V38.2ZM105 32.8H108.2C110.4 32.8 111.1 33.8 111.1 35.7V37C111.1 38.1 110.7 38.8 109.8 39.1C110.9 39.4 111.4 40.1 111.4 41.3V43C111.4 44.9 110.6 45.8999 108.4 45.8999H105V32.8ZM107.2 38.3H108C108.7 38.3 109 37.9 109 37.2V35.6C109 34.9 108.7 34.5 107.9 34.5H107.1L107.2 38.3ZM107.2 40V44.1H108.2C108.9 44.1 109.3 43.7 109.3 43V41C109.3 40.3 109 39.8999 108.2 39.8999H107.2V40ZM112.8 32.8H118.1V34.6H115V38.3999H117.2V40.2H115V44.2H118.1V46H112.8V32.8ZM119.4 32.8H121.6V45.8999H119.4V32.8ZM125.1 37.7V46H123.2V32.8999H125.4L127.8 40.3999V32.8999H129.6V46H127.7L125.1 37.7ZM134.5 38.8999H137.6V45.8999H136V44.5C135.7 45.5 135.1 46.1 133.9 46.1C132 46.1 131.1 44.6 131.1 42.6V36.2C131.1 34.1 132.1 32.7 134.4 32.7C136.8 32.7 137.6 34.1 137.6 36V37.2H135.6V35.8999C135.6 35.0999 135.3 34.6 134.5 34.6C133.7 34.6 133.4 35.2 133.4 36V43.1C133.4 43.9 133.7 44.5 134.5 44.5C135.2 44.5 135.6 44.1 135.6 43.2V40.8999H134.6V38.8999H134.5Z" fill="#9FB4ED"/>
</svg>
