<svg width="161" height="161" viewBox="0 0 161 161" fill="none" xmlns="http://www.w3.org/2000/svg">
<path d="M25.5994 23.8C23.3994 23.8 21.8995 24.6 20.9995 26V17.9H30.3994V13.4H15.9995V31.7H20.9995V31C20.9995 29.1 21.8994 28 23.3994 28C25.0994 28 25.6995 29.2 25.6995 30.9V38.7C25.6995 40.4 25.0994 41.6 23.3994 41.6C21.4994 41.6 20.8994 40.4 20.8994 38.4V34.3H15.8994V38C15.8994 42.9 17.8994 46.1 23.3994 46.1C28.8994 46.1 31.1995 43.2 31.1995 38.7V31C31.1995 25.8 28.5994 23.8 25.5994 23.8Z" fill="#9FB4ED"/>
<path d="M117.2 60.9H97.2C97.1 60.9 96.9 61 96.9 61.2V67.8C96.9 67.9 97 68.1 97.2 68.1H105.2L96.4 76.9C91.9 73.4 86.3 71.3 80.2 71.3C65.8 71.3 54 83.1 54 97.5C54 110.8 64 121.8 76.8 123.5V131.2H68.9C68.8 131.2 68.6 131.3 68.6 131.5V138.6C68.6 138.7 68.7 138.9 68.9 138.9H76.8V146.4C76.8 146.5 76.9 146.7 77.1 146.7H84.2C84.3 146.7 84.5 146.6 84.5 146.4V138.9H92.4C92.5 138.9 92.7 138.8 92.7 138.6V131.5C92.7 131.4 92.6 131.2 92.4 131.2H84.5V123.4C96.9 121.4 106.4 110.6 106.4 97.6C106.4 92 104.6 86.8 101.6 82.5L110.3 73.8V81.2C110.3 81.3 110.4 81.5 110.6 81.5H117.2C117.3 81.5 117.5 81.4 117.5 81.2V61.2C117.5 61 117.3 60.9 117.2 60.9ZM80.2 116.8C69.6 116.8 60.9 108.1 60.9 97.5C60.9 86.9 69.5 78.2 80.2 78.2C90.8 78.2 99.5 86.8 99.5 97.5C99.5 108.1 90.8 116.8 80.2 116.8Z" fill="#9FB4ED"/>
<path d="M92.1 89.6H68.8C68.7 89.6 68.5 89.7 68.5 89.8V95.5C68.5 95.6 68.6 95.7 68.8 95.7H92.2C92.3 95.7 92.5 95.6 92.5 95.5V89.8C92.4 89.7 92.3 89.6 92.1 89.6ZM92.1 99.7H68.8C68.7 99.7 68.5 99.8 68.5 99.9V105.6C68.5 105.7 68.6 105.8 68.8 105.8H92.2C92.3 105.8 92.5 105.7 92.5 105.6V99.9C92.4 99.8 92.3 99.7 92.1 99.7Z" fill="#9FB4ED"/>
<path d="M45.8994 32.8H51.1995V34.6H48.0994V38.4H50.2994V40.2H48.0994V44.2H51.1995V46H45.8994V32.8ZM54.6995 46.8V45.9C52.8995 45.6 52.1995 44.3 52.1995 42.5V36.1C52.1995 34 53.1995 32.6 55.4995 32.6C57.7995 32.6 58.8994 34.1 58.8994 36.1V42.5C58.8994 43.9 58.3994 45.1 57.2994 45.6L58.8994 45.9V47.5L54.6995 46.8ZM56.6995 43V35.8C56.6995 35 56.3994 34.4 55.5994 34.4C54.7994 34.4 54.4995 35 54.4995 35.8V43C54.4995 43.8 54.7994 44.4 55.5994 44.4C56.3994 44.4 56.6995 43.8 56.6995 43ZM66.7994 32.8V42.7C66.7994 44.7 65.8995 46.1 63.6995 46.1C61.3995 46.1 60.3994 44.8 60.3994 42.7V32.8H62.5994V43C62.5994 43.8 62.8995 44.3 63.6995 44.3C64.4995 44.3 64.7994 43.8 64.7994 43V32.8H66.7994ZM67.8994 45.9L70.3994 32.8H72.8994L75.3994 45.9H73.0994L72.6995 43.5H70.3994L69.9995 45.9H67.8994ZM70.6995 41.8H72.4995L71.5994 36.5L70.6995 41.8ZM76.4995 32.8H78.6995V44.1H81.2994V45.9H76.4995V32.8ZM82.4995 32.8H84.6995V45.9H82.4995V32.8ZM85.8994 32.8H91.7994V34.6H89.9995V45.9H87.7994V34.6H85.9995V32.8H85.8994ZM97.2994 40.9V45.9H95.0994V40.9L92.5994 32.8H94.8994L96.1995 37.8L97.4995 32.8H99.5994L97.2994 40.9Z" fill="#9FB4ED"/>
<path d="M49.2994 19.6H52.3994V26.6H50.7994V25.2C50.4994 26.2 49.8995 26.8 48.6995 26.8C46.7995 26.8 45.8994 25.3 45.8994 23.3V16.9C45.8994 14.8 46.8995 13.4 49.1995 13.4C51.5995 13.4 52.3994 14.8 52.3994 16.7V17.9H50.3994V16.6C50.3994 15.8 50.0994 15.3 49.2994 15.3C48.4994 15.3 48.1995 15.9 48.1995 16.7V23.8C48.1995 24.6 48.4994 25.2 49.2994 25.2C49.9994 25.2 50.3994 24.8 50.3994 23.9V21.6H49.3994V19.6H49.2994ZM53.8994 13.5H59.1995V15.3H56.0994V19.1H58.2994V20.9H56.0994V24.9H59.1995V26.7H53.8994V13.5ZM62.3994 18.4V26.7H60.4995V13.6H62.6995L65.0994 21.1V13.6H66.8994V26.7H64.9995L62.3994 18.4ZM74.9995 17V23.1C74.9995 25.1 74.1994 26.6 71.7994 26.6H68.3994V13.5H71.7994C74.1994 13.5 74.9995 15 74.9995 17ZM71.4995 24.8C72.3995 24.8 72.7994 24.3 72.7994 23.5V16.6C72.7994 15.8 72.4995 15.3 71.4995 15.3H70.5994V24.8H71.4995ZM76.4995 13.5H81.7994V15.3H78.6995V19.1H80.8994V20.9H78.6995V24.9H81.7994V26.7H76.4995V13.5ZM85.2994 20.6V26.6H83.0994V13.5H86.2994C88.4994 13.5 89.2994 14.6 89.2994 16.4V18.1C89.2994 19.5 88.7994 20.3 87.4995 20.6L89.5994 26.6H87.2994L85.2994 20.6ZM85.2994 15.3V19.4H85.9995C86.7994 19.4 87.0994 19 87.0994 18.3V16.4C87.0994 15.7 86.7994 15.3 85.9995 15.3H85.2994Z" fill="#9FB4ED"/>
</svg>
