<svg width="161" height="161" viewBox="0 0 161 161" fill="none" xmlns="http://www.w3.org/2000/svg">
<path d="M31.3006 38V34.4C31.3006 31.3 30.2006 29 27.7006 27.9C29.9006 26.8 30.9006 24.9 30.9006 22.3V21C30.9006 15.9 28.3006 13.2 23.2006 13.2C18.2006 13.2 15.6006 15.9 15.6006 21V22.3C15.6006 24.9 16.6006 26.9 18.7006 27.9C16.2006 29 15.1006 31.3 15.1006 34.4V37.9C15.1006 42.8 17.4006 46.3 23.2006 46.3C28.9006 46.4 31.3006 42.9 31.3006 38ZM20.7006 20.6C20.7006 18.6 21.4006 17.5 23.1006 17.5C24.9006 17.5 25.6006 18.6 25.6006 20.6V22.8C25.6006 24.8 24.9006 25.9 23.1006 25.9C21.3006 25.9 20.7006 24.7 20.7006 22.8V20.6ZM25.8006 38.6C25.8006 40.6 25.1006 42 23.1006 42C21.2006 42 20.5006 40.6 20.5006 38.6V33.3C20.5006 31.3 21.2006 30 23.1006 30C25.1006 30 25.8006 31.4 25.8006 33.3V38.6Z" fill="#9FB4ED"/>
<path d="M111.701 79.2001L95.3008 94.8001C94.7008 95.4001 94.4008 95.9001 94.4008 97.1001V140.7C94.4008 141.2 94.8008 141.6 95.3008 141.6H112.201C112.701 141.6 113.101 141.2 113.101 140.7V79.6001C113.201 79.0001 112.801 78.1001 111.701 79.2001ZM64.6008 99.4001L48.2008 115C47.6008 115.6 47.3008 116.1 47.3008 117.3V140.6C47.3008 141.1 47.7008 141.5 48.2008 141.5H65.1008C65.6008 141.5 66.0008 141.1 66.0008 140.6V99.8001C66.1008 99.3001 65.7008 98.4001 64.6008 99.4001Z" fill="#9FB4ED"/>
<path d="M119.2 60.3C119.2 60.2 119.2 60.0001 119.1 59.9001C119 59.8001 118.9 59.8 118.8 59.8H118.6L106.1 62.6001H105.9C105.8 62.6001 105.7 62.7 105.7 62.7C105.5 62.9 105.5 63.2001 105.7 63.4001L105.8 63.5001L108.7 66.4001L80.3004 94.8L67.2004 81.7C67.1004 81.6 66.8004 81.6 66.7004 81.7L63.1004 85.3L42.1004 106.3C42.0004 106.4 42.0004 106.7 42.1004 106.8L45.7004 110.4C45.8004 110.5 46.1004 110.5 46.2004 110.4L67.0004 89.7L76.5004 99.2L80.1004 102.8C80.2004 102.9 80.5004 102.9 80.6004 102.8L112.8 70.6001L115.8 73.6001C116 73.8001 116.3 73.8001 116.5 73.6001C116.6 73.5001 116.6 73.4 116.6 73.3L119.4 60.5001L119.2 60.3Z" fill="#9FB4ED"/>
<path d="M88.3006 102.2L80.4006 110.2C80.2006 110.3 80.0006 110.3 79.9006 110.2L72.7006 102.9C71.4006 101.6 71.1006 102.7 71.1006 103.2V140.8C71.1006 141.3 71.5006 141.7 72.0006 141.7H88.9006C89.4006 141.7 89.8006 141.3 89.8006 140.8V102.6C89.8006 101.9 89.4006 101 88.3006 102.2Z" fill="#9FB4ED"/>
<path d="M49.9008 17.0001V23.1001C49.9008 25.1001 49.1008 26.6001 46.7008 26.6001H43.3008V13.5001H46.7008C49.1008 13.5001 49.9008 15.0001 49.9008 17.0001ZM46.4008 24.8C47.3008 24.8 47.7008 24.3001 47.7008 23.5001V16.6001C47.7008 15.8001 47.4008 15.3 46.4008 15.3H45.5008V24.8H46.4008ZM51.3008 13.5001H56.6008V15.3H53.5008V19.1001H55.7008V20.9001H53.5008V24.9001H56.6008V26.7H51.3008V13.5001ZM57.7008 23.2V16.8C57.7008 14.7 58.7008 13.3 61.0008 13.3C63.4008 13.3 64.1008 14.7001 64.1008 16.6001V18.2H62.1008V16.4001C62.1008 15.6001 61.8008 15.1001 61.0008 15.1001C60.2008 15.1001 59.9008 15.7001 59.9008 16.5001V23.6001C59.9008 24.4001 60.2008 25.0001 61.0008 25.0001C61.8008 25.0001 62.1008 24.5 62.1008 23.7V21.3H64.1008V23.6001C64.1008 25.5001 63.3008 26.9001 61.0008 26.9001C58.7008 26.8001 57.7008 25.2 57.7008 23.2ZM65.5008 13.5001H70.8008V15.3H67.7008V19.1001H69.9008V20.9001H67.7008V24.9001H70.8008V26.7H65.5008V13.5001ZM73.9008 18.3V26.6001H72.0008V13.5001H74.2008L76.6008 21.0001V13.5001H78.4008V26.6001H76.5008L73.9008 18.3ZM79.6008 13.5001H85.5008V15.3H83.7008V26.6001H81.5008V15.3H79.7008V13.5001H79.6008ZM93.6008 18.5001L92.4008 26.6001H90.3008L88.5008 13.5001H90.6008L91.6008 21.8L92.7008 13.5001H94.5008L95.7008 21.8L96.7008 13.5001H98.6008L96.9008 26.6001H94.9008L93.6008 18.5001ZM99.5008 23.2V16.8C99.5008 14.7 100.501 13.3 102.801 13.3C105.101 13.3 106.201 14.8 106.201 16.8V23.2C106.201 25.2 105.201 26.7 102.801 26.7C100.501 26.8 99.5008 25.2 99.5008 23.2ZM103.901 23.6001V16.5001C103.901 15.7001 103.601 15.1001 102.801 15.1001C102.001 15.1001 101.701 15.7001 101.701 16.5001V23.6001C101.701 24.4001 102.001 25.0001 102.801 25.0001C103.601 24.9001 103.901 24.4001 103.901 23.6001ZM109.801 20.6001V26.6001H107.601V13.5001H110.801C113.001 13.5001 113.801 14.6001 113.801 16.4001V18.1001C113.801 19.5001 113.301 20.3001 112.001 20.6001L114.101 26.6001H111.801L109.801 20.6001ZM109.801 15.3V19.4001H110.501C111.301 19.4001 111.601 19 111.601 18.3V16.4001C111.601 15.7001 111.301 15.3 110.501 15.3H109.801ZM117.401 20.2V26.6001H115.201V13.5001H117.401V19.3L119.801 13.5001H122.001L119.401 19.4001L122.001 26.6001H119.701L117.401 20.2ZM125.101 26.6001L127.601 13.5001H130.101L132.601 26.6001H130.301L129.901 24.2H127.601L127.201 26.6001H125.101ZM127.901 22.4001H129.701L128.801 17.1001L127.901 22.4001ZM135.201 18.3V26.6001H133.301V13.5001H135.501L137.901 21.0001V13.5001H139.701V26.6001H137.801L135.201 18.3ZM147.801 17.0001V23.1001C147.801 25.1001 147.001 26.6001 144.601 26.6001H141.201V13.5001H144.601C147.001 13.5001 147.801 15.0001 147.801 17.0001ZM144.301 24.8C145.201 24.8 145.601 24.3001 145.601 23.5001V16.6001C145.601 15.8001 145.301 15.3 144.301 15.3H143.401V24.8H144.301Z" fill="#9FB4ED"/>
<path d="M43.3008 32.8001H48.6008V34.6001H45.5008V38.4001H47.7008V40.2001H45.5008V44.2001H48.6008V46.0001H43.3008V32.8001ZM49.5008 42.5001V36.1001C49.5008 34.0001 50.5008 32.6001 52.8008 32.6001C55.2008 32.6001 55.9008 34.0001 55.9008 35.9001V37.5001H53.9008V35.8001C53.9008 35.0001 53.6008 34.5001 52.8008 34.5001C52.0008 34.5001 51.7008 35.1001 51.7008 35.9001V43.0001C51.7008 43.8001 52.0008 44.4001 52.8008 44.4001C53.6008 44.4001 53.9008 43.9001 53.9008 43.1001V40.7001H55.9008V43.0001C55.9008 44.9001 55.1008 46.3001 52.8008 46.3001C50.5008 46.1001 49.5008 44.6001 49.5008 42.5001ZM57.1008 42.5001V36.1001C57.1008 34.0001 58.1008 32.6001 60.4008 32.6001C62.7008 32.6001 63.8008 34.1001 63.8008 36.1001V42.5001C63.8008 44.5001 62.8008 46.0001 60.4008 46.0001C58.2008 46.1001 57.1008 44.6001 57.1008 42.5001ZM61.6008 42.9001V35.8001C61.6008 35.0001 61.3008 34.4001 60.5008 34.4001C59.7008 34.4001 59.4008 35.0001 59.4008 35.8001V42.9001C59.4008 43.7001 59.7008 44.3001 60.5008 44.3001C61.3008 44.2001 61.6008 43.7001 61.6008 42.9001ZM67.0008 37.7001V46.0001H65.1008V32.9001H67.3008L69.7008 40.4001V32.9001H71.5008V46.0001H69.6008L67.0008 37.7001ZM72.8008 42.5001V36.1001C72.8008 34.0001 73.8008 32.6001 76.1008 32.6001C78.4008 32.6001 79.5008 34.1001 79.5008 36.1001V42.5001C79.5008 44.5001 78.5008 46.0001 76.1008 46.0001C73.8008 46.1001 72.8008 44.6001 72.8008 42.5001ZM77.2008 42.9001V35.8001C77.2008 35.0001 76.9008 34.4001 76.1008 34.4001C75.3008 34.4001 75.0008 35.0001 75.0008 35.8001V42.9001C75.0008 43.7001 75.3008 44.3001 76.1008 44.3001C76.9008 44.2001 77.2008 43.7001 77.2008 42.9001ZM86.8008 37.4001L85.2008 45.9001H84.2008L82.6008 37.4001V45.9001H80.8008V32.8001H83.4008L84.8008 40.2001L86.1008 32.8001H88.9008V45.9001H86.9008L86.8008 37.4001ZM90.1008 32.8001H92.3008V45.9001H90.1008V32.8001ZM93.5008 42.5001V36.1001C93.5008 34.0001 94.5008 32.6001 96.8008 32.6001C99.2008 32.6001 99.9008 34.0001 99.9008 35.9001V37.5001H97.9008V35.8001C97.9008 35.0001 97.6008 34.5001 96.8008 34.5001C96.0008 34.5001 95.7008 35.1001 95.7008 35.9001V43.0001C95.7008 43.8001 96.0008 44.4001 96.8008 44.4001C97.6008 44.4001 97.9008 43.9001 97.9008 43.1001V40.7001H99.9008V43.0001C99.9008 44.9001 99.1008 46.3001 96.8008 46.3001C94.5008 46.1001 93.5008 44.6001 93.5008 42.5001ZM107.101 38.9001H110.201V45.9001H108.601V44.5001C108.301 45.5001 107.701 46.1001 106.501 46.1001C104.601 46.1001 103.701 44.6001 103.701 42.6001V36.2001C103.701 34.1001 104.701 32.7001 107.001 32.7001C109.401 32.7001 110.201 34.1001 110.201 36.0001V37.2001H108.201V35.9001C108.201 35.1001 107.901 34.6001 107.101 34.6001C106.301 34.6001 106.001 35.2001 106.001 36.0001V43.1001C106.001 43.9001 106.301 44.5001 107.101 44.5001C107.801 44.5001 108.201 44.1001 108.201 43.2001V40.9001H107.201V38.9001H107.101ZM113.901 39.9001V45.9001H111.701V32.8001H114.901C117.101 32.8001 117.901 33.9001 117.901 35.7001V37.4001C117.901 38.8001 117.401 39.6001 116.101 39.9001L118.201 45.9001H115.901L113.901 39.9001ZM113.901 34.6001V38.7001H114.601C115.401 38.7001 115.701 38.3001 115.701 37.6001V35.7001C115.701 35.0001 115.401 34.6001 114.601 34.6001H113.901ZM118.901 42.5001V36.1001C118.901 34.0001 119.901 32.6001 122.201 32.6001C124.501 32.6001 125.601 34.1001 125.601 36.1001V42.5001C125.601 44.5001 124.601 46.0001 122.201 46.0001C119.901 46.1001 118.901 44.6001 118.901 42.5001ZM123.401 42.9001V35.8001C123.401 35.0001 123.101 34.4001 122.301 34.4001C121.501 34.4001 121.201 35.0001 121.201 35.8001V42.9001C121.201 43.7001 121.501 44.3001 122.301 44.3001C123.101 44.2001 123.401 43.7001 123.401 42.9001ZM131.301 37.8001L130.101 45.9001H128.001L126.201 32.8001H128.301L129.301 41.1001L130.401 32.8001H132.201L133.401 41.1001L134.401 32.8001H136.301L134.601 45.9001H132.501L131.301 37.8001ZM137.101 32.8001H143.001V34.6001H141.201V45.9001H138.901V34.6001H137.101V32.8001ZM148.001 40.1001H145.901V45.9001H143.701V32.8001H145.901V38.4001H148.001V32.8001H150.201V45.9001H148.001V40.1001Z" fill="#9FB4ED"/>
</svg>
